<?xml version="1.0" encoding="utf-8"?>
<!-- Generator: Adobe Illustrator 22.0.1, SVG Export Plug-In . SVG Version: 6.00 Build 0)  -->
<svg version="1.1" id="Logo" xmlns="http://www.w3.org/2000/svg" xmlns:xlink="http://www.w3.org/1999/xlink" x="0px" y="0px"
	 viewBox="0 0 72 72" style="enable-background:new 0 0 72 72;" xml:space="preserve">
<style type="text/css">
	.st0{fill:#FFA357;}
	.st1{fill:#FF5555;}
	.st2{fill:#FFFFFF;}
	.st3{fill:#FF57E7;}
	.st4{fill:#5AADFF;}
	.st5{fill:#57FFC7;}
	.st6{fill:#DBFF57;}
</style>
<g id="Logo-text">
	<path id="F" class="st0" d="M6.1,1.6c0-0.3,0.3-0.7,0.7-0.7H21c0.4,0,0.7,0.3,0.7,0.7v3.8C21.6,5.7,21.3,6,21,6h-9.5v5h7.9
		c0.3,0,0.7,0.3,0.7,0.7v3.8c0,0.3-0.3,0.7-0.7,0.7h-7.9v8.4c0,0.3-0.3,0.7-0.7,0.7H6.7c-0.4,0-0.7-0.3-0.7-0.7V1.6z"/>
	<path id="O" class="st1" d="M34.3,0.6c6.9,0,12.4,5.5,12.4,12.4s-5.5,12.4-12.4,12.4S22,19.9,22,13S27.4,0.6,34.3,0.6z M34.3,19.9
		c3.8,0,6.9-3.1,6.9-6.9c0-3.8-3.1-6.9-6.9-6.9c-3.8,0-6.9,3.1-6.9,6.9C27.5,16.8,30.6,19.9,34.3,19.9z"/>
	<path id="Heart" class="st2" d="M34.3,17.3l3.2-3.2c0.4-0.4,0.7-1,0.7-1.6c0-1.3-1-2.3-2.3-2.3c-0.6,0-1.2,0.3-1.6,0.7
		c-0.4-0.4-1-0.7-1.6-0.7c-1.3,0-2.3,1-2.3,2.3c0,0.6,0.3,1.2,0.7,1.6C31.1,14.1,34.3,17.3,34.3,17.3z"/>
	<path id="R" class="st3" d="M49.2,1.6c0-0.3,0.3-0.7,0.7-0.7h10.3c4.1,0,7.5,3.3,7.5,7.4c0,3.2-2.1,5.7-5.1,6.9l4.7,8.7
		c0.2,0.4,0,1-0.6,1h-4.6c-0.3,0-0.5-0.2-0.6-0.3L57,15.6h-2.4v8.8c0,0.3-0.3,0.7-0.7,0.7h-4.1c-0.4,0-0.7-0.3-0.7-0.7V1.6z
		 M59.7,11.2c1.4,0,2.6-1.3,2.6-2.8s-1.2-2.6-2.6-2.6h-5.1v5.4H59.7z"/>
	<path id="T" class="st2" d="M27.2,33h-2.6c-0.1,0-0.2-0.1-0.2-0.2v-0.2c0-0.1,0.1-0.2,0.2-0.2h5.9c0.1,0,0.2,0.1,0.2,0.2v0.2
		c0,0.1-0.1,0.2-0.2,0.2h-2.6v6.6c0,0.1-0.1,0.2-0.2,0.2h-0.2c-0.1,0-0.2-0.1-0.2-0.2V33z"/>
	<path id="H" class="st2" d="M31.6,32.6c0-0.1,0.1-0.2,0.2-0.2H32c0.1,0,0.2,0.1,0.2,0.2v3.1h6.2v-3.1c0-0.1,0.1-0.2,0.2-0.2h0.3
		c0.1,0,0.2,0.1,0.2,0.2v7c0,0.1-0.1,0.2-0.2,0.2h-0.3c-0.1,0-0.2-0.1-0.2-0.2v-3.3h-6.2v3.3c0,0.1-0.1,0.2-0.2,0.2h-0.3
		c-0.1,0-0.2-0.1-0.2-0.2V32.6z"/>
	<path id="E" class="st2" d="M41.3,32.6c0-0.1,0.1-0.2,0.2-0.2H47c0.1,0,0.2,0.1,0.2,0.2v0.2c0,0.1-0.1,0.2-0.2,0.2h-5v2.7h4.4
		c0.1,0,0.2,0.1,0.2,0.2v0.2c0,0.1-0.1,0.2-0.2,0.2H42v2.9h5c0.1,0,0.2,0.1,0.2,0.2v0.2c0,0.1-0.1,0.2-0.2,0.2h-5.5
		c-0.1,0-0.2-0.1-0.2-0.2V32.6z"/>
	<path id="R_1_" class="st4" d="M3.9,47.7c0-0.3,0.3-0.7,0.7-0.7h10.3c4.1,0,7.5,3.3,7.5,7.4c0,3.2-2.1,5.7-5.1,6.9l4.7,8.7
		c0.2,0.4,0,1-0.6,1h-4.6c-0.3,0-0.5-0.2-0.6-0.3l-4.6-9.1H9.4v8.8c0,0.3-0.3,0.7-0.7,0.7H4.6c-0.4,0-0.7-0.3-0.7-0.7V47.7z
		 M14.5,57.3c1.4,0,2.6-1.3,2.6-2.8c0-1.4-1.2-2.6-2.6-2.6H9.4v5.4H14.5z"/>
	<path id="U" class="st5" d="M24.6,47.7c0-0.3,0.3-0.7,0.7-0.7h4.2c0.4,0,0.7,0.3,0.7,0.7v13.9c0,2.4,1.8,4.3,4.2,4.3
		c2.5,0,4.3-1.9,4.3-4.3V47.7c0-0.3,0.3-0.7,0.7-0.7h4.2c0.3,0,0.7,0.3,0.7,0.7v14.2c0,5.2-4.4,9.6-9.9,9.6c-5.4,0-9.8-4.3-9.8-9.6
		V47.7z"/>
	<path id="N" class="st6" d="M47.7,47.3c0-0.3,0.3-0.6,0.7-0.6h0.9l13.7,13.2h0V47.7c0-0.3,0.3-0.7,0.7-0.7h4.1
		c0.3,0,0.7,0.3,0.7,0.7v23.2c0,0.3-0.3,0.6-0.7,0.6h-0.6c-0.1,0-0.4-0.1-0.4-0.2L53.2,57.6h0v12.8c0,0.3-0.3,0.7-0.7,0.7h-4.1
		c-0.3,0-0.7-0.3-0.7-0.7L47.7,47.3z"/>
</g>
<polygon id="Ribbon-left" class="st2" points="4.4,39.8 18.2,39.8 15.3,36.1 18.2,32.4 4.4,32.4 "/>
<polygon id="Ribbon-right" class="st2" points="54.4,39.8 68.9,39.8 68.9,32.4 54.4,32.4 57.2,36.1 "/>
</svg>
