<?xml version="1.0" encoding="utf-8"?>
<!-- Generator: Adobe Illustrator 22.0.1, SVG Export Plug-In . SVG Version: 6.00 Build 0)  -->
<svg version="1.1" id="Layer_1" xmlns="http://www.w3.org/2000/svg" xmlns:xlink="http://www.w3.org/1999/xlink" x="0px" y="0px"
	 viewBox="0 0 370.1 648" style="enable-background:new 0 0 370.1 648;" xml:space="preserve">
<style type="text/css">
	.st0{clip-path:url(#SVGID_2_);}
	.st1{fill:none;stroke:#9E9E9E;stroke-width:0.75;stroke-miterlimit:10;}
	.st2{fill:none;stroke:#9E9E9E;stroke-width:0.75;stroke-linecap:round;stroke-linejoin:round;stroke-miterlimit:10;}
	.st3{fill:none;stroke:#9E9E9E;stroke-width:0.75;stroke-linejoin:round;stroke-miterlimit:10;}
	.st4{fill:#9E9E9E;}
</style>
<g>
	<defs>
		<rect id="SVGID_1_" y="0" width="370.1" height="648"/>
	</defs>
	<clipPath id="SVGID_2_">
		<use xlink:href="#SVGID_1_"  style="overflow:visible;"/>
	</clipPath>
	<g class="st0">
		<g>
			<g id="Track">
				<path class="st1" d="M27.9,29.6c3.6,0,6.5-2.9,6.5-6.5s-2.9-6.5-6.5-6.5h-9.6c-3.6,0-6.5,2.9-6.5,6.5s2.9,6.5,6.5,6.5H27.9z"/>
				<path class="st1" d="M27.9,32.8c5.4,0,9.7-4.3,9.7-9.7s-4.3-9.7-9.7-9.7h-9.6c-5.4,0-9.7,4.3-9.7,9.7s4.3,9.7,9.7,9.7H27.9z"/>
				<path class="st1" d="M28,36c7.1,0,12.8-5.7,12.8-12.8S35.1,10.3,28,10.3h-9.7c-7.1,0-12.8,5.7-12.8,12.8S11.2,36,18.3,36H28z"/>
				<line class="st1" x1="18.3" y1="29.7" x2="18.3" y2="35.9"/>
			</g>
			<g id="Sun">
				<circle class="st2" cx="23.1" cy="69.4" r="6.6"/>
				<line class="st2" x1="32.2" y1="73" x2="35.1" y2="74.1"/>
				<line class="st2" x1="26.7" y1="60.3" x2="27.9" y2="57.4"/>
				<line class="st2" x1="20.5" y1="63.4" x2="18" y2="57.6"/>
				<line class="st2" x1="28.3" y1="81.2" x2="25.7" y2="75.4"/>
				<line class="st2" x1="35" y1="64.3" x2="29.1" y2="66.8"/>
				<line class="st2" x1="17.1" y1="72" x2="11.3" y2="74.5"/>
				<line class="st2" x1="18.4" y1="81.4" x2="19.5" y2="78.5"/>
				<line class="st2" x1="11.1" y1="64.7" x2="14" y2="65.8"/>
			</g>
			<path id="Moon" class="st3" d="M124.3,127.7c-4.9-1.8-8.4-6.5-8.4-12c0-5.5,3.5-10.2,8.4-12l0,0c-1.4-0.5-2.9-0.8-4.4-0.8
				c-7.1,0-12.8,5.7-12.8,12.8c0,7.1,5.7,12.8,12.8,12.8C121.4,128.5,122.9,128.2,124.3,127.7L124.3,127.7z"/>
			<g id="Rain">
				<path class="st3" d="M22,174.3c3,1.2,6.4-0.2,7.6-3.2c1.2-3,2-18,1.2-18.3c-0.8-0.3-10.8,10.9-12,13.9
					C17.6,169.7,19,173.1,22,174.3z"/>
				<path class="st3" d="M17,159.9c1.5,0.6,3.2-0.1,3.9-1.6s1-9.1,0.6-9.3c-0.4-0.2-5.4,5.5-6.1,7S15.5,159.3,17,159.9z"/>
			</g>
			<g id="Sleep">
				<path class="st3" d="M27.4,217.5c6.1,0,11.1-5,11.1-11.1v0c0-6.1-5-11.1-11.1-11.1h-8.6c-6.1,0-11.1,5-11.1,11.1v0
					c0,6.1,5,11.1,11.1,11.1h3.3v3.4L27.4,217.5z"/>
				<g>
					<path class="st4" d="M15.1,210.4l3.8-7.4v0h-3.1c-0.1,0-0.3-0.1-0.3-0.3v-1.6c0-0.1,0.1-0.3,0.3-0.3h6.1c0.1,0,0.3,0.1,0.3,0.3
						v0.2l-3.7,7.5v0h3.1c0.2,0,0.3,0.1,0.3,0.3v1.6c0,0.1-0.1,0.3-0.3,0.3h-6.3c-0.1,0-0.3-0.1-0.3-0.3V210.4z"/>
					<path class="st4" d="M22.7,210.5l1.7-3.5v0h-1.3c-0.1,0-0.3-0.1-0.3-0.3v-1.3c0-0.2,0.1-0.3,0.3-0.3H27c0.2,0,0.3,0.2,0.2,0.4
						l-1.8,3.5v0h1.3c0.2,0,0.3,0.1,0.3,0.3v1.3c0,0.1-0.1,0.3-0.3,0.3h-3.8c-0.1,0-0.3-0.1-0.3-0.3V210.5z"/>
					<path class="st4" d="M28,210.5l1.7-3.5v0h-1.3c-0.1,0-0.3-0.1-0.3-0.3v-1.3c0-0.2,0.1-0.3,0.3-0.3h3.9c0.2,0,0.3,0.2,0.2,0.4
						l-1.8,3.5v0H32c0.2,0,0.3,0.1,0.3,0.3v1.3c0,0.1-0.1,0.3-0.3,0.3h-3.8c-0.1,0-0.3-0.1-0.3-0.3V210.5z"/>
				</g>
			</g>
			<g id="Bib">
				<path class="st3" d="M36.7,267.2H9.5c-1.4,0-2.6-1.2-2.6-2.6v-20.5c0-1.4,1.2-2.6,2.6-2.6h27.2c1.4,0,2.6,1.2,2.6,2.6v20.5
					C39.3,266,38.1,267.2,36.7,267.2z"/>
				<g>
					<path class="st4" d="M10.8,257.2l0.7-0.7c0.1-0.1,0.2-0.1,0.3,0c0,0,0.7,0.5,1.3,0.5c0.5,0,1-0.4,1-1c0-0.5-0.5-1-1.4-1h-0.7
						c-0.1,0-0.2-0.1-0.2-0.2v-1c0-0.1,0.1-0.2,0.2-0.2h0.7c0.8,0,1.3-0.4,1.3-0.9c0-0.5-0.4-0.9-1-0.9c-0.5,0-0.9,0.3-1,0.5
						c-0.1,0.1-0.2,0.1-0.3,0l-0.7-0.7c-0.1-0.1-0.1-0.2,0-0.3c0,0,1-1,2.3-1c1.4,0,2.6,0.8,2.6,2.2c0,0.9-0.7,1.6-1.2,1.8v0
						c0.6,0.2,1.4,1,1.4,2c0,1.3-1.1,2.3-2.8,2.3c-1.5,0-2.3-0.7-2.5-1.1C10.7,257.4,10.7,257.3,10.8,257.2z"/>
					<path class="st4" d="M18.5,254.3L18.5,254.3c-0.5-0.3-1.2-0.9-1.2-1.9c0-1.3,1.2-2.2,2.6-2.2c1.5,0,2.7,0.8,2.7,2.2
						c0,0.9-0.8,1.5-1.2,1.8v0c0.5,0.3,1.4,1,1.4,2c0,1.3-1.1,2.3-2.9,2.3c-1.7,0-2.9-1-2.9-2.3C17.1,255.2,18.3,254.4,18.5,254.3z
						 M20,257.1c0.5,0,1-0.4,1-0.9c0-0.4-0.3-0.9-1-1.1c-0.6,0.2-1,0.7-1,1.1C19,256.7,19.5,257.1,20,257.1z M20.8,252.5
						c0-0.4-0.4-0.8-0.8-0.8c-0.4,0-0.8,0.4-0.8,0.8c0,0.4,0.3,0.8,0.8,1C20.5,253.3,20.8,252.9,20.8,252.5z"/>
					<path class="st4" d="M23.8,258.1l3-6.2H24c-0.1,0-0.2-0.1-0.2-0.2v-1.1c0-0.1,0.1-0.2,0.2-0.2h5c0.1,0,0.2,0.1,0.2,0.2v0.1
						l-3.6,7.4c-0.1,0.3-0.3,0.3-0.5,0.3H24c-0.1,0-0.2-0.1-0.2-0.2V258.1z"/>
					<path class="st4" d="M28.9,256.5v-1.3l4.1-5c0,0,0.1-0.1,0.2-0.1h0.9c0.1,0,0.2,0.1,0.2,0.2l0,4.9h0.9c0.1,0,0.2,0.1,0.2,0.2v1
						c0,0.1-0.1,0.2-0.2,0.2h-0.9l0,1.5c0,0.1-0.1,0.2-0.2,0.2h-1.3c-0.1,0-0.2-0.1-0.2-0.2v-1.4h-3.5
						C29,256.8,28.9,256.7,28.9,256.5z M32.7,255.3v-2.2l-1.9,2.2H32.7z"/>
				</g>
				<line class="st3" x1="10.8" y1="245.4" x2="35.5" y2="245.4"/>
				<line class="st3" x1="10.8" y1="263.4" x2="35.5" y2="263.4"/>
			</g>
			<g id="Mountains">
				<polygon class="st3" points="123.6,221 112.9,195.3 102.2,221 				"/>
				<polyline class="st3" points="123.6,221 129.1,221 121.6,203 118.8,209.6 				"/>
			</g>
			<g id="Tub">
				<path class="st3" d="M53.7,294l3.9,15c0.3,1.1,0.8,1.9,1.9,1.9h10h10c1,0,1.5-0.8,1.9-1.9l3.9-15"/>
				<path class="st4" d="M85.9,294.4H53.1c-0.5,0-0.8-0.4-0.8-0.8V293c0-0.5,0.4-0.8,0.8-0.8h32.8c0.5,0,0.8,0.4,0.8,0.8v0.5
					C86.7,294,86.3,294.4,85.9,294.4z"/>
				<path class="st3" d="M55.3,292.2v-1.4c0-1.5,1.3-2.8,2.8-2.8c1.4,0,2,1,2,1.7"/>
				<path class="st3" d="M63.7,313.7H62c-0.8,0-1.4-0.6-1.4-1.4l0,0c0-0.8,0.6-1.4,1.4-1.4h1.7c0.8,0,1.4,0.6,1.4,1.4l0,0
					C65.1,313.1,64.4,313.7,63.7,313.7z"/>
				<path class="st3" d="M77.1,313.7h-1.7c-0.8,0-1.4-0.6-1.4-1.4l0,0c0-0.8,0.6-1.4,1.4-1.4h1.7c0.8,0,1.4,0.6,1.4,1.4l0,0
					C78.5,313.1,77.9,313.7,77.1,313.7z"/>
			</g>
			<g id="Alarm">
				<circle class="st3" cx="69.6" cy="255.8" r="12.8"/>
				<path class="st4" d="M63.8,241.5c-1-1.3-2.6-2.1-4.4-2.1c-3.1,0-5.7,2.5-5.7,5.7c0,1.7,0.7,3.2,1.9,4.2
					C57.2,245.7,60.1,243,63.8,241.5z"/>
				<path class="st4" d="M75.2,241.5c1-1.3,2.6-2.1,4.4-2.1c3.1,0,5.7,2.5,5.7,5.7c0,1.7-0.7,3.2-1.9,4.2
					C81.7,245.7,78.9,243,75.2,241.5z"/>
				<line class="st2" x1="69.6" y1="257.6" x2="69.6" y2="245.8"/>
				<line class="st2" x1="67.8" y1="255.8" x2="74.6" y2="255.8"/>
				<polyline class="st2" points="60.5,264.9 55.8,269.6 63.7,267.2 				"/>
				<polyline class="st2" points="78.6,264.9 83.3,269.6 75.4,267.2 				"/>
			</g>
			<g id="Snow">
				<circle class="st3" cx="115.7" cy="300.9" r="3"/>
				<g>
					<line class="st2" x1="116.8" y1="298.1" x2="121.3" y2="286.7"/>
					<line class="st2" x1="119.5" y1="291.1" x2="117.8" y2="287.2"/>
					<line class="st2" x1="119.5" y1="291.1" x2="123.4" y2="289.4"/>
					<line class="st2" x1="117.9" y1="295.1" x2="115.4" y2="289.3"/>
					<line class="st2" x1="117.9" y1="295.1" x2="123.8" y2="292.6"/>
				</g>
				<g>
					<line class="st2" x1="118.5" y1="301.9" x2="129.9" y2="306.4"/>
					<line class="st2" x1="125.5" y1="304.7" x2="129.3" y2="303"/>
					<line class="st2" x1="125.5" y1="304.7" x2="127.2" y2="308.6"/>
					<line class="st2" x1="121.4" y1="303.1" x2="127.3" y2="300.6"/>
					<line class="st2" x1="121.4" y1="303.1" x2="124" y2="308.9"/>
				</g>
				<g>
					<line class="st2" x1="118.6" y1="299.6" x2="129.9" y2="294.7"/>
					<line class="st2" x1="125.5" y1="296.6" x2="127.1" y2="292.6"/>
					<line class="st2" x1="125.5" y1="296.6" x2="129.5" y2="298.1"/>
				</g>
				<g>
					<line class="st2" x1="114.4" y1="298" x2="109.5" y2="286.7"/>
					<line class="st2" x1="111.4" y1="291.1" x2="107.5" y2="289.5"/>
					<line class="st2" x1="111.4" y1="291.1" x2="113" y2="287.1"/>
				</g>
				<g>
					<line class="st2" x1="117" y1="303.8" x2="121.9" y2="315.1"/>
					<line class="st2" x1="120" y1="310.7" x2="124" y2="312.2"/>
					<line class="st2" x1="120" y1="310.7" x2="118.5" y2="314.6"/>
				</g>
				<g>
					<line class="st2" x1="112.6" y1="302.2" x2="101.4" y2="307.2"/>
					<line class="st2" x1="105.8" y1="305.2" x2="104.2" y2="309.2"/>
					<line class="st2" x1="105.8" y1="305.2" x2="101.8" y2="303.7"/>
				</g>
				<g>
					<line class="st2" x1="114.6" y1="303.6" x2="110.2" y2="315.1"/>
					<line class="st2" x1="111.9" y1="310.6" x2="113.6" y2="314.5"/>
					<line class="st2" x1="111.9" y1="310.6" x2="108" y2="312.3"/>
					<line class="st2" x1="113.5" y1="306.6" x2="116" y2="312.4"/>
					<line class="st2" x1="113.5" y1="306.6" x2="107.6" y2="309.2"/>
				</g>
				<g>
					<line class="st2" x1="113" y1="299.8" x2="101.5" y2="295.3"/>
					<line class="st2" x1="106" y1="297.1" x2="102.1" y2="298.8"/>
					<line class="st2" x1="106" y1="297.1" x2="104.3" y2="293.2"/>
					<line class="st2" x1="110" y1="298.6" x2="104.1" y2="301.2"/>
					<line class="st2" x1="110" y1="298.6" x2="107.4" y2="292.8"/>
				</g>
			</g>
			<g>
				<circle class="st3" cx="115.6" cy="262" r="7.6"/>
				<line class="st2" x1="111.6" y1="253.6" x2="119.5" y2="253.6"/>
				<polygon class="st2" points="111.6,253.6 99.8,239.4 107.9,239.4 119.7,253.6 				"/>
				<polyline class="st2" points="119.7,253.6 131.4,239.4 123.3,239.4 115.6,248.7 				"/>
			</g>
			<g id="Shoe">
				<path class="st2" d="M75.3,200.1c0.5,0.6,0.9,1.3,0.9,2.2c0,0.9-0.4,1.7-0.9,2.3l0,0c0.6,0.6,1.4,0.9,2.3,1c0.4,0,2.7,0,2.7,0
					c2.2,0,4.1-1.5,4.7-3.6l0,0c1.4,1.9,2.2,4.2,2.3,6.7c0.1,1.8-0.1,3.4-0.1,3.4c0.4,1-0.1,2.3-0.1,2.3c-0.3,0.9-0.9,1.2-1.7,1.2
					c0,0-0.9,0.8-1.2,0.8c-2.5,0-22.5,0-23.3,0c-0.9,0-1.7-0.1-2.9-0.4s-4.3-1.6-5.3-2.3c-1.1-0.8-1-1.1-1-1.1c0-0.1,0-0.1,0-0.2
					c0-0.6,0.3-1.1,0.6-1.5c1.2-1.3,2.7-1.4,3.9-1.8c1.1-0.4,4.3-1.5,5.9-2.2c0,0,6.9-3.1,8-3.6s1.9-1.3,2.5-1.6
					C73,201.1,75.3,200.1,75.3,200.1z"/>
				<line class="st2" x1="64.2" y1="205.7" x2="65.1" y2="207.1"/>
				<line class="st2" x1="66.6" y1="204.9" x2="67.5" y2="206.3"/>
				<line class="st2" x1="68.9" y1="203.9" x2="69.8" y2="205.3"/>
			</g>
			<g id="Bell">
				<path class="st3" d="M69.4,147.8c-4.4,0-8.1,3.2-9,7.3c-1,4.5-2.4,15.4-5.4,17.5l1.4,2h13"/>
				<path class="st3" d="M69.4,147.8c4.4,0,8.1,3.2,9,7.3c1,4.5,2.4,15.4,5.4,17.5l-1.4,2h-13"/>
				<path class="st3" d="M72.1,174.6c0,1.5-1.2,2.8-2.8,2.8s-2.8-1.2-2.8-2.8"/>
				<path class="st3" d="M68,147.8c0-0.8,0.6-1.4,1.4-1.4c0.8,0,1.4,0.6,1.4,1.4"/>
			</g>
			<g id="Finish">
				<polygon class="st3" points="88.8,120.6 49.9,120.6 52.7,115.6 49.9,110.7 88.8,110.7 86.1,115.6 				"/>
				<g>
					<path class="st4" d="M57,113.1c0-0.1,0.1-0.1,0.1-0.1h3.2c0.1,0,0.1,0.1,0.1,0.1v0.9c0,0.1-0.1,0.1-0.1,0.1h-2.2v1.1H60
						c0.1,0,0.1,0.1,0.1,0.1v0.9c0,0.1-0.1,0.1-0.1,0.1h-1.8v1.9c0,0.1-0.1,0.1-0.1,0.1h-0.9c-0.1,0-0.1-0.1-0.1-0.1V113.1z"/>
					<path class="st4" d="M61.5,113.1c0-0.1,0.1-0.1,0.1-0.1h0.9c0.1,0,0.1,0.1,0.1,0.1v5.2c0,0.1-0.1,0.1-0.1,0.1h-0.9
						c-0.1,0-0.1-0.1-0.1-0.1V113.1z"/>
					<path class="st4" d="M64,113c0-0.1,0.1-0.1,0.1-0.1h0.2l3.1,3h0v-2.8c0-0.1,0.1-0.1,0.1-0.1h0.9c0.1,0,0.1,0.1,0.1,0.1v5.3
						c0,0.1-0.1,0.1-0.1,0.1h-0.1c0,0-0.1,0-0.1,0l-3.1-3.1h0v2.9c0,0.1-0.1,0.1-0.1,0.1h-0.9c-0.1,0-0.1-0.1-0.1-0.1L64,113z"/>
					<path class="st4" d="M70.1,113.1c0-0.1,0.1-0.1,0.1-0.1h0.9c0.1,0,0.1,0.1,0.1,0.1v5.2c0,0.1-0.1,0.1-0.1,0.1h-0.9
						c-0.1,0-0.1-0.1-0.1-0.1V113.1z"/>
					<path class="st4" d="M72.4,117.6l0.4-0.7c0.1-0.1,0.2-0.1,0.3,0c0,0,0.6,0.4,1.1,0.4c0.3,0,0.5-0.2,0.5-0.5
						c0-0.3-0.3-0.6-0.8-0.8c-0.7-0.3-1.5-0.8-1.5-1.7c0-0.8,0.6-1.6,1.8-1.6c0.8,0,1.4,0.4,1.7,0.6c0.1,0.1,0.1,0.2,0,0.3l-0.4,0.6
						c-0.1,0.1-0.2,0.2-0.3,0.1c-0.1,0-0.6-0.5-1.1-0.5c-0.3,0-0.5,0.2-0.5,0.4c0,0.3,0.2,0.5,0.9,0.8c0.6,0.2,1.6,0.7,1.6,1.8
						c0,0.8-0.7,1.6-1.9,1.6c-1,0-1.6-0.4-1.8-0.6C72.3,117.8,72.3,117.8,72.4,117.6z"/>
					<path class="st4" d="M77,113.1c0-0.1,0.1-0.1,0.1-0.1h0.9c0.1,0,0.1,0.1,0.1,0.1v2h2.2v-2c0-0.1,0.1-0.1,0.1-0.1h0.9
						c0.1,0,0.1,0.1,0.1,0.1v5.2c0,0.1-0.1,0.1-0.1,0.1h-0.9c-0.1,0-0.1-0.1-0.1-0.1v-2.1h-2.2v2.1c0,0.1-0.1,0.1-0.1,0.1h-0.9
						c-0.1,0-0.1-0.1-0.1-0.1V113.1z"/>
				</g>
			</g>
			<path id="Wing_Shoe" class="st3" d="M74.2,74.2c0,0,2.2,4.3,2.7,5.1c0.5,0.8,1.7,1.4,2.6,1.7s1.5,0.6,1.9,0.8
				c0.4,0.2,1.1,0.6,1.1,1.4c0,0.9-0.4,1.7-1.2,1.7c-0.8,0-4.3,0-5.4,0s-3.7-0.4-5.2-1.8c-1.5-1.5-3.1-4.5-3.1-4.5
				c8.2-6.8,8-15.5,2.3-18.3l-13.5-6.4c0.4,4.4,3.4,5.5,3.4,5.5c0.4,3.9,2.4,5.2,3.8,5.9c0,0-0.2,3.6,2.5,5.1l4.3,2
				c-1.9,3.2-4.4,4.2-5.5,4.4c-1.5,0.3-2.9-0.6-3.5-1.2c-1-0.9-2.8-2.7,0.4-6.2"/>
			<path id="Shirt_1_" class="st3" d="M69.4,13.6c3.4,0,6.2-2.8,6.2-6.2l11.8,4.4l-2.5,9l-6-1.5v19.6h-9.6h-9.6V19.3l-6,1.5l-2.5-9
				l11.8-4.4C63.2,10.8,65.9,13.6,69.4,13.6z"/>
			<g id="Socks">
				<g>
					<path class="st3" d="M109.1,28.8l11,2.8l0,0c1.5,0.4,2.7,1.8,2.7,3.5c0,2-1.6,3.6-3.6,3.6c-0.3,0-0.7-0.1-0.9-0.2l-9.1-2.3
						c-2.6-0.5-4.7-2.1-4.7-4.7V10.4h7.4v21.2"/>
					<path class="st3" d="M104.4,29.4c2.9,1,5,3.7,5.1,6.9"/>
					<line class="st3" x1="104.4" y1="15.1" x2="111.9" y2="15.1"/>
					<line class="st3" x1="104.4" y1="17.2" x2="111.9" y2="17.2"/>
					<line class="st3" x1="104.4" y1="19.3" x2="111.9" y2="19.3"/>
				</g>
				<g>
					<polyline class="st3" points="108.5,10.4 108.5,7.7 115.9,7.7 115.9,28.8 					"/>
					<path class="st3" d="M113.2,26.1l11,2.8l0,0c1.5,0.4,2.7,1.8,2.7,3.5c0,2-1.6,3.6-3.6,3.6c-0.2,0-0.3,0-0.5-0.1"/>
					<line class="st3" x1="111.9" y1="12.4" x2="115.9" y2="12.4"/>
					<line class="st3" x1="111.9" y1="14.5" x2="115.9" y2="14.5"/>
					<line class="st3" x1="111.9" y1="16.6" x2="115.9" y2="16.6"/>
				</g>
			</g>
			<g id="Pizza">
				<path class="st3" d="M23.1,285c4.9,0,12.5,2.9,12.5,2.9l-12.5,28.8l-12.5-28.8C10.7,287.9,18.2,285,23.1,285z"/>
				<path class="st3" d="M11.7,290.4c0,0,11.8-5.6,22.8,0"/>
				<circle class="st4" cx="19.2" cy="295.9" r="2.2"/>
				<circle class="st4" cx="23.6" cy="304.6" r="2.2"/>
				<circle class="st4" cx="27.3" cy="293.7" r="2.2"/>
			</g>
			<g id="Beer">
				<path class="st3" d="M28.9,106.2h-3.3l0,0c-0.6,1.3-1.9,2.2-3.4,2.2c-1.5,0-2.8-0.9-3.4-2.2l0,0h-4.9v23.3c0,1.3,1,2.3,2.3,2.3
					h10.5c1.3,0,2.3-1,2.3-2.3V106.2z"/>
				<path class="st3" d="M13.9,107.2c-1-0.7-1.2-0.5-1.2-1.8c0-2.2,1.3-2.9,3.5-2.9l0,0c0.5-1.7,2.1-3,3.9-3c1.9,0,3.5,1.3,3.9,3
					l-0.1-0.2c0.3,0,0.5-0.1,0.8-0.1c3,0,4.9,0,4.9,3c0,1.4,0,1.5-0.9,2.4"/>
				<path class="st3" d="M28.9,112h2.3c1.3,0,2.3,1,2.3,2.3v7.7c0,1.3-1,2.3-2.3,2.3h-2.3"/>
				<line class="st2" x1="17.4" y1="112" x2="17.4" y2="126.5"/>
				<line class="st2" x1="21.2" y1="112" x2="21.2" y2="126.5"/>
				<line class="st2" x1="25.1" y1="112" x2="25.1" y2="126.5"/>
			</g>
			<g id="Donut">
				<circle class="st2" cx="115.6" cy="69.4" r="15.5"/>
				<circle class="st2" cx="115.6" cy="69.4" r="6.2"/>
				<path class="st4" d="M121.8,69.4c0,3.4-2.8,6.2-6.2,6.2c-3.4,0-6.2-2.8-6.2-6.2c0-3.4,2.8-6.2,6.2-6.2
					C119,63.2,121.8,66,121.8,69.4z M111.2,57.4c-1.9,0-2.3,0.3-3.4,1.3c-1.1,1-0.7,2.6-1.3,3.6c-0.5,1-2.5,1.5-3.3,2.6
					c-0.7,1.1,1,2.7,0.7,4.5c-0.2,1.7-0.7,2.4-0.4,4.4c0.4,1.9,2.6,0.9,3.4,1.8c0.8,0.9,0,1.4,0,3s2.7,1.8,4.7,1.7
					c1.9-0.1,2.1,1.7,3.5,2.1s2.5-0.4,3-1.4s2-0.8,3.2-0.7c1.2,0.1,2-0.6,2.2-1.7c0.2-1.1,1.8-2.4,3.2-3c1.4-0.6,1.6-2.8,1-3.7
					c-0.5-0.9-0.9-2.9-0.2-4.7c0.7-1.8-0.2-2.4-1-3.3c-0.8-1-1.3-1.5-1.6-3.2c-0.2-1.7-1.7-1.6-2.7-2.4s-1.9,0.2-3.1-0.4
					s-2.2-1.5-3.1-1.9C114.6,55.4,113.2,57.4,111.2,57.4z"/>
			</g>
			<g id="Cookie">
				<path class="st2" d="M127.4,158.1c-3.4-1-6-4.1-6-7.9c0-0.9,0.1-1.7,0.4-2.5l-0.2-0.1c-1.9-0.8-3.9-1.2-6-1.2
					c-8.6,0-15.5,6.9-15.5,15.5c0,8.6,6.9,15.5,15.5,15.5c7.8,0,14.2-5.7,15.3-13.2l0,0c-2.1-1-3.6-3.1-3.6-5.6
					C127.4,158.4,127.4,158.3,127.4,158.1L127.4,158.1z"/>
				<circle class="st4" cx="113.9" cy="161.7" r="2.4"/>
				<circle class="st4" cx="124.7" cy="167.6" r="2.1"/>
				<circle class="st4" cx="108.1" cy="155" r="1.8"/>
				<circle class="st4" cx="114.5" cy="175.6" r="1.8"/>
				<circle class="st4" cx="122.3" cy="160.2" r="1.5"/>
				<circle class="st4" cx="105.8" cy="165.7" r="1.7"/>
				<circle class="st4" cx="116.9" cy="150.1" r="1.2"/>
				<circle class="st4" cx="116.8" cy="167.9" r="0.8"/>
			</g>
			<g id="Tree">
				<polygon class="st3" points="161.9,38.5 163.5,38.5 163.5,35.1 168.3,35.1 170.8,35.1 166.3,26 166,26 168.6,26 164.1,16.8 
					163.8,16.8 166.3,16.8 161.9,7.7 157.4,16.8 159.9,16.8 159.6,16.8 155.2,26 157.7,26 157.4,26 152.9,35.1 155.5,35.1 
					160.2,35.1 160.2,38.5 				"/>
				<line class="st3" x1="157.9" y1="35.1" x2="166.7" y2="35.1"/>
			</g>
			<path id="Heart" class="st1" d="M161.9,81.6l11.1-11.1c1.4-1.4,2.3-3.4,2.3-5.5c0-4.3-3.5-7.8-7.8-7.8c-2.2,0-4.1,0.9-5.5,2.3
				c-1.4-1.4-3.4-2.3-5.5-2.3c-4.3,0-7.8,3.5-7.8,7.8c0,2.2,0.9,4.1,2.3,5.5L161.9,81.6z"/>
			<polygon id="Lightning" class="st2" points="161.5,117 156.9,130.5 168.8,114.8 162.2,114.8 162.2,114.8 166.8,101.3 155,117 
				161.5,117 			"/>
			<g id="Hat">
				<path class="st2" d="M145.6,167.8c-2.2-12.9,1.8-15.7,9.7-17.3c8-1.6,11.9,1.6,12.4,2.6c0.5,1.1,3,8.8,3,8.8s4.5,3.3,5.5,4
					c1,0.6,3.2,1.1,2.4,4.1c-0.8,3-2,2.3-2.7,2c-1.3-0.5-4.9-3.7-4.9-3.7c-1.8,1.2-5.5,3.8-7.8,4.8c-2.3,1-5.1,0.7-6.7,0
					c-1.6-0.7-6.3-4-7.6-5.3H145.6z"/>
				<path class="st2" d="M149,167.8c2.1-1.1,10.1-4.7,21.7-5.9"/>
				<path class="st2" d="M154.8,150.5c-2.8,1.5-8.4,3.3-3.9,16.3"/>
				<path class="st2" d="M171,168.3c2-1.2,4.5-2.9,6.5-1.7"/>
			</g>
			<g id="Watch">
				<circle class="st1" cx="161.9" cy="208.2" r="7.2"/>
				<path class="st2" d="M157,214.9c-0.8-0.6-1.4-1.3-2-2"/>
				<path class="st2" d="M168.7,213.1c-0.5,0.6-1,1.2-1.6,1.6"/>
				<path class="st2" d="M166.9,201.4c0.7,0.5,1.3,1.1,1.8,1.8"/>
				<path class="st2" d="M155.2,203.2c0.6-0.8,1.3-1.4,2-2"/>
				<line class="st2" x1="161.9" y1="208.2" x2="161.9" y2="203.7"/>
				<line class="st2" x1="161.9" y1="208.2" x2="164.5" y2="208.2"/>
				<polyline class="st2" points="164.7,201.2 164.7,189.4 159.1,189.4 159.1,201.2 				"/>
				<polyline class="st2" points="164.7,215.1 164.7,227 159.1,227 159.1,215.1 				"/>
				<line class="st2" x1="161.9" y1="192.3" x2="161.9" y2="192.8"/>
				<line class="st2" x1="161.9" y1="195.2" x2="161.9" y2="195.6"/>
			</g>
			<path class="st2" d="M152.5,266.1h21.2c2.5,0,4.4-2,4.4-4.4c0-2.5-2-4.4-4.4-4.4c-0.1,0-0.2,0-0.3,0l0,0c0.2-0.9,0.3-1.7,0.3-2.7
				c0-6.4-5.2-11.5-11.5-11.5c-5.7,0-10.4,4.1-11.4,9.6l0,0c-3,0.8-5.2,3.4-5.2,6.7C145.6,263,148.7,266.1,152.5,266.1z"/>
			<path class="st2" d="M174.7,310.6h-27.6c-2.2,0-3.9-1.8-3.9-3.9s1.8-3.9,3.9-3.9c0.1,0,0.1,0,0.2,0l0,0c-0.1-0.6-0.2-1.2-0.2-1.9
				c0-5.4,4.4-9.7,9.7-9.7c5.4,0,9.7,4.4,9.7,9.7c0,0.1,0,0.2,0,0.4l0,0c0.6-0.2,1.2-0.4,1.9-0.4c0.5,0,1,0.1,1.5,0.2l0,0
				c1.1-1.4,2.8-2.4,4.7-2.4c3.3,0,5.9,2.7,5.9,5.9C180.6,308,178,310.6,174.7,310.6z"/>
		</g>
		<g>
			<g id="Track_1_">
				<path class="st1" d="M27.9,353.6c3.6,0,6.5-2.9,6.5-6.5s-2.9-6.5-6.5-6.5h-9.6c-3.6,0-6.5,2.9-6.5,6.5s2.9,6.5,6.5,6.5H27.9z"/>
				<path class="st1" d="M27.9,356.8c5.4,0,9.7-4.3,9.7-9.7c0-5.4-4.3-9.7-9.7-9.7h-9.6c-5.4,0-9.7,4.3-9.7,9.7
					c0,5.4,4.3,9.7,9.7,9.7H27.9z"/>
				<path class="st1" d="M28,360c7.1,0,12.8-5.7,12.8-12.8s-5.7-12.8-12.8-12.8h-9.7c-7.1,0-12.8,5.7-12.8,12.8S11.2,360,18.3,360
					H28z"/>
				<line class="st1" x1="18.3" y1="353.7" x2="18.3" y2="359.9"/>
			</g>
			<g id="Sun_1_">
				<circle class="st2" cx="23.1" cy="393.4" r="6.6"/>
				<line class="st2" x1="32.2" y1="397" x2="35.1" y2="398.1"/>
				<line class="st2" x1="26.7" y1="384.3" x2="27.9" y2="381.4"/>
				<line class="st2" x1="20.5" y1="387.4" x2="18" y2="381.6"/>
				<line class="st2" x1="28.3" y1="405.2" x2="25.7" y2="399.4"/>
				<line class="st2" x1="35" y1="388.3" x2="29.1" y2="390.8"/>
				<line class="st2" x1="17.1" y1="396" x2="11.3" y2="398.5"/>
				<line class="st2" x1="18.4" y1="405.4" x2="19.5" y2="402.5"/>
				<line class="st2" x1="11.1" y1="388.7" x2="14" y2="389.8"/>
			</g>
			<path id="Moon_1_" class="st3" d="M124.3,451.7c-4.9-1.8-8.4-6.5-8.4-12c0-5.5,3.5-10.2,8.4-12l0,0c-1.4-0.5-2.9-0.8-4.4-0.8
				c-7.1,0-12.8,5.7-12.8,12.8s5.7,12.8,12.8,12.8C121.4,452.5,122.9,452.2,124.3,451.7L124.3,451.7z"/>
			<g id="Rain_1_">
				<path class="st3" d="M22,498.3c3,1.2,6.4-0.2,7.6-3.2s2-18,1.2-18.3c-0.8-0.3-10.8,10.9-12,13.9C17.6,493.7,19,497.1,22,498.3z"
					/>
				<path class="st3" d="M17,483.9c1.5,0.6,3.2-0.1,3.9-1.6c0.6-1.5,1-9.1,0.6-9.3s-5.4,5.5-6.1,7C14.7,481.6,15.5,483.3,17,483.9z"
					/>
			</g>
			<g id="Sleep_1_">
				<path class="st3" d="M27.4,541.5c6.1,0,11.1-5,11.1-11.1l0,0c0-6.1-5-11.1-11.1-11.1h-8.6c-6.1,0-11.1,5-11.1,11.1l0,0
					c0,6.1,5,11.1,11.1,11.1h3.3v3.4L27.4,541.5z"/>
				<g>
					<path class="st4" d="M15.1,534.4l3.8-7.4v0h-3.1c-0.1,0-0.3-0.1-0.3-0.3v-1.6c0-0.1,0.1-0.3,0.3-0.3h6.1c0.1,0,0.3,0.1,0.3,0.3
						v0.2l-3.7,7.5v0h3.1c0.2,0,0.3,0.1,0.3,0.3v1.6c0,0.1-0.1,0.3-0.3,0.3h-6.3c-0.1,0-0.3-0.1-0.3-0.3V534.4z"/>
					<path class="st4" d="M22.7,534.5l1.7-3.5v0h-1.3c-0.1,0-0.3-0.1-0.3-0.3v-1.3c0-0.2,0.1-0.3,0.3-0.3H27c0.2,0,0.3,0.2,0.2,0.4
						l-1.8,3.5v0h1.3c0.2,0,0.3,0.1,0.3,0.3v1.3c0,0.1-0.1,0.3-0.3,0.3h-3.8c-0.1,0-0.3-0.1-0.3-0.3V534.5z"/>
					<path class="st4" d="M28,534.5l1.7-3.5v0h-1.3c-0.1,0-0.3-0.1-0.3-0.3v-1.3c0-0.2,0.1-0.3,0.3-0.3h3.9c0.2,0,0.3,0.2,0.2,0.4
						l-1.8,3.5v0H32c0.2,0,0.3,0.1,0.3,0.3v1.3c0,0.1-0.1,0.3-0.3,0.3h-3.8c-0.1,0-0.3-0.1-0.3-0.3V534.5z"/>
				</g>
			</g>
			<g id="Bib_1_">
				<path class="st3" d="M36.7,591.2H9.5c-1.4,0-2.6-1.2-2.6-2.6v-20.5c0-1.4,1.2-2.6,2.6-2.6h27.2c1.4,0,2.6,1.2,2.6,2.6v20.5
					C39.3,590,38.1,591.2,36.7,591.2z"/>
				<g>
					<path class="st4" d="M10.8,581.2l0.7-0.7c0.1-0.1,0.2-0.1,0.3,0c0,0,0.7,0.5,1.3,0.5c0.5,0,1-0.4,1-1s-0.5-1-1.4-1h-0.7
						c-0.1,0-0.2-0.1-0.2-0.2v-1c0-0.1,0.1-0.2,0.2-0.2h0.7c0.8,0,1.3-0.4,1.3-0.9s-0.4-0.9-1-0.9c-0.5,0-0.9,0.3-1,0.5
						c-0.1,0.1-0.2,0.1-0.3,0l-0.7-0.7c-0.1-0.1-0.1-0.2,0-0.3c0,0,1-1,2.3-1c1.4,0,2.6,0.8,2.6,2.2c0,0.9-0.7,1.6-1.2,1.8v0
						c0.6,0.2,1.4,1,1.4,2c0,1.3-1.1,2.3-2.8,2.3c-1.5,0-2.3-0.7-2.5-1.1C10.7,581.4,10.7,581.3,10.8,581.2z"/>
					<path class="st4" d="M18.5,578.3L18.5,578.3c-0.5-0.3-1.2-0.9-1.2-1.9c0-1.3,1.2-2.2,2.6-2.2c1.5,0,2.7,0.8,2.7,2.2
						c0,0.9-0.8,1.5-1.2,1.8v0c0.5,0.3,1.4,1,1.4,2c0,1.3-1.1,2.3-2.9,2.3c-1.7,0-2.9-1-2.9-2.3C17.1,579.2,18.3,578.4,18.5,578.3z
						 M20,581.1c0.5,0,1-0.4,1-0.9c0-0.4-0.3-0.9-1-1.1c-0.6,0.2-1,0.7-1,1.1C19,580.7,19.5,581.1,20,581.1z M20.8,576.5
						c0-0.4-0.4-0.8-0.8-0.8c-0.4,0-0.8,0.4-0.8,0.8c0,0.4,0.3,0.8,0.8,1C20.5,577.3,20.8,576.9,20.8,576.5z"/>
					<path class="st4" d="M23.8,582.1l3-6.2H24c-0.1,0-0.2-0.1-0.2-0.2v-1.1c0-0.1,0.1-0.2,0.2-0.2h5c0.1,0,0.2,0.1,0.2,0.2v0.1
						l-3.6,7.4c-0.1,0.3-0.3,0.3-0.5,0.3H24c-0.1,0-0.2-0.1-0.2-0.2V582.1z"/>
					<path class="st4" d="M28.9,580.5v-1.3l4.1-5c0,0,0.1-0.1,0.2-0.1h0.9c0.1,0,0.2,0.1,0.2,0.2l0,4.9h0.9c0.1,0,0.2,0.1,0.2,0.2v1
						c0,0.1-0.1,0.2-0.2,0.2h-0.9l0,1.5c0,0.1-0.1,0.2-0.2,0.2h-1.3c-0.1,0-0.2-0.1-0.2-0.2v-1.4h-3.5
						C29,580.8,28.9,580.7,28.9,580.5z M32.7,579.3v-2.2l-1.9,2.2H32.7z"/>
				</g>
				<line class="st3" x1="10.8" y1="569.4" x2="35.5" y2="569.4"/>
				<line class="st3" x1="10.8" y1="587.4" x2="35.5" y2="587.4"/>
			</g>
			<g id="Mountains_1_">
				<polygon class="st3" points="123.6,545 112.9,519.3 102.2,545 				"/>
				<polyline class="st3" points="123.6,545 129.1,545 121.6,527 118.8,533.6 				"/>
			</g>
			<g id="Tub_1_">
				<path class="st3" d="M53.7,618l3.9,15c0.3,1.1,0.8,1.9,1.9,1.9h10h10c1,0,1.5-0.8,1.9-1.9l3.9-15"/>
				<path class="st4" d="M85.9,618.4H53.1c-0.5,0-0.8-0.4-0.8-0.8V617c0-0.5,0.4-0.8,0.8-0.8h32.8c0.5,0,0.8,0.4,0.8,0.8v0.5
					C86.7,618,86.3,618.4,85.9,618.4z"/>
				<path class="st3" d="M55.3,616.2v-1.4c0-1.5,1.3-2.8,2.8-2.8c1.4,0,2,1,2,1.7"/>
				<path class="st3" d="M63.7,637.7H62c-0.8,0-1.4-0.6-1.4-1.4l0,0c0-0.8,0.6-1.4,1.4-1.4h1.7c0.8,0,1.4,0.6,1.4,1.4l0,0
					C65.1,637.1,64.4,637.7,63.7,637.7z"/>
				<path class="st3" d="M77.1,637.7h-1.7c-0.8,0-1.4-0.6-1.4-1.4l0,0c0-0.8,0.6-1.4,1.4-1.4h1.7c0.8,0,1.4,0.6,1.4,1.4l0,0
					C78.5,637.1,77.9,637.7,77.1,637.7z"/>
			</g>
			<g id="Alarm_1_">
				<circle class="st3" cx="69.6" cy="579.8" r="12.8"/>
				<path class="st4" d="M63.8,565.5c-1-1.3-2.6-2.1-4.4-2.1c-3.1,0-5.7,2.5-5.7,5.7c0,1.7,0.7,3.2,1.9,4.2
					C57.2,569.7,60.1,567,63.8,565.5z"/>
				<path class="st4" d="M75.2,565.5c1-1.3,2.6-2.1,4.4-2.1c3.1,0,5.7,2.5,5.7,5.7c0,1.7-0.7,3.2-1.9,4.2
					C81.7,569.7,78.9,567,75.2,565.5z"/>
				<line class="st2" x1="69.6" y1="581.6" x2="69.6" y2="569.8"/>
				<line class="st2" x1="67.8" y1="579.8" x2="74.6" y2="579.8"/>
				<polyline class="st2" points="60.5,588.9 55.8,593.6 63.7,591.2 				"/>
				<polyline class="st2" points="78.6,588.9 83.3,593.6 75.4,591.2 				"/>
			</g>
			<g id="Snow_1_">
				<circle class="st3" cx="115.7" cy="624.9" r="3"/>
				<g>
					<line class="st2" x1="116.8" y1="622.1" x2="121.3" y2="610.7"/>
					<line class="st2" x1="119.5" y1="615.1" x2="117.8" y2="611.2"/>
					<line class="st2" x1="119.5" y1="615.1" x2="123.4" y2="613.4"/>
					<line class="st2" x1="117.9" y1="619.1" x2="115.4" y2="613.3"/>
					<line class="st2" x1="117.9" y1="619.1" x2="123.8" y2="616.6"/>
				</g>
				<g>
					<line class="st2" x1="118.5" y1="625.9" x2="129.9" y2="630.4"/>
					<line class="st2" x1="125.5" y1="628.7" x2="129.3" y2="627"/>
					<line class="st2" x1="125.5" y1="628.7" x2="127.2" y2="632.6"/>
					<line class="st2" x1="121.4" y1="627.1" x2="127.3" y2="624.6"/>
					<line class="st2" x1="121.4" y1="627.1" x2="124" y2="632.9"/>
				</g>
				<g>
					<line class="st2" x1="118.6" y1="623.6" x2="129.9" y2="618.7"/>
					<line class="st2" x1="125.5" y1="620.6" x2="127.1" y2="616.6"/>
					<line class="st2" x1="125.5" y1="620.6" x2="129.5" y2="622.1"/>
				</g>
				<g>
					<line class="st2" x1="114.4" y1="622" x2="109.5" y2="610.7"/>
					<line class="st2" x1="111.4" y1="615.1" x2="107.5" y2="613.5"/>
					<line class="st2" x1="111.4" y1="615.1" x2="113" y2="611.1"/>
				</g>
				<g>
					<line class="st2" x1="117" y1="627.8" x2="121.9" y2="639.1"/>
					<line class="st2" x1="120" y1="634.7" x2="124" y2="636.2"/>
					<line class="st2" x1="120" y1="634.7" x2="118.5" y2="638.6"/>
				</g>
				<g>
					<line class="st2" x1="112.6" y1="626.2" x2="101.4" y2="631.2"/>
					<line class="st2" x1="105.8" y1="629.2" x2="104.2" y2="633.2"/>
					<line class="st2" x1="105.8" y1="629.2" x2="101.8" y2="627.7"/>
				</g>
				<g>
					<line class="st2" x1="114.6" y1="627.6" x2="110.2" y2="639.1"/>
					<line class="st2" x1="111.9" y1="634.6" x2="113.6" y2="638.5"/>
					<line class="st2" x1="111.9" y1="634.6" x2="108" y2="636.3"/>
					<line class="st2" x1="113.5" y1="630.6" x2="116" y2="636.4"/>
					<line class="st2" x1="113.5" y1="630.6" x2="107.6" y2="633.2"/>
				</g>
				<g>
					<line class="st2" x1="113" y1="623.8" x2="101.5" y2="619.3"/>
					<line class="st2" x1="106" y1="621.1" x2="102.1" y2="622.8"/>
					<line class="st2" x1="106" y1="621.1" x2="104.3" y2="617.2"/>
					<line class="st2" x1="110" y1="622.6" x2="104.1" y2="625.2"/>
					<line class="st2" x1="110" y1="622.6" x2="107.4" y2="616.8"/>
				</g>
			</g>
			<g>
				<circle class="st3" cx="115.6" cy="586" r="7.6"/>
				<line class="st2" x1="111.6" y1="577.6" x2="119.5" y2="577.6"/>
				<polygon class="st2" points="111.6,577.6 99.8,563.4 107.9,563.4 119.7,577.6 				"/>
				<polyline class="st2" points="119.7,577.6 131.4,563.4 123.3,563.4 115.6,572.7 				"/>
			</g>
			<g id="Shoe_1_">
				<path class="st2" d="M75.3,524.1c0.5,0.6,0.9,1.3,0.9,2.2c0,0.9-0.4,1.7-0.9,2.3l0,0c0.6,0.6,1.4,0.9,2.3,1c0.4,0,2.7,0,2.7,0
					c2.2,0,4.1-1.5,4.7-3.6l0,0c1.4,1.9,2.2,4.2,2.3,6.7c0.1,1.8-0.1,3.4-0.1,3.4c0.4,1-0.1,2.3-0.1,2.3c-0.3,0.9-0.9,1.2-1.7,1.2
					c0,0-0.9,0.8-1.2,0.8c-2.5,0-22.5,0-23.3,0c-0.9,0-1.7-0.1-2.9-0.4s-4.3-1.6-5.3-2.3c-1.1-0.8-1-1.1-1-1.1c0-0.1,0-0.1,0-0.2
					c0-0.6,0.3-1.1,0.6-1.5c1.2-1.3,2.7-1.4,3.9-1.8s4.3-1.5,5.9-2.2c0,0,6.9-3.1,8-3.6c1-0.5,1.9-1.3,2.5-1.6
					C73,525.1,75.3,524.1,75.3,524.1z"/>
				<line class="st2" x1="64.2" y1="529.7" x2="65.1" y2="531.1"/>
				<line class="st2" x1="66.6" y1="528.9" x2="67.5" y2="530.3"/>
				<line class="st2" x1="68.9" y1="527.9" x2="69.8" y2="529.3"/>
			</g>
			<g id="Bell_1_">
				<path class="st3" d="M69.4,471.8c-4.4,0-8.1,3.2-9,7.3c-1,4.5-2.4,15.4-5.4,17.5l1.4,2h13"/>
				<path class="st3" d="M69.4,471.8c4.4,0,8.1,3.2,9,7.3c1,4.5,2.4,15.4,5.4,17.5l-1.4,2h-13"/>
				<path class="st3" d="M72.1,498.6c0,1.5-1.2,2.8-2.8,2.8s-2.8-1.2-2.8-2.8"/>
				<path class="st3" d="M68,471.8c0-0.8,0.6-1.4,1.4-1.4c0.8,0,1.4,0.6,1.4,1.4"/>
			</g>
			<g id="Finish_1_">
				<polygon class="st3" points="88.8,444.6 49.9,444.6 52.7,439.6 49.9,434.7 88.8,434.7 86.1,439.6 				"/>
				<g>
					<path class="st4" d="M57,437.1c0-0.1,0.1-0.1,0.1-0.1h3.2c0.1,0,0.1,0.1,0.1,0.1v0.9c0,0.1-0.1,0.1-0.1,0.1h-2.2v1.1H60
						c0.1,0,0.1,0.1,0.1,0.1v0.9c0,0.1-0.1,0.1-0.1,0.1h-1.8v1.9c0,0.1-0.1,0.1-0.1,0.1h-0.9c-0.1,0-0.1-0.1-0.1-0.1V437.1z"/>
					<path class="st4" d="M61.5,437.1c0-0.1,0.1-0.1,0.1-0.1h0.9c0.1,0,0.1,0.1,0.1,0.1v5.2c0,0.1-0.1,0.1-0.1,0.1h-0.9
						c-0.1,0-0.1-0.1-0.1-0.1V437.1z"/>
					<path class="st4" d="M64,437c0-0.1,0.1-0.1,0.1-0.1h0.2l3.1,3h0v-2.8c0-0.1,0.1-0.1,0.1-0.1h0.9c0.1,0,0.1,0.1,0.1,0.1v5.3
						c0,0.1-0.1,0.1-0.1,0.1h-0.1c0,0-0.1,0-0.1,0l-3.1-3.1h0v2.9c0,0.1-0.1,0.1-0.1,0.1h-0.9c-0.1,0-0.1-0.1-0.1-0.1L64,437z"/>
					<path class="st4" d="M70.1,437.1c0-0.1,0.1-0.1,0.1-0.1h0.9c0.1,0,0.1,0.1,0.1,0.1v5.2c0,0.1-0.1,0.1-0.1,0.1h-0.9
						c-0.1,0-0.1-0.1-0.1-0.1V437.1z"/>
					<path class="st4" d="M72.4,441.6l0.4-0.7c0.1-0.1,0.2-0.1,0.3,0c0,0,0.6,0.4,1.1,0.4c0.3,0,0.5-0.2,0.5-0.5
						c0-0.3-0.3-0.6-0.8-0.8c-0.7-0.3-1.5-0.8-1.5-1.7c0-0.8,0.6-1.6,1.8-1.6c0.8,0,1.4,0.4,1.7,0.6c0.1,0.1,0.1,0.2,0,0.3l-0.4,0.6
						c-0.1,0.1-0.2,0.2-0.3,0.1c-0.1,0-0.6-0.5-1.1-0.5c-0.3,0-0.5,0.2-0.5,0.4c0,0.3,0.2,0.5,0.9,0.8c0.6,0.2,1.6,0.7,1.6,1.8
						c0,0.8-0.7,1.6-1.9,1.6c-1,0-1.6-0.4-1.8-0.6C72.3,441.8,72.3,441.8,72.4,441.6z"/>
					<path class="st4" d="M77,437.1c0-0.1,0.1-0.1,0.1-0.1h0.9c0.1,0,0.1,0.1,0.1,0.1v2h2.2v-2c0-0.1,0.1-0.1,0.1-0.1h0.9
						c0.1,0,0.1,0.1,0.1,0.1v5.2c0,0.1-0.1,0.1-0.1,0.1h-0.9c-0.1,0-0.1-0.1-0.1-0.1v-2.1h-2.2v2.1c0,0.1-0.1,0.1-0.1,0.1h-0.9
						c-0.1,0-0.1-0.1-0.1-0.1V437.1z"/>
				</g>
			</g>
			<path id="Wing_Shoe_1_" class="st3" d="M74.2,398.2c0,0,2.2,4.3,2.7,5.1c0.5,0.8,1.7,1.4,2.6,1.7s1.5,0.6,1.9,0.8
				c0.4,0.2,1.1,0.6,1.1,1.4s-0.4,1.7-1.2,1.7c-0.8,0-4.3,0-5.4,0s-3.7-0.4-5.2-1.8c-1.5-1.5-3.1-4.5-3.1-4.5
				c8.2-6.8,8-15.5,2.3-18.3l-13.5-6.4c0.4,4.4,3.4,5.5,3.4,5.5c0.4,3.9,2.4,5.2,3.8,5.9c0,0-0.2,3.6,2.5,5.1l4.3,2
				c-1.9,3.2-4.4,4.2-5.5,4.4c-1.5,0.3-2.9-0.6-3.5-1.2c-1-0.9-2.8-2.7,0.4-6.2"/>
			<path id="Shirt_2_" class="st3" d="M69.4,337.6c3.4,0,6.2-2.8,6.2-6.2l11.8,4.4l-2.5,9l-6-1.5v19.6h-9.6h-9.6v-19.6l-6,1.5
				l-2.5-9l11.8-4.4C63.2,334.8,65.9,337.6,69.4,337.6z"/>
			<g id="Socks_1_">
				<g>
					<path class="st3" d="M109.1,352.8l11,2.8l0,0c1.5,0.4,2.7,1.8,2.7,3.5c0,2-1.6,3.6-3.6,3.6c-0.3,0-0.7-0.1-0.9-0.2l-9.1-2.3
						c-2.6-0.5-4.7-2.1-4.7-4.7v-21.2h7.4v21.2"/>
					<path class="st3" d="M104.4,353.4c2.9,1,5,3.7,5.1,6.9"/>
					<line class="st3" x1="104.4" y1="339.1" x2="111.9" y2="339.1"/>
					<line class="st3" x1="104.4" y1="341.2" x2="111.9" y2="341.2"/>
					<line class="st3" x1="104.4" y1="343.3" x2="111.9" y2="343.3"/>
				</g>
				<g>
					<polyline class="st3" points="108.5,334.4 108.5,331.7 115.9,331.7 115.9,352.8 					"/>
					<path class="st3" d="M113.2,350.1l11,2.8l0,0c1.5,0.4,2.7,1.8,2.7,3.5c0,2-1.6,3.6-3.6,3.6c-0.2,0-0.3,0-0.5-0.1"/>
					<line class="st3" x1="111.9" y1="336.4" x2="115.9" y2="336.4"/>
					<line class="st3" x1="111.9" y1="338.5" x2="115.9" y2="338.5"/>
					<line class="st3" x1="111.9" y1="340.6" x2="115.9" y2="340.6"/>
				</g>
			</g>
			<g id="Pizza_1_">
				<path class="st3" d="M23.1,609c4.9,0,12.5,2.9,12.5,2.9l-12.5,28.8l-12.5-28.8C10.7,611.9,18.2,609,23.1,609z"/>
				<path class="st3" d="M11.7,614.4c0,0,11.8-5.6,22.8,0"/>
				<circle class="st4" cx="19.2" cy="619.9" r="2.2"/>
				<circle class="st4" cx="23.6" cy="628.6" r="2.2"/>
				<circle class="st4" cx="27.3" cy="617.7" r="2.2"/>
			</g>
			<g id="Beer_1_">
				<path class="st3" d="M28.9,430.2h-3.3l0,0c-0.6,1.3-1.9,2.2-3.4,2.2c-1.5,0-2.8-0.9-3.4-2.2l0,0h-4.9v23.3c0,1.3,1,2.3,2.3,2.3
					h10.5c1.3,0,2.3-1,2.3-2.3V430.2z"/>
				<path class="st3" d="M13.9,431.2c-1-0.7-1.2-0.5-1.2-1.8c0-2.2,1.3-2.9,3.5-2.9l0,0c0.5-1.7,2.1-3,3.9-3c1.9,0,3.5,1.3,3.9,3
					l-0.1-0.2c0.3,0,0.5-0.1,0.8-0.1c3,0,4.9,0,4.9,3c0,1.4,0,1.5-0.9,2.4"/>
				<path class="st3" d="M28.9,436h2.3c1.3,0,2.3,1,2.3,2.3v7.7c0,1.3-1,2.3-2.3,2.3h-2.3"/>
				<line class="st2" x1="17.4" y1="436" x2="17.4" y2="450.5"/>
				<line class="st2" x1="21.2" y1="436" x2="21.2" y2="450.5"/>
				<line class="st2" x1="25.1" y1="436" x2="25.1" y2="450.5"/>
			</g>
			<g id="Donut_1_">
				<circle class="st2" cx="115.6" cy="393.4" r="15.5"/>
				<circle class="st2" cx="115.6" cy="393.4" r="6.2"/>
				<path class="st4" d="M121.8,393.4c0,3.4-2.8,6.2-6.2,6.2c-3.4,0-6.2-2.8-6.2-6.2c0-3.4,2.8-6.2,6.2-6.2
					C119,387.2,121.8,390,121.8,393.4z M111.2,381.4c-1.9,0-2.3,0.3-3.4,1.3c-1.1,1-0.7,2.6-1.3,3.6c-0.5,1-2.5,1.5-3.3,2.6
					s1,2.7,0.7,4.5c-0.2,1.7-0.7,2.4-0.4,4.4c0.4,1.9,2.6,0.9,3.4,1.8c0.8,0.9,0,1.4,0,3s2.7,1.8,4.7,1.7c1.9-0.1,2.1,1.7,3.5,2.1
					c1.4,0.4,2.5-0.4,3-1.4c0.4-1,2-0.8,3.2-0.7s2-0.6,2.2-1.7c0.2-1.1,1.8-2.4,3.2-3c1.4-0.6,1.6-2.8,1-3.7
					c-0.5-0.9-0.9-2.9-0.2-4.7s-0.2-2.4-1-3.3c-0.8-1-1.3-1.5-1.6-3.2c-0.2-1.7-1.7-1.6-2.7-2.4c-1-0.7-1.9,0.2-3.1-0.4
					s-2.2-1.5-3.1-1.9C114.6,379.4,113.2,381.4,111.2,381.4z"/>
			</g>
			<g id="Cookie_1_">
				<path class="st2" d="M127.4,482.1c-3.4-1-6-4.1-6-7.9c0-0.9,0.1-1.7,0.4-2.5l-0.2-0.1c-1.9-0.8-3.9-1.2-6-1.2
					c-8.6,0-15.5,6.9-15.5,15.5s6.9,15.5,15.5,15.5c7.8,0,14.2-5.7,15.3-13.2l0,0c-2.1-1-3.6-3.1-3.6-5.6
					C127.4,482.4,127.4,482.3,127.4,482.1L127.4,482.1z"/>
				<circle class="st4" cx="113.9" cy="485.7" r="2.4"/>
				<circle class="st4" cx="124.7" cy="491.6" r="2.1"/>
				<circle class="st4" cx="108.1" cy="479" r="1.8"/>
				<circle class="st4" cx="114.5" cy="499.6" r="1.8"/>
				<circle class="st4" cx="122.3" cy="484.2" r="1.5"/>
				<circle class="st4" cx="105.8" cy="489.7" r="1.7"/>
				<circle class="st4" cx="116.9" cy="474.1" r="1.2"/>
				<circle class="st4" cx="116.8" cy="491.9" r="0.8"/>
			</g>
			<g id="Tree_1_">
				<polygon class="st3" points="161.9,362.5 163.5,362.5 163.5,359.1 168.3,359.1 170.8,359.1 166.3,350 166,350 168.6,350 
					164.1,340.8 163.8,340.8 166.3,340.8 161.9,331.7 157.4,340.8 159.9,340.8 159.6,340.8 155.2,350 157.7,350 157.4,350 
					152.9,359.1 155.5,359.1 160.2,359.1 160.2,362.5 				"/>
				<line class="st3" x1="157.9" y1="359.1" x2="166.7" y2="359.1"/>
			</g>
			<path id="Heart_1_" class="st1" d="M161.9,405.6l11.1-11.1c1.4-1.4,2.3-3.4,2.3-5.5c0-4.3-3.5-7.8-7.8-7.8
				c-2.2,0-4.1,0.9-5.5,2.3c-1.4-1.4-3.4-2.3-5.5-2.3c-4.3,0-7.8,3.5-7.8,7.8c0,2.2,0.9,4.1,2.3,5.5L161.9,405.6z"/>
			<polygon id="Lightning_1_" class="st2" points="161.5,441 156.9,454.5 168.8,438.8 162.2,438.8 162.2,438.8 166.8,425.3 155,441 
				161.5,441 			"/>
			<g id="Hat_1_">
				<path class="st2" d="M145.6,491.8c-2.2-12.9,1.8-15.7,9.7-17.3c8-1.6,11.9,1.6,12.4,2.6c0.5,1.1,3,8.8,3,8.8s4.5,3.3,5.5,4
					s3.2,1.1,2.4,4.1c-0.8,3-2,2.3-2.7,2c-1.3-0.5-4.9-3.7-4.9-3.7c-1.8,1.2-5.5,3.8-7.8,4.8c-2.3,1-5.1,0.7-6.7,0s-6.3-4-7.6-5.3
					H145.6z"/>
				<path class="st2" d="M149,491.8c2.1-1.1,10.1-4.7,21.7-5.9"/>
				<path class="st2" d="M154.8,474.5c-2.8,1.5-8.4,3.3-3.9,16.3"/>
				<path class="st2" d="M171,492.3c2-1.2,4.5-2.9,6.5-1.7"/>
			</g>
			<g id="Watch_1_">
				<circle class="st1" cx="161.9" cy="532.2" r="7.2"/>
				<path class="st2" d="M157,538.9c-0.8-0.6-1.4-1.3-2-2"/>
				<path class="st2" d="M168.7,537.1c-0.5,0.6-1,1.2-1.6,1.6"/>
				<path class="st2" d="M166.9,525.4c0.7,0.5,1.3,1.1,1.8,1.8"/>
				<path class="st2" d="M155.2,527.2c0.6-0.8,1.3-1.4,2-2"/>
				<line class="st2" x1="161.9" y1="532.2" x2="161.9" y2="527.7"/>
				<line class="st2" x1="161.9" y1="532.2" x2="164.5" y2="532.2"/>
				<polyline class="st2" points="164.7,525.2 164.7,513.4 159.1,513.4 159.1,525.2 				"/>
				<polyline class="st2" points="164.7,539.1 164.7,551 159.1,551 159.1,539.1 				"/>
				<line class="st2" x1="161.9" y1="516.3" x2="161.9" y2="516.8"/>
				<line class="st2" x1="161.9" y1="519.2" x2="161.9" y2="519.6"/>
			</g>
			<path class="st2" d="M152.5,590.1h21.2c2.5,0,4.4-2,4.4-4.4c0-2.5-2-4.4-4.4-4.4c-0.1,0-0.2,0-0.3,0l0,0c0.2-0.9,0.3-1.7,0.3-2.7
				c0-6.4-5.2-11.5-11.5-11.5c-5.7,0-10.4,4.1-11.4,9.6l0,0c-3,0.8-5.2,3.4-5.2,6.7C145.6,587,148.7,590.1,152.5,590.1z"/>
			<path class="st2" d="M174.7,634.6h-27.6c-2.2,0-3.9-1.8-3.9-3.9c0-2.2,1.8-3.9,3.9-3.9c0.1,0,0.1,0,0.2,0l0,0
				c-0.1-0.6-0.2-1.2-0.2-1.9c0-5.4,4.4-9.7,9.7-9.7c5.4,0,9.7,4.4,9.7,9.7c0,0.1,0,0.2,0,0.4l0,0c0.6-0.2,1.2-0.4,1.9-0.4
				c0.5,0,1,0.1,1.5,0.2l0,0c1.1-1.4,2.8-2.4,4.7-2.4c3.3,0,5.9,2.7,5.9,5.9C180.6,632,178,634.6,174.7,634.6z"/>
		</g>
		<g>
			<g id="Track_3_">
				<path class="st1" d="M213-62.9c3.6,0,6.5-2.9,6.5-6.5c0-3.6-2.9-6.5-6.5-6.5h-9.6c-3.6,0-6.5,2.9-6.5,6.5c0,3.6,2.9,6.5,6.5,6.5
					H213z"/>
				<path class="st1" d="M212.9-59.7c5.4,0,9.7-4.3,9.7-9.7c0-5.4-4.3-9.7-9.7-9.7h-9.6c-5.4,0-9.7,4.3-9.7,9.7
					c0,5.4,4.3,9.7,9.7,9.7H212.9z"/>
				<path class="st1" d="M213-56.6c7.1,0,12.8-5.7,12.8-12.8s-5.7-12.8-12.8-12.8h-9.7c-7.1,0-12.8,5.7-12.8,12.8
					s5.7,12.8,12.8,12.8H213z"/>
				<line class="st1" x1="203.4" y1="-62.8" x2="203.4" y2="-56.7"/>
			</g>
			<g id="Sun_3_">
				<circle class="st2" cx="208.2" cy="-23.1" r="6.6"/>
				<line class="st2" x1="217.3" y1="-19.5" x2="220.2" y2="-18.4"/>
				<line class="st2" x1="211.8" y1="-32.2" x2="212.9" y2="-35.1"/>
				<line class="st2" x1="205.6" y1="-29.1" x2="203" y2="-34.9"/>
				<line class="st2" x1="213.3" y1="-11.3" x2="210.8" y2="-17.1"/>
				<line class="st2" x1="220" y1="-28.2" x2="214.2" y2="-25.7"/>
				<line class="st2" x1="202.2" y1="-20.5" x2="196.3" y2="-18"/>
				<line class="st2" x1="203.4" y1="-11.1" x2="204.6" y2="-14"/>
				<line class="st2" x1="196.2" y1="-27.9" x2="199.1" y2="-26.7"/>
			</g>
			<path id="Moon_3_" class="st3" d="M309.3,35.2c-4.9-1.8-8.4-6.5-8.4-12c0-5.5,3.5-10.2,8.4-12l0,0c-1.4-0.5-2.9-0.8-4.4-0.8
				c-7.1,0-12.8,5.7-12.8,12.8S297.8,36,304.9,36C306.5,36,307.9,35.7,309.3,35.2L309.3,35.2z"/>
			<g id="Rain_3_">
				<path class="st3" d="M207,81.8c3,1.2,6.4-0.2,7.6-3.2c1.2-3,2-18,1.2-18.3c-0.8-0.3-10.8,10.9-12,13.9
					C202.6,77.1,204,80.6,207,81.8z"/>
				<path class="st3" d="M202,67.4c1.5,0.6,3.2-0.1,3.9-1.6c0.6-1.5,1-9.1,0.6-9.3c-0.4-0.2-5.4,5.5-6.1,7
					C199.8,65.1,200.5,66.8,202,67.4z"/>
			</g>
			<g id="Sleep_3_">
				<path class="st3" d="M212.4,125c6.1,0,11.1-5,11.1-11.1v0c0-6.1-5-11.1-11.1-11.1h-8.6c-6.1,0-11.1,5-11.1,11.1v0
					c0,6.1,5,11.1,11.1,11.1h3.3v3.4L212.4,125z"/>
				<g>
					<path class="st4" d="M200.1,117.9l3.8-7.4v0h-3.1c-0.1,0-0.3-0.1-0.3-0.3v-1.6c0-0.1,0.1-0.3,0.3-0.3h6.1
						c0.1,0,0.3,0.1,0.3,0.3v0.2l-3.7,7.5v0h3.1c0.2,0,0.3,0.1,0.3,0.3v1.6c0,0.1-0.1,0.3-0.3,0.3h-6.3c-0.1,0-0.3-0.1-0.3-0.3
						V117.9z"/>
					<path class="st4" d="M207.7,118l1.7-3.5v0h-1.3c-0.1,0-0.3-0.1-0.3-0.3v-1.3c0-0.2,0.1-0.3,0.3-0.3h3.9c0.2,0,0.3,0.2,0.2,0.4
						l-1.8,3.5v0h1.3c0.2,0,0.3,0.1,0.3,0.3v1.3c0,0.1-0.1,0.3-0.3,0.3H208c-0.1,0-0.3-0.1-0.3-0.3V118z"/>
					<path class="st4" d="M213,118l1.7-3.5v0h-1.3c-0.1,0-0.3-0.1-0.3-0.3v-1.3c0-0.2,0.1-0.3,0.3-0.3h3.9c0.2,0,0.3,0.2,0.2,0.4
						l-1.8,3.5v0h1.3c0.2,0,0.3,0.1,0.3,0.3v1.3c0,0.1-0.1,0.3-0.3,0.3h-3.8c-0.1,0-0.3-0.1-0.3-0.3V118z"/>
				</g>
			</g>
			<g id="Bib_3_">
				<path class="st3" d="M221.8,174.7h-27.2c-1.4,0-2.6-1.2-2.6-2.6v-20.5c0-1.4,1.2-2.6,2.6-2.6h27.2c1.4,0,2.6,1.2,2.6,2.6v20.5
					C224.3,173.5,223.2,174.7,221.8,174.7z"/>
				<g>
					<path class="st4" d="M195.9,164.7l0.7-0.7c0.1-0.1,0.2-0.1,0.3,0c0,0,0.7,0.5,1.3,0.5c0.5,0,1-0.4,1-1c0-0.5-0.5-1-1.4-1h-0.7
						c-0.1,0-0.2-0.1-0.2-0.2v-1c0-0.1,0.1-0.2,0.2-0.2h0.7c0.8,0,1.3-0.4,1.3-0.9s-0.4-0.9-1-0.9c-0.5,0-0.9,0.3-1,0.5
						c-0.1,0.1-0.2,0.1-0.3,0l-0.7-0.7c-0.1-0.1-0.1-0.2,0-0.3c0,0,1-1,2.3-1c1.4,0,2.6,0.8,2.6,2.2c0,0.9-0.7,1.6-1.2,1.8v0
						c0.6,0.2,1.4,1,1.4,2c0,1.3-1.1,2.3-2.8,2.3c-1.5,0-2.3-0.7-2.5-1.1C195.8,164.9,195.8,164.8,195.9,164.7z"/>
					<path class="st4" d="M203.6,161.8L203.6,161.8c-0.5-0.3-1.2-0.9-1.2-1.9c0-1.3,1.2-2.2,2.6-2.2c1.5,0,2.7,0.8,2.7,2.2
						c0,0.9-0.8,1.5-1.2,1.8v0c0.5,0.3,1.4,1,1.4,2c0,1.3-1.1,2.3-2.9,2.3c-1.7,0-2.9-1-2.9-2.3
						C202.1,162.7,203.3,161.9,203.6,161.8z M205,164.6c0.5,0,1-0.4,1-0.9c0-0.4-0.3-0.9-1-1.1c-0.6,0.2-1,0.7-1,1.1
						C204,164.2,204.5,164.6,205,164.6z M205.8,160c0-0.4-0.4-0.8-0.8-0.8c-0.4,0-0.8,0.4-0.8,0.8c0,0.4,0.3,0.8,0.8,1
						C205.6,160.8,205.8,160.4,205.8,160z"/>
					<path class="st4" d="M208.8,165.6l3-6.2H209c-0.1,0-0.2-0.1-0.2-0.2v-1.1c0-0.1,0.1-0.2,0.2-0.2h5c0.1,0,0.2,0.1,0.2,0.2v0.1
						l-3.6,7.4c-0.1,0.3-0.3,0.3-0.5,0.3h-1.2c-0.1,0-0.2-0.1-0.2-0.2V165.6z"/>
					<path class="st4" d="M214,164v-1.3l4.1-5c0,0,0.1-0.1,0.2-0.1h0.9c0.1,0,0.2,0.1,0.2,0.2l0,4.9h0.9c0.1,0,0.2,0.1,0.2,0.2v1
						c0,0.1-0.1,0.2-0.2,0.2h-0.9l0,1.5c0,0.1-0.1,0.2-0.2,0.2h-1.3c-0.1,0-0.2-0.1-0.2-0.2v-1.4h-3.5
						C214.1,164.2,214,164.1,214,164z M217.7,162.8v-2.2l-1.9,2.2H217.7z"/>
				</g>
				<line class="st3" x1="195.8" y1="152.9" x2="220.5" y2="152.9"/>
				<line class="st3" x1="195.8" y1="170.9" x2="220.5" y2="170.9"/>
			</g>
			<g id="Mountains_3_">
				<polygon class="st3" points="308.6,128.5 297.9,102.8 287.3,128.5 				"/>
				<polyline class="st3" points="308.6,128.5 314.1,128.5 306.7,110.5 303.9,117.1 				"/>
			</g>
			<g id="Tub_3_">
				<path class="st3" d="M238.8,201.5l3.9,15c0.3,1.1,0.8,1.9,1.9,1.9h10h10c1,0,1.5-0.8,1.9-1.9l3.9-15"/>
				<path class="st4" d="M270.9,201.9h-32.8c-0.5,0-0.8-0.4-0.8-0.8v-0.5c0-0.5,0.4-0.8,0.8-0.8h32.8c0.5,0,0.8,0.4,0.8,0.8v0.5
					C271.8,201.5,271.4,201.9,270.9,201.9z"/>
				<path class="st3" d="M240.3,199.7v-1.4c0-1.5,1.3-2.8,2.8-2.8c1.4,0,2,1,2,1.7"/>
				<path class="st3" d="M248.7,221.2H247c-0.8,0-1.4-0.6-1.4-1.4l0,0c0-0.8,0.6-1.4,1.4-1.4h1.7c0.8,0,1.4,0.6,1.4,1.4l0,0
					C250.1,220.6,249.5,221.2,248.7,221.2z"/>
				<path class="st3" d="M262.1,221.2h-1.7c-0.8,0-1.4-0.6-1.4-1.4l0,0c0-0.8,0.6-1.4,1.4-1.4h1.7c0.8,0,1.4,0.6,1.4,1.4l0,0
					C263.5,220.6,262.9,221.2,262.1,221.2z"/>
			</g>
			<g id="Alarm_3_">
				<circle class="st3" cx="254.6" cy="163.3" r="12.8"/>
				<path class="st4" d="M248.8,149c-1-1.3-2.6-2.1-4.4-2.1c-3.1,0-5.7,2.5-5.7,5.7c0,1.7,0.7,3.2,1.9,4.2
					C242.3,153.2,245.1,150.5,248.8,149z"/>
				<path class="st4" d="M260.2,149c1-1.3,2.6-2.1,4.4-2.1c3.1,0,5.7,2.5,5.7,5.7c0,1.7-0.7,3.2-1.9,4.2
					C266.8,153.2,263.9,150.5,260.2,149z"/>
				<line class="st2" x1="254.6" y1="165.1" x2="254.6" y2="153.3"/>
				<line class="st2" x1="252.8" y1="163.3" x2="259.6" y2="163.3"/>
				<polyline class="st2" points="245.6,172.4 240.9,177 248.8,174.7 				"/>
				<polyline class="st2" points="263.7,172.4 268.4,177 260.5,174.7 				"/>
			</g>
			<g id="Snow_3_">
				<circle class="st3" cx="300.8" cy="208.4" r="3"/>
				<g>
					<line class="st2" x1="301.8" y1="205.6" x2="306.3" y2="194.1"/>
					<line class="st2" x1="304.6" y1="198.6" x2="302.9" y2="194.7"/>
					<line class="st2" x1="304.6" y1="198.6" x2="308.5" y2="196.9"/>
					<line class="st2" x1="303" y1="202.6" x2="300.4" y2="196.8"/>
					<line class="st2" x1="303" y1="202.6" x2="308.8" y2="200.1"/>
				</g>
				<g>
					<line class="st2" x1="303.5" y1="209.4" x2="315" y2="213.9"/>
					<line class="st2" x1="310.5" y1="212.2" x2="314.4" y2="210.5"/>
					<line class="st2" x1="310.5" y1="212.2" x2="312.2" y2="216.1"/>
					<line class="st2" x1="306.5" y1="210.6" x2="312.3" y2="208"/>
					<line class="st2" x1="306.5" y1="210.6" x2="309" y2="216.4"/>
				</g>
				<g>
					<line class="st2" x1="303.7" y1="207.1" x2="314.9" y2="202.1"/>
					<line class="st2" x1="310.6" y1="204.1" x2="312.1" y2="200.1"/>
					<line class="st2" x1="310.6" y1="204.1" x2="314.5" y2="205.6"/>
				</g>
				<g>
					<line class="st2" x1="299.5" y1="205.4" x2="294.5" y2="194.2"/>
					<line class="st2" x1="296.5" y1="198.6" x2="292.5" y2="197"/>
					<line class="st2" x1="296.5" y1="198.6" x2="298" y2="194.6"/>
				</g>
				<g>
					<line class="st2" x1="302" y1="211.3" x2="307" y2="222.5"/>
					<line class="st2" x1="305.1" y1="218.2" x2="309" y2="219.7"/>
					<line class="st2" x1="305" y1="218.2" x2="303.5" y2="222.1"/>
				</g>
				<g>
					<line class="st2" x1="297.7" y1="209.7" x2="286.4" y2="214.6"/>
					<line class="st2" x1="290.8" y1="212.7" x2="289.3" y2="216.7"/>
					<line class="st2" x1="290.8" y1="212.7" x2="286.9" y2="211.2"/>
				</g>
				<g>
					<line class="st2" x1="299.7" y1="211.1" x2="295.2" y2="222.6"/>
					<line class="st2" x1="296.9" y1="218.1" x2="298.6" y2="222"/>
					<line class="st2" x1="296.9" y1="218.1" x2="293.1" y2="219.8"/>
					<line class="st2" x1="298.5" y1="214.1" x2="301.1" y2="219.9"/>
					<line class="st2" x1="298.5" y1="214.1" x2="292.7" y2="216.6"/>
				</g>
				<g>
					<line class="st2" x1="298" y1="207.3" x2="286.5" y2="202.8"/>
					<line class="st2" x1="291" y1="204.5" x2="287.1" y2="206.2"/>
					<line class="st2" x1="291" y1="204.5" x2="289.3" y2="200.7"/>
					<line class="st2" x1="295" y1="206.1" x2="289.2" y2="208.7"/>
					<line class="st2" x1="295" y1="206.1" x2="292.5" y2="200.3"/>
				</g>
			</g>
			<g>
				<circle class="st3" cx="300.6" cy="169.5" r="7.6"/>
				<line class="st2" x1="296.6" y1="161.1" x2="304.6" y2="161.1"/>
				<polygon class="st2" points="296.6,161.1 284.9,146.9 293,146.9 304.7,161.1 				"/>
				<polyline class="st2" points="304.7,161.1 316.5,146.9 308.4,146.9 300.7,156.2 				"/>
			</g>
			<g id="Shoe_3_">
				<path class="st2" d="M260.3,107.5c0.5,0.6,0.9,1.3,0.9,2.2c0,0.9-0.4,1.7-0.9,2.3l0,0c0.6,0.6,1.4,0.9,2.3,1c0.4,0,2.7,0,2.7,0
					c2.2,0,4.1-1.5,4.7-3.6l0,0c1.4,1.9,2.2,4.2,2.3,6.7c0.1,1.8-0.1,3.4-0.1,3.4c0.4,1-0.1,2.3-0.1,2.3c-0.3,0.9-0.9,1.2-1.7,1.2
					c0,0-0.9,0.8-1.2,0.8c-2.5,0-22.5,0-23.3,0c-0.9,0-1.7-0.1-2.9-0.4c-1.1-0.3-4.3-1.6-5.3-2.3c-1.1-0.8-1-1.1-1-1.1
					c0-0.1,0-0.1,0-0.2c0-0.6,0.3-1.1,0.6-1.5c1.2-1.3,2.7-1.4,3.9-1.8c1.1-0.4,4.3-1.5,5.9-2.2c0,0,6.9-3.1,8-3.6
					c1-0.5,1.9-1.3,2.5-1.6C258,108.6,260.3,107.5,260.3,107.5z"/>
				<line class="st2" x1="249.2" y1="113.2" x2="250.1" y2="114.6"/>
				<line class="st2" x1="251.6" y1="112.4" x2="252.5" y2="113.7"/>
				<line class="st2" x1="254" y1="111.4" x2="254.9" y2="112.8"/>
			</g>
			<g id="Bell_3_">
				<path class="st3" d="M254.4,55.3c-4.4,0-8.1,3.2-9,7.3c-1,4.5-2.4,15.4-5.4,17.5l1.4,2h13"/>
				<path class="st3" d="M254.4,55.3c4.4,0,8.1,3.2,9,7.3c1,4.5,2.4,15.4,5.4,17.5l-1.4,2h-13"/>
				<path class="st3" d="M257.2,82.1c0,1.5-1.2,2.8-2.8,2.8c-1.5,0-2.8-1.2-2.8-2.8"/>
				<path class="st3" d="M253,55.3c0-0.8,0.6-1.4,1.4-1.4c0.8,0,1.4,0.6,1.4,1.4"/>
			</g>
			<g id="Finish_3_">
				<polygon class="st3" points="273.9,28.1 235,28.1 237.7,23.1 235,18.2 273.9,18.2 271.1,23.1 				"/>
				<g>
					<path class="st4" d="M242.1,20.5c0-0.1,0.1-0.1,0.1-0.1h3.2c0.1,0,0.1,0.1,0.1,0.1v0.9c0,0.1-0.1,0.1-0.1,0.1h-2.2v1.1h1.8
						c0.1,0,0.1,0.1,0.1,0.1v0.9c0,0.1-0.1,0.1-0.1,0.1h-1.8v1.9c0,0.1-0.1,0.1-0.1,0.1h-0.9c-0.1,0-0.1-0.1-0.1-0.1V20.5z"/>
					<path class="st4" d="M246.5,20.5c0-0.1,0.1-0.1,0.1-0.1h0.9c0.1,0,0.1,0.1,0.1,0.1v5.2c0,0.1-0.1,0.1-0.1,0.1h-0.9
						c-0.1,0-0.1-0.1-0.1-0.1V20.5z"/>
					<path class="st4" d="M249.1,20.4c0-0.1,0.1-0.1,0.1-0.1h0.2l3.1,3h0v-2.8c0-0.1,0.1-0.1,0.1-0.1h0.9c0.1,0,0.1,0.1,0.1,0.1v5.3
						c0,0.1-0.1,0.1-0.1,0.1h-0.1c0,0-0.1,0-0.1,0l-3.1-3.1h0v2.9c0,0.1-0.1,0.1-0.1,0.1h-0.9c-0.1,0-0.1-0.1-0.1-0.1L249.1,20.4z"
						/>
					<path class="st4" d="M255.2,20.5c0-0.1,0.1-0.1,0.1-0.1h0.9c0.1,0,0.1,0.1,0.1,0.1v5.2c0,0.1-0.1,0.1-0.1,0.1h-0.9
						c-0.1,0-0.1-0.1-0.1-0.1V20.5z"/>
					<path class="st4" d="M257.4,25.1l0.4-0.7c0.1-0.1,0.2-0.1,0.3,0c0,0,0.6,0.4,1.1,0.4c0.3,0,0.5-0.2,0.5-0.5
						c0-0.3-0.3-0.6-0.8-0.8c-0.7-0.3-1.5-0.8-1.5-1.7c0-0.8,0.6-1.6,1.8-1.6c0.8,0,1.4,0.4,1.7,0.6c0.1,0.1,0.1,0.2,0,0.3l-0.4,0.6
						c-0.1,0.1-0.2,0.2-0.3,0.1c-0.1,0-0.6-0.5-1.1-0.5c-0.3,0-0.5,0.2-0.5,0.4c0,0.3,0.2,0.5,0.9,0.8c0.6,0.2,1.6,0.7,1.6,1.8
						c0,0.8-0.7,1.6-1.9,1.6c-1,0-1.6-0.4-1.8-0.6C257.4,25.3,257.4,25.2,257.4,25.1z"/>
					<path class="st4" d="M262,20.5c0-0.1,0.1-0.1,0.1-0.1h0.9c0.1,0,0.1,0.1,0.1,0.1v2h2.2v-2c0-0.1,0.1-0.1,0.1-0.1h0.9
						c0.1,0,0.1,0.1,0.1,0.1v5.2c0,0.1-0.1,0.1-0.1,0.1h-0.9c-0.1,0-0.1-0.1-0.1-0.1v-2.1h-2.2v2.1c0,0.1-0.1,0.1-0.1,0.1h-0.9
						c-0.1,0-0.1-0.1-0.1-0.1V20.5z"/>
				</g>
			</g>
			<path id="Wing_Shoe_3_" class="st3" d="M259.2-18.3c0,0,2.2,4.3,2.7,5.1s1.7,1.4,2.6,1.7s1.5,0.6,1.9,0.8
				c0.4,0.2,1.1,0.6,1.1,1.4c0,0.9-0.4,1.7-1.2,1.7s-4.3,0-5.4,0s-3.7-0.4-5.2-1.8s-3.1-4.5-3.1-4.5c8.2-6.8,8-15.5,2.3-18.3
				l-13.5-6.4c0.4,4.4,3.4,5.5,3.4,5.5c0.4,3.9,2.4,5.2,3.8,5.9c0,0-0.2,3.6,2.5,5.1l4.3,2c-1.9,3.2-4.4,4.2-5.5,4.4
				c-1.5,0.3-2.9-0.6-3.5-1.2c-1-0.9-2.8-2.7,0.4-6.2"/>
			<path id="Shirt_4_" class="st3" d="M254.4-78.9c3.4,0,6.2-2.8,6.2-6.2l11.8,4.4l-2.5,9l-6-1.5v19.6h-9.6h-9.6v-19.6l-6,1.5
				l-2.5-9l11.8-4.4C248.2-81.7,251-78.9,254.4-78.9z"/>
			<g id="Socks_3_">
				<g>
					<path class="st3" d="M294.2-63.7l11,2.8l0,0c1.5,0.4,2.7,1.8,2.7,3.5c0,2-1.6,3.6-3.6,3.6c-0.3,0-0.7-0.1-0.9-0.2l-9.1-2.3
						c-2.6-0.5-4.7-2.1-4.7-4.7v-21.2h7.4V-61"/>
					<path class="st3" d="M289.5-63.1c2.9,1,5,3.7,5.1,6.9"/>
					<line class="st3" x1="289.5" y1="-77.4" x2="296.9" y2="-77.4"/>
					<line class="st3" x1="289.5" y1="-75.3" x2="296.9" y2="-75.3"/>
					<line class="st3" x1="289.5" y1="-73.2" x2="296.9" y2="-73.2"/>
				</g>
				<g>
					<polyline class="st3" points="293.5,-82.2 293.5,-84.9 301,-84.9 301,-63.7 					"/>
					<path class="st3" d="M298.2-66.4l11,2.8l0,0c1.5,0.4,2.7,1.8,2.7,3.5c0,2-1.6,3.6-3.6,3.6c-0.2,0-0.3,0-0.5-0.1"/>
					<line class="st3" x1="296.9" y1="-80.1" x2="301" y2="-80.1"/>
					<line class="st3" x1="296.9" y1="-78" x2="301" y2="-78"/>
					<line class="st3" x1="296.9" y1="-75.9" x2="301" y2="-75.9"/>
				</g>
			</g>
			<g id="Pizza_3_">
				<path class="st3" d="M208.2,192.5c4.9,0,12.5,2.9,12.5,2.9l-12.5,28.8l-12.5-28.8C195.7,195.4,203.3,192.5,208.2,192.5z"/>
				<path class="st3" d="M196.8,197.9c0,0,11.8-5.6,22.8,0"/>
				<circle class="st4" cx="204.2" cy="203.3" r="2.2"/>
				<circle class="st4" cx="208.6" cy="212.1" r="2.2"/>
				<circle class="st4" cx="212.3" cy="201.1" r="2.2"/>
			</g>
			<g id="Beer_3_">
				<path class="st3" d="M214,13.7h-3.3l0,0c-0.6,1.3-1.9,2.2-3.4,2.2c-1.5,0-2.8-0.9-3.4-2.2l0,0h-4.9V37c0,1.3,1,2.3,2.3,2.3h10.5
					c1.3,0,2.3-1,2.3-2.3V13.7z"/>
				<path class="st3" d="M198.9,14.7c-1-0.7-1.2-0.5-1.2-1.8c0-2.2,1.3-2.9,3.5-2.9l0,0c0.5-1.7,2.1-3,3.9-3c1.9,0,3.5,1.3,3.9,3
					l-0.1-0.2c0.3,0,0.5-0.1,0.8-0.1c3,0,4.9,0,4.9,3c0,1.4,0,1.5-0.9,2.4"/>
				<path class="st3" d="M214,19.5h2.3c1.3,0,2.3,1,2.3,2.3v7.7c0,1.3-1,2.3-2.3,2.3H214"/>
				<line class="st2" x1="202.5" y1="19.5" x2="202.5" y2="34"/>
				<line class="st2" x1="206.3" y1="19.5" x2="206.3" y2="34"/>
				<line class="st2" x1="210.1" y1="19.5" x2="210.1" y2="34"/>
			</g>
			<g id="Donut_3_">
				<circle class="st2" cx="300.7" cy="-23.1" r="15.5"/>
				<circle class="st2" cx="300.7" cy="-23.1" r="6.2"/>
				<path class="st4" d="M306.9-23.1c0,3.4-2.8,6.2-6.2,6.2c-3.4,0-6.2-2.8-6.2-6.2s2.8-6.2,6.2-6.2
					C304.1-29.3,306.9-26.5,306.9-23.1z M296.3-35.1c-1.9,0-2.3,0.3-3.4,1.3c-1.1,1-0.7,2.6-1.3,3.6c-0.5,1-2.5,1.5-3.3,2.6
					c-0.7,1.1,1,2.7,0.7,4.5s-0.7,2.4-0.4,4.4s2.6,0.9,3.4,1.8s0,1.4,0,3s2.7,1.8,4.7,1.7c1.9-0.1,2.1,1.7,3.5,2.1s2.5-0.4,3-1.4
					c0.4-1,2-0.8,3.2-0.7c1.2,0.1,2-0.6,2.2-1.7s1.8-2.4,3.2-3s1.6-2.8,1-3.7c-0.5-0.9-0.9-2.9-0.2-4.7c0.7-1.8-0.2-2.4-1-3.3
					c-0.8-1-1.3-1.5-1.6-3.2c-0.2-1.7-1.7-1.6-2.7-2.4c-1-0.7-1.9,0.2-3.1-0.4s-2.2-1.5-3.1-1.9C299.6-37.2,298.2-35.1,296.3-35.1z"
					/>
			</g>
			<g id="Cookie_3_">
				<path class="st2" d="M312.4,65.6c-3.4-1-6-4.1-6-7.9c0-0.9,0.1-1.7,0.4-2.5l-0.2-0.1c-1.9-0.8-3.9-1.2-6-1.2
					c-8.6,0-15.5,6.9-15.5,15.5s6.9,15.5,15.5,15.5c7.8,0,14.2-5.7,15.3-13.2l0,0c-2.1-1-3.6-3.1-3.6-5.6
					C312.4,65.9,312.4,65.7,312.4,65.6L312.4,65.6z"/>
				<circle class="st4" cx="299" cy="69.2" r="2.4"/>
				<circle class="st4" cx="309.8" cy="75" r="2.1"/>
				<circle class="st4" cx="293.2" cy="62.4" r="1.8"/>
				<circle class="st4" cx="299.6" cy="83.1" r="1.8"/>
				<circle class="st4" cx="307.3" cy="67.6" r="1.5"/>
				<circle class="st4" cx="290.8" cy="73.2" r="1.7"/>
				<circle class="st4" cx="301.9" cy="57.6" r="1.2"/>
				<circle class="st4" cx="301.8" cy="75.3" r="0.8"/>
			</g>
			<g id="Tree_3_">
				<polygon class="st3" points="346.9,-54 348.6,-54 348.6,-57.4 353.3,-57.4 355.9,-57.4 351.4,-66.6 351.1,-66.6 353.6,-66.6 
					349.2,-75.7 348.9,-75.7 351.4,-75.7 346.9,-84.9 342.4,-75.7 345,-75.7 344.7,-75.7 340.2,-66.6 342.7,-66.6 342.4,-66.6 
					338,-57.4 340.5,-57.4 345.3,-57.4 345.3,-54 				"/>
				<line class="st3" x1="343" y1="-57.4" x2="351.8" y2="-57.4"/>
			</g>
			<path id="Heart_3_" class="st1" d="M346.9-10.9L358-22c1.4-1.4,2.3-3.4,2.3-5.5c0-4.3-3.5-7.8-7.8-7.8c-2.2,0-4.1,0.9-5.5,2.3
				c-1.4-1.4-3.4-2.3-5.5-2.3c-4.3,0-7.8,3.5-7.8,7.8c0,2.2,0.9,4.1,2.3,5.5L346.9-10.9z"/>
			<polygon id="Lightning_3_" class="st2" points="346.6,24.4 342,38 353.8,22.3 347.3,22.3 347.3,22.3 351.9,8.7 340,24.4 
				346.5,24.4 			"/>
			<g id="Hat_3_">
				<path class="st2" d="M330.7,75.3c-2.2-12.9,1.8-15.7,9.7-17.3c8-1.6,11.9,1.6,12.4,2.6c0.5,1.1,3,8.8,3,8.8s4.5,3.3,5.5,4
					c1,0.6,3.2,1.1,2.4,4.1c-0.8,3-2,2.3-2.7,2c-1.3-0.5-4.9-3.7-4.9-3.7c-1.8,1.2-5.5,3.8-7.8,4.8c-2.3,1-5.1,0.7-6.7,0
					c-1.6-0.7-6.3-4-7.6-5.3H330.7z"/>
				<path class="st2" d="M334.1,75.2c2.1-1.1,10.1-4.7,21.7-5.9"/>
				<path class="st2" d="M339.9,58c-2.8,1.5-8.4,3.3-3.9,16.3"/>
				<path class="st2" d="M356.1,75.8c2-1.2,4.5-2.9,6.5-1.7"/>
			</g>
			<g id="Watch_3_">
				<circle class="st1" cx="347" cy="115.7" r="7.2"/>
				<path class="st2" d="M342,122.4c-0.8-0.6-1.4-1.3-2-2"/>
				<path class="st2" d="M353.7,120.6c-0.5,0.6-1,1.2-1.6,1.6"/>
				<path class="st2" d="M351.9,108.9c0.7,0.5,1.3,1.1,1.8,1.8"/>
				<path class="st2" d="M340.2,110.7c0.6-0.8,1.3-1.4,2-2"/>
				<line class="st2" x1="347" y1="115.7" x2="347" y2="111.2"/>
				<line class="st2" x1="347" y1="115.7" x2="349.6" y2="115.7"/>
				<polyline class="st2" points="349.7,108.7 349.7,96.9 344.2,96.9 344.2,108.7 				"/>
				<polyline class="st2" points="349.7,122.6 349.7,134.5 344.2,134.5 344.2,122.6 				"/>
				<line class="st2" x1="347" y1="99.8" x2="347" y2="100.2"/>
				<line class="st2" x1="347" y1="102.7" x2="347" y2="103.1"/>
			</g>
			<path class="st2" d="M337.6,173.5h21.2c2.5,0,4.4-2,4.4-4.4c0-2.5-2-4.4-4.4-4.4c-0.1,0-0.2,0-0.3,0l0,0c0.2-0.9,0.3-1.7,0.3-2.7
				c0-6.4-5.2-11.5-11.5-11.5c-5.7,0-10.4,4.1-11.4,9.6l0,0c-3,0.8-5.2,3.4-5.2,6.7C330.7,170.5,333.8,173.5,337.6,173.5z"/>
			<path class="st2" d="M359.8,218.1h-27.6c-2.2,0-3.9-1.8-3.9-3.9s1.8-3.9,3.9-3.9c0.1,0,0.1,0,0.2,0l0,0c-0.1-0.6-0.2-1.2-0.2-1.9
				c0-5.4,4.4-9.7,9.7-9.7s9.7,4.4,9.7,9.7c0,0.1,0,0.2,0,0.4l0,0c0.6-0.2,1.2-0.4,1.9-0.4c0.5,0,1,0.1,1.5,0.2l0,0
				c1.1-1.4,2.8-2.4,4.7-2.4c3.3,0,5.9,2.7,5.9,5.9C365.7,215.4,363,218.1,359.8,218.1z"/>
		</g>
		<g>
			<g id="Track_4_">
				<path class="st1" d="M213,585.1c3.6,0,6.5-2.9,6.5-6.5c0-3.6-2.9-6.5-6.5-6.5h-9.6c-3.6,0-6.5,2.9-6.5,6.5
					c0,3.6,2.9,6.5,6.5,6.5H213z"/>
				<path class="st1" d="M212.9,588.3c5.4,0,9.7-4.3,9.7-9.7s-4.3-9.7-9.7-9.7h-9.6c-5.4,0-9.7,4.3-9.7,9.7s4.3,9.7,9.7,9.7H212.9z"
					/>
				<path class="st1" d="M213,591.4c7.1,0,12.8-5.7,12.8-12.8s-5.7-12.8-12.8-12.8h-9.7c-7.1,0-12.8,5.7-12.8,12.8
					s5.7,12.8,12.8,12.8H213z"/>
				<line class="st1" x1="203.4" y1="585.2" x2="203.4" y2="591.3"/>
			</g>
			<g id="Sun_4_">
				<circle class="st2" cx="208.2" cy="624.9" r="6.6"/>
				<line class="st2" x1="217.3" y1="628.5" x2="220.2" y2="629.6"/>
				<line class="st2" x1="211.8" y1="615.8" x2="212.9" y2="612.9"/>
				<line class="st2" x1="205.6" y1="618.9" x2="203" y2="613.1"/>
				<line class="st2" x1="213.3" y1="636.7" x2="210.8" y2="630.9"/>
				<line class="st2" x1="220" y1="619.8" x2="214.2" y2="622.3"/>
				<line class="st2" x1="202.2" y1="627.5" x2="196.3" y2="630"/>
				<line class="st2" x1="203.4" y1="636.9" x2="204.6" y2="634"/>
				<line class="st2" x1="196.2" y1="620.1" x2="199.1" y2="621.3"/>
			</g>
			<path id="Moon_4_" class="st3" d="M309.3,683.2c-4.9-1.8-8.4-6.5-8.4-12s3.5-10.2,8.4-12l0,0c-1.4-0.5-2.9-0.8-4.4-0.8
				c-7.1,0-12.8,5.7-12.8,12.8s5.7,12.8,12.8,12.8C306.5,684,307.9,683.7,309.3,683.2L309.3,683.2z"/>
			<g id="Rain_4_">
				<path class="st3" d="M207,729.8c3,1.2,6.4-0.2,7.6-3.2c1.2-3,2-18,1.2-18.3s-10.8,10.9-12,13.9C202.6,725.1,204,728.6,207,729.8
					z"/>
				<path class="st3" d="M202,715.4c1.5,0.6,3.2-0.1,3.9-1.6c0.6-1.5,1-9.1,0.6-9.3c-0.4-0.2-5.4,5.5-6.1,7
					C199.8,713.1,200.5,714.8,202,715.4z"/>
			</g>
			<g id="Sleep_4_">
				<path class="st3" d="M212.4,773c6.1,0,11.1-5,11.1-11.1l0,0c0-6.1-5-11.1-11.1-11.1h-8.6c-6.1,0-11.1,5-11.1,11.1l0,0
					c0,6.1,5,11.1,11.1,11.1h3.3v3.4L212.4,773z"/>
				<g>
					<path class="st4" d="M200.1,765.9l3.8-7.4v0h-3.1c-0.1,0-0.3-0.1-0.3-0.3v-1.6c0-0.1,0.1-0.3,0.3-0.3h6.1
						c0.1,0,0.3,0.1,0.3,0.3v0.2l-3.7,7.5v0h3.1c0.2,0,0.3,0.1,0.3,0.3v1.6c0,0.1-0.1,0.3-0.3,0.3h-6.3c-0.1,0-0.3-0.1-0.3-0.3
						V765.9z"/>
					<path class="st4" d="M207.7,766l1.7-3.5v0h-1.3c-0.1,0-0.3-0.1-0.3-0.3v-1.3c0-0.2,0.1-0.3,0.3-0.3h3.9c0.2,0,0.3,0.2,0.2,0.4
						l-1.8,3.5v0h1.3c0.2,0,0.3,0.1,0.3,0.3v1.3c0,0.1-0.1,0.3-0.3,0.3H208c-0.1,0-0.3-0.1-0.3-0.3V766z"/>
					<path class="st4" d="M213,766l1.7-3.5v0h-1.3c-0.1,0-0.3-0.1-0.3-0.3v-1.3c0-0.2,0.1-0.3,0.3-0.3h3.9c0.2,0,0.3,0.2,0.2,0.4
						l-1.8,3.5v0h1.3c0.2,0,0.3,0.1,0.3,0.3v1.3c0,0.1-0.1,0.3-0.3,0.3h-3.8c-0.1,0-0.3-0.1-0.3-0.3V766z"/>
				</g>
			</g>
			<g id="Bib_4_">
				<path class="st3" d="M221.8,822.7h-27.2c-1.4,0-2.6-1.2-2.6-2.6v-20.5c0-1.4,1.2-2.6,2.6-2.6h27.2c1.4,0,2.6,1.2,2.6,2.6v20.5
					C224.3,821.5,223.2,822.7,221.8,822.7z"/>
				<g>
					<path class="st4" d="M195.9,812.7l0.7-0.7c0.1-0.1,0.2-0.1,0.3,0c0,0,0.7,0.5,1.3,0.5c0.5,0,1-0.4,1-1c0-0.5-0.5-1-1.4-1h-0.7
						c-0.1,0-0.2-0.1-0.2-0.2v-1c0-0.1,0.1-0.2,0.2-0.2h0.7c0.8,0,1.3-0.4,1.3-0.9s-0.4-0.9-1-0.9c-0.5,0-0.9,0.3-1,0.5
						c-0.1,0.1-0.2,0.1-0.3,0l-0.7-0.7c-0.1-0.1-0.1-0.2,0-0.3c0,0,1-1,2.3-1c1.4,0,2.6,0.8,2.6,2.2c0,0.9-0.7,1.6-1.2,1.8v0
						c0.6,0.2,1.4,1,1.4,2c0,1.3-1.1,2.3-2.8,2.3c-1.5,0-2.3-0.7-2.5-1.1C195.8,812.9,195.8,812.8,195.9,812.7z"/>
					<path class="st4" d="M203.6,809.8L203.6,809.8c-0.5-0.3-1.2-0.9-1.2-1.9c0-1.3,1.2-2.2,2.6-2.2c1.5,0,2.7,0.8,2.7,2.2
						c0,0.9-0.8,1.5-1.2,1.8v0c0.5,0.3,1.4,1,1.4,2c0,1.3-1.1,2.3-2.9,2.3c-1.7,0-2.9-1-2.9-2.3
						C202.1,810.7,203.3,809.9,203.6,809.8z M205,812.6c0.5,0,1-0.4,1-0.9c0-0.4-0.3-0.9-1-1.1c-0.6,0.2-1,0.7-1,1.1
						C204,812.2,204.5,812.6,205,812.6z M205.8,808c0-0.4-0.4-0.8-0.8-0.8c-0.4,0-0.8,0.4-0.8,0.8c0,0.4,0.3,0.8,0.8,1
						C205.6,808.8,205.8,808.4,205.8,808z"/>
					<path class="st4" d="M208.8,813.6l3-6.2H209c-0.1,0-0.2-0.1-0.2-0.2v-1.1c0-0.1,0.1-0.2,0.2-0.2h5c0.1,0,0.2,0.1,0.2,0.2v0.1
						l-3.6,7.4c-0.1,0.3-0.3,0.3-0.5,0.3h-1.2c-0.1,0-0.2-0.1-0.2-0.2V813.6z"/>
					<path class="st4" d="M214,812v-1.3l4.1-5c0,0,0.1-0.1,0.2-0.1h0.9c0.1,0,0.2,0.1,0.2,0.2l0,4.9h0.9c0.1,0,0.2,0.1,0.2,0.2v1
						c0,0.1-0.1,0.2-0.2,0.2h-0.9l0,1.5c0,0.1-0.1,0.2-0.2,0.2h-1.3c-0.1,0-0.2-0.1-0.2-0.2v-1.4h-3.5
						C214.1,812.2,214,812.1,214,812z M217.7,810.8v-2.2l-1.9,2.2H217.7z"/>
				</g>
				<line class="st3" x1="195.8" y1="800.9" x2="220.5" y2="800.9"/>
				<line class="st3" x1="195.8" y1="818.9" x2="220.5" y2="818.9"/>
			</g>
			<g id="Mountains_4_">
				<polygon class="st3" points="308.6,776.5 297.9,750.8 287.3,776.5 				"/>
				<polyline class="st3" points="308.6,776.5 314.1,776.5 306.7,758.5 303.9,765.1 				"/>
			</g>
			<g id="Tub_4_">
				<path class="st3" d="M238.8,849.5l3.9,15c0.3,1.1,0.8,1.9,1.9,1.9h10h10c1,0,1.5-0.8,1.9-1.9l3.9-15"/>
				<path class="st4" d="M270.9,849.9h-32.8c-0.5,0-0.8-0.4-0.8-0.8v-0.5c0-0.5,0.4-0.8,0.8-0.8h32.8c0.5,0,0.8,0.4,0.8,0.8v0.5
					C271.8,849.5,271.4,849.9,270.9,849.9z"/>
				<path class="st3" d="M240.3,847.7v-1.4c0-1.5,1.3-2.8,2.8-2.8c1.4,0,2,1,2,1.7"/>
				<path class="st3" d="M248.7,869.2H247c-0.8,0-1.4-0.6-1.4-1.4l0,0c0-0.8,0.6-1.4,1.4-1.4h1.7c0.8,0,1.4,0.6,1.4,1.4l0,0
					C250.1,868.6,249.5,869.2,248.7,869.2z"/>
				<path class="st3" d="M262.1,869.2h-1.7c-0.8,0-1.4-0.6-1.4-1.4l0,0c0-0.8,0.6-1.4,1.4-1.4h1.7c0.8,0,1.4,0.6,1.4,1.4l0,0
					C263.5,868.6,262.9,869.2,262.1,869.2z"/>
			</g>
			<g id="Alarm_4_">
				<circle class="st3" cx="254.6" cy="811.3" r="12.8"/>
				<path class="st4" d="M248.8,797c-1-1.3-2.6-2.1-4.4-2.1c-3.1,0-5.7,2.5-5.7,5.7c0,1.7,0.7,3.2,1.9,4.2
					C242.3,801.2,245.1,798.5,248.8,797z"/>
				<path class="st4" d="M260.2,797c1-1.3,2.6-2.1,4.4-2.1c3.1,0,5.7,2.5,5.7,5.7c0,1.7-0.7,3.2-1.9,4.2
					C266.8,801.2,263.9,798.5,260.2,797z"/>
				<line class="st2" x1="254.6" y1="813.1" x2="254.6" y2="801.3"/>
				<line class="st2" x1="252.8" y1="811.3" x2="259.6" y2="811.3"/>
				<polyline class="st2" points="245.6,820.4 240.9,825 248.8,822.7 				"/>
				<polyline class="st2" points="263.7,820.4 268.4,825 260.5,822.7 				"/>
			</g>
			<g id="Snow_4_">
				<circle class="st3" cx="300.8" cy="856.4" r="3"/>
				<g>
					<line class="st2" x1="301.8" y1="853.6" x2="306.3" y2="842.1"/>
					<line class="st2" x1="304.6" y1="846.6" x2="302.9" y2="842.7"/>
					<line class="st2" x1="304.6" y1="846.6" x2="308.5" y2="844.9"/>
					<line class="st2" x1="303" y1="850.6" x2="300.4" y2="844.8"/>
					<line class="st2" x1="303" y1="850.6" x2="308.8" y2="848.1"/>
				</g>
				<g>
					<line class="st2" x1="303.5" y1="857.4" x2="315" y2="861.9"/>
					<line class="st2" x1="310.5" y1="860.2" x2="314.4" y2="858.5"/>
					<line class="st2" x1="310.5" y1="860.2" x2="312.2" y2="864.1"/>
					<line class="st2" x1="306.5" y1="858.6" x2="312.3" y2="856"/>
					<line class="st2" x1="306.5" y1="858.6" x2="309" y2="864.4"/>
				</g>
				<g>
					<line class="st2" x1="303.7" y1="855.1" x2="314.9" y2="850.1"/>
					<line class="st2" x1="310.6" y1="852.1" x2="312.1" y2="848.1"/>
					<line class="st2" x1="310.6" y1="852.1" x2="314.5" y2="853.6"/>
				</g>
				<g>
					<line class="st2" x1="299.5" y1="853.4" x2="294.5" y2="842.2"/>
					<line class="st2" x1="296.5" y1="846.6" x2="292.5" y2="845"/>
					<line class="st2" x1="296.5" y1="846.6" x2="298" y2="842.6"/>
				</g>
				<g>
					<line class="st2" x1="302" y1="859.3" x2="307" y2="870.5"/>
					<line class="st2" x1="305.1" y1="866.2" x2="309" y2="867.7"/>
					<line class="st2" x1="305" y1="866.2" x2="303.5" y2="870.1"/>
				</g>
				<g>
					<line class="st2" x1="297.7" y1="857.7" x2="286.4" y2="862.6"/>
					<line class="st2" x1="290.8" y1="860.7" x2="289.3" y2="864.7"/>
					<line class="st2" x1="290.8" y1="860.7" x2="286.9" y2="859.2"/>
				</g>
				<g>
					<line class="st2" x1="299.7" y1="859.1" x2="295.2" y2="870.6"/>
					<line class="st2" x1="296.9" y1="866.1" x2="298.6" y2="870"/>
					<line class="st2" x1="296.9" y1="866.1" x2="293.1" y2="867.8"/>
					<line class="st2" x1="298.5" y1="862.1" x2="301.1" y2="867.9"/>
					<line class="st2" x1="298.5" y1="862.1" x2="292.7" y2="864.6"/>
				</g>
				<g>
					<line class="st2" x1="298" y1="855.3" x2="286.5" y2="850.8"/>
					<line class="st2" x1="291" y1="852.5" x2="287.1" y2="854.2"/>
					<line class="st2" x1="291" y1="852.5" x2="289.3" y2="848.7"/>
					<line class="st2" x1="295" y1="854.1" x2="289.2" y2="856.7"/>
					<line class="st2" x1="295" y1="854.1" x2="292.5" y2="848.3"/>
				</g>
			</g>
			<rect x="277.5" y="786.9" class="st1" width="46.2" height="46.2"/>
			<g>
				<circle class="st3" cx="300.6" cy="817.5" r="7.6"/>
				<line class="st2" x1="296.6" y1="809.1" x2="304.6" y2="809.1"/>
				<polygon class="st2" points="296.6,809.1 284.9,794.9 293,794.9 304.7,809.1 				"/>
				<polyline class="st2" points="304.7,809.1 316.5,794.9 308.4,794.9 300.7,804.2 				"/>
			</g>
			<rect x="231.3" y="740.4" class="st1" width="46.2" height="46.2"/>
			<g id="Shoe_4_">
				<path class="st2" d="M260.3,755.5c0.5,0.6,0.9,1.3,0.9,2.2c0,0.9-0.4,1.7-0.9,2.3l0,0c0.6,0.6,1.4,0.9,2.3,1c0.4,0,2.7,0,2.7,0
					c2.2,0,4.1-1.5,4.7-3.6l0,0c1.4,1.9,2.2,4.2,2.3,6.7c0.1,1.8-0.1,3.4-0.1,3.4c0.4,1-0.1,2.3-0.1,2.3c-0.3,0.9-0.9,1.2-1.7,1.2
					c0,0-0.9,0.8-1.2,0.8c-2.5,0-22.5,0-23.3,0c-0.9,0-1.7-0.1-2.9-0.4s-4.3-1.6-5.3-2.3c-1.1-0.8-1-1.1-1-1.1c0-0.1,0-0.1,0-0.2
					c0-0.6,0.3-1.1,0.6-1.5c1.2-1.3,2.7-1.4,3.9-1.8s4.3-1.5,5.9-2.2c0,0,6.9-3.1,8-3.6c1-0.5,1.9-1.3,2.5-1.6
					C258,756.6,260.3,755.5,260.3,755.5z"/>
				<line class="st2" x1="249.2" y1="761.2" x2="250.1" y2="762.6"/>
				<line class="st2" x1="251.6" y1="760.4" x2="252.5" y2="761.7"/>
				<line class="st2" x1="254" y1="759.4" x2="254.9" y2="760.8"/>
			</g>
			<g id="Bell_4_">
				<path class="st3" d="M254.4,703.3c-4.4,0-8.1,3.2-9,7.3c-1,4.5-2.4,15.4-5.4,17.5l1.4,2h13"/>
				<path class="st3" d="M254.4,703.3c4.4,0,8.1,3.2,9,7.3c1,4.5,2.4,15.4,5.4,17.5l-1.4,2h-13"/>
				<path class="st3" d="M257.2,730.1c0,1.5-1.2,2.8-2.8,2.8c-1.5,0-2.8-1.2-2.8-2.8"/>
				<path class="st3" d="M253,703.3c0-0.8,0.6-1.4,1.4-1.4c0.8,0,1.4,0.6,1.4,1.4"/>
			</g>
			<g id="Finish_4_">
				<polygon class="st3" points="273.9,676.1 235,676.1 237.7,671.1 235,666.2 273.9,666.2 271.1,671.1 				"/>
				<g>
					<path class="st4" d="M242.1,668.5c0-0.1,0.1-0.1,0.1-0.1h3.2c0.1,0,0.1,0.1,0.1,0.1v0.9c0,0.1-0.1,0.1-0.1,0.1h-2.2v1.1h1.8
						c0.1,0,0.1,0.1,0.1,0.1v0.9c0,0.1-0.1,0.1-0.1,0.1h-1.8v1.9c0,0.1-0.1,0.1-0.1,0.1h-0.9c-0.1,0-0.1-0.1-0.1-0.1V668.5z"/>
					<path class="st4" d="M246.5,668.5c0-0.1,0.1-0.1,0.1-0.1h0.9c0.1,0,0.1,0.1,0.1,0.1v5.2c0,0.1-0.1,0.1-0.1,0.1h-0.9
						c-0.1,0-0.1-0.1-0.1-0.1V668.5z"/>
					<path class="st4" d="M249.1,668.4c0-0.1,0.1-0.1,0.1-0.1h0.2l3.1,3h0v-2.8c0-0.1,0.1-0.1,0.1-0.1h0.9c0.1,0,0.1,0.1,0.1,0.1
						v5.3c0,0.1-0.1,0.1-0.1,0.1h-0.1c0,0-0.1,0-0.1,0l-3.1-3.1h0v2.9c0,0.1-0.1,0.1-0.1,0.1h-0.9c-0.1,0-0.1-0.1-0.1-0.1
						L249.1,668.4z"/>
					<path class="st4" d="M255.2,668.5c0-0.1,0.1-0.1,0.1-0.1h0.9c0.1,0,0.1,0.1,0.1,0.1v5.2c0,0.1-0.1,0.1-0.1,0.1h-0.9
						c-0.1,0-0.1-0.1-0.1-0.1V668.5z"/>
					<path class="st4" d="M257.4,673.1l0.4-0.7c0.1-0.1,0.2-0.1,0.3,0c0,0,0.6,0.4,1.1,0.4c0.3,0,0.5-0.2,0.5-0.5
						c0-0.3-0.3-0.6-0.8-0.8c-0.7-0.3-1.5-0.8-1.5-1.7c0-0.8,0.6-1.6,1.8-1.6c0.8,0,1.4,0.4,1.7,0.6c0.1,0.1,0.1,0.2,0,0.3l-0.4,0.6
						c-0.1,0.1-0.2,0.2-0.3,0.1c-0.1,0-0.6-0.5-1.1-0.5c-0.3,0-0.5,0.2-0.5,0.4c0,0.3,0.2,0.5,0.9,0.8c0.6,0.2,1.6,0.7,1.6,1.8
						c0,0.8-0.7,1.6-1.9,1.6c-1,0-1.6-0.4-1.8-0.6C257.4,673.3,257.4,673.2,257.4,673.1z"/>
					<path class="st4" d="M262,668.5c0-0.1,0.1-0.1,0.1-0.1h0.9c0.1,0,0.1,0.1,0.1,0.1v2h2.2v-2c0-0.1,0.1-0.1,0.1-0.1h0.9
						c0.1,0,0.1,0.1,0.1,0.1v5.2c0,0.1-0.1,0.1-0.1,0.1h-0.9c-0.1,0-0.1-0.1-0.1-0.1v-2.1h-2.2v2.1c0,0.1-0.1,0.1-0.1,0.1h-0.9
						c-0.1,0-0.1-0.1-0.1-0.1V668.5z"/>
				</g>
			</g>
			<path id="Wing_Shoe_4_" class="st3" d="M259.2,629.7c0,0,2.2,4.3,2.7,5.1s1.7,1.4,2.6,1.7s1.5,0.6,1.9,0.8
				c0.4,0.2,1.1,0.6,1.1,1.4s-0.4,1.7-1.2,1.7s-4.3,0-5.4,0s-3.7-0.4-5.2-1.8s-3.1-4.5-3.1-4.5c8.2-6.8,8-15.5,2.3-18.3l-13.5-6.4
				c0.4,4.4,3.4,5.5,3.4,5.5c0.4,3.9,2.4,5.2,3.8,5.9c0,0-0.2,3.6,2.5,5.1l4.3,2c-1.9,3.2-4.4,4.2-5.5,4.4c-1.5,0.3-2.9-0.6-3.5-1.2
				c-1-0.9-2.8-2.7,0.4-6.2"/>
			<path id="Shirt_5_" class="st3" d="M254.4,569.1c3.4,0,6.2-2.8,6.2-6.2l11.8,4.4l-2.5,9l-6-1.5v19.6h-9.6h-9.6v-19.6l-6,1.5
				l-2.5-9l11.8-4.4C248.2,566.3,251,569.1,254.4,569.1z"/>
			<g id="Socks_4_">
				<g>
					<path class="st3" d="M294.2,584.3l11,2.8l0,0c1.5,0.4,2.7,1.8,2.7,3.5c0,2-1.6,3.6-3.6,3.6c-0.3,0-0.7-0.1-0.9-0.2l-9.1-2.3
						c-2.6-0.5-4.7-2.1-4.7-4.7v-21.2h7.4V587"/>
					<path class="st3" d="M289.5,584.9c2.9,1,5,3.7,5.1,6.9"/>
					<line class="st3" x1="289.5" y1="570.6" x2="296.9" y2="570.6"/>
					<line class="st3" x1="289.5" y1="572.7" x2="296.9" y2="572.7"/>
					<line class="st3" x1="289.5" y1="574.8" x2="296.9" y2="574.8"/>
				</g>
				<g>
					<polyline class="st3" points="293.5,565.8 293.5,563.1 301,563.1 301,584.3 					"/>
					<path class="st3" d="M298.2,581.6l11,2.8l0,0c1.5,0.4,2.7,1.8,2.7,3.5c0,2-1.6,3.6-3.6,3.6c-0.2,0-0.3,0-0.5-0.1"/>
					<line class="st3" x1="296.9" y1="567.9" x2="301" y2="567.9"/>
					<line class="st3" x1="296.9" y1="570" x2="301" y2="570"/>
					<line class="st3" x1="296.9" y1="572.1" x2="301" y2="572.1"/>
				</g>
			</g>
			<g id="Pizza_4_">
				<path class="st3" d="M208.2,840.5c4.9,0,12.5,2.9,12.5,2.9l-12.5,28.8l-12.5-28.8C195.7,843.4,203.3,840.5,208.2,840.5z"/>
				<path class="st3" d="M196.8,845.9c0,0,11.8-5.6,22.8,0"/>
				<circle class="st4" cx="204.2" cy="851.3" r="2.2"/>
				<circle class="st4" cx="208.6" cy="860.1" r="2.2"/>
				<circle class="st4" cx="212.3" cy="849.1" r="2.2"/>
			</g>
			<g id="Beer_4_">
				<path class="st3" d="M214,661.7h-3.3l0,0c-0.6,1.3-1.9,2.2-3.4,2.2c-1.5,0-2.8-0.9-3.4-2.2l0,0h-4.9V685c0,1.3,1,2.3,2.3,2.3
					h10.5c1.3,0,2.3-1,2.3-2.3V661.7z"/>
				<path class="st3" d="M198.9,662.7c-1-0.7-1.2-0.5-1.2-1.8c0-2.2,1.3-2.9,3.5-2.9l0,0c0.5-1.7,2.1-3,3.9-3c1.9,0,3.5,1.3,3.9,3
					l-0.1-0.2c0.3,0,0.5-0.1,0.8-0.1c3,0,4.9,0,4.9,3c0,1.4,0,1.5-0.9,2.4"/>
				<path class="st3" d="M214,667.5h2.3c1.3,0,2.3,1,2.3,2.3v7.7c0,1.3-1,2.3-2.3,2.3H214"/>
				<line class="st2" x1="202.5" y1="667.5" x2="202.5" y2="682"/>
				<line class="st2" x1="206.3" y1="667.5" x2="206.3" y2="682"/>
				<line class="st2" x1="210.1" y1="667.5" x2="210.1" y2="682"/>
			</g>
			<g id="Donut_4_">
				<circle class="st2" cx="300.7" cy="624.9" r="15.5"/>
				<circle class="st2" cx="300.7" cy="624.9" r="6.2"/>
				<path class="st4" d="M306.9,624.9c0,3.4-2.8,6.2-6.2,6.2c-3.4,0-6.2-2.8-6.2-6.2s2.8-6.2,6.2-6.2
					C304.1,618.7,306.9,621.5,306.9,624.9z M296.3,612.9c-1.9,0-2.3,0.3-3.4,1.3c-1.1,1-0.7,2.6-1.3,3.6c-0.5,1-2.5,1.5-3.3,2.6
					c-0.7,1.1,1,2.7,0.7,4.5s-0.7,2.4-0.4,4.4s2.6,0.9,3.4,1.8c0.8,0.9,0,1.4,0,3c0,1.6,2.7,1.8,4.7,1.7c1.9-0.1,2.1,1.7,3.5,2.1
					s2.5-0.4,3-1.4c0.4-1,2-0.8,3.2-0.7c1.2,0.1,2-0.6,2.2-1.7c0.2-1.1,1.8-2.4,3.2-3s1.6-2.8,1-3.7c-0.5-0.9-0.9-2.9-0.2-4.7
					c0.7-1.8-0.2-2.4-1-3.3s-1.3-1.5-1.6-3.2c-0.2-1.7-1.7-1.6-2.7-2.4c-1-0.7-1.9,0.2-3.1-0.4c-1.2-0.6-2.2-1.5-3.1-1.9
					C299.6,610.8,298.2,612.9,296.3,612.9z"/>
			</g>
			<g id="Cookie_4_">
				<path class="st2" d="M312.4,713.6c-3.4-1-6-4.1-6-7.9c0-0.9,0.1-1.7,0.4-2.5l-0.2-0.1c-1.9-0.8-3.9-1.2-6-1.2
					c-8.6,0-15.5,6.9-15.5,15.5s6.9,15.5,15.5,15.5c7.8,0,14.2-5.7,15.3-13.2l0,0c-2.1-1-3.6-3.1-3.6-5.6
					C312.4,713.9,312.4,713.7,312.4,713.6L312.4,713.6z"/>
				<circle class="st4" cx="299" cy="717.2" r="2.4"/>
				<circle class="st4" cx="309.8" cy="723" r="2.1"/>
				<circle class="st4" cx="293.2" cy="710.4" r="1.8"/>
				<circle class="st4" cx="299.6" cy="731.1" r="1.8"/>
				<circle class="st4" cx="307.3" cy="715.6" r="1.5"/>
				<circle class="st4" cx="290.8" cy="721.2" r="1.7"/>
				<circle class="st4" cx="301.9" cy="705.6" r="1.2"/>
				<circle class="st4" cx="301.8" cy="723.3" r="0.8"/>
			</g>
			<g id="Tree_4_">
				<polygon class="st3" points="346.9,594 348.6,594 348.6,590.6 353.3,590.6 355.9,590.6 351.4,581.4 351.1,581.4 353.6,581.4 
					349.2,572.3 348.9,572.3 351.4,572.3 346.9,563.1 342.4,572.3 345,572.3 344.7,572.3 340.2,581.4 342.7,581.4 342.4,581.4 
					338,590.6 340.5,590.6 345.3,590.6 345.3,594 				"/>
				<line class="st3" x1="343" y1="590.6" x2="351.8" y2="590.6"/>
			</g>
			<path id="Heart_4_" class="st1" d="M346.9,637.1L358,626c1.4-1.4,2.3-3.4,2.3-5.5c0-4.3-3.5-7.8-7.8-7.8c-2.2,0-4.1,0.9-5.5,2.3
				c-1.4-1.4-3.4-2.3-5.5-2.3c-4.3,0-7.8,3.5-7.8,7.8c0,2.2,0.9,4.1,2.3,5.5L346.9,637.1z"/>
			<polygon id="Lightning_4_" class="st2" points="346.6,672.4 342,686 353.8,670.3 347.3,670.3 347.3,670.3 351.9,656.7 340,672.4 
				346.5,672.4 			"/>
			<g id="Hat_4_">
				<path class="st2" d="M330.7,723.3c-2.2-12.9,1.8-15.7,9.7-17.3c8-1.6,11.9,1.6,12.4,2.6c0.5,1.1,3,8.8,3,8.8s4.5,3.3,5.5,4
					c1,0.6,3.2,1.1,2.4,4.1c-0.8,3-2,2.3-2.7,2c-1.3-0.5-4.9-3.7-4.9-3.7c-1.8,1.2-5.5,3.8-7.8,4.8s-5.1,0.7-6.7,0
					c-1.6-0.7-6.3-4-7.6-5.3H330.7z"/>
				<path class="st2" d="M334.1,723.2c2.1-1.1,10.1-4.7,21.7-5.9"/>
				<path class="st2" d="M339.9,706c-2.8,1.5-8.4,3.3-3.9,16.3"/>
				<path class="st2" d="M356.1,723.8c2-1.2,4.5-2.9,6.5-1.7"/>
			</g>
			<g id="Watch_4_">
				<circle class="st1" cx="347" cy="763.7" r="7.2"/>
				<path class="st2" d="M342,770.4c-0.8-0.6-1.4-1.3-2-2"/>
				<path class="st2" d="M353.7,768.6c-0.5,0.6-1,1.2-1.6,1.6"/>
				<path class="st2" d="M351.9,756.9c0.7,0.5,1.3,1.1,1.8,1.8"/>
				<path class="st2" d="M340.2,758.7c0.6-0.8,1.3-1.4,2-2"/>
				<line class="st2" x1="347" y1="763.7" x2="347" y2="759.2"/>
				<line class="st2" x1="347" y1="763.7" x2="349.6" y2="763.7"/>
				<polyline class="st2" points="349.7,756.7 349.7,744.9 344.2,744.9 344.2,756.7 				"/>
				<polyline class="st2" points="349.7,770.6 349.7,782.5 344.2,782.5 344.2,770.6 				"/>
				<line class="st2" x1="347" y1="747.8" x2="347" y2="748.2"/>
				<line class="st2" x1="347" y1="750.7" x2="347" y2="751.1"/>
			</g>
			<path class="st2" d="M337.6,821.5h21.2c2.5,0,4.4-2,4.4-4.4c0-2.5-2-4.4-4.4-4.4c-0.1,0-0.2,0-0.3,0l0,0c0.2-0.9,0.3-1.7,0.3-2.7
				c0-6.4-5.2-11.5-11.5-11.5c-5.7,0-10.4,4.1-11.4,9.6l0,0c-3,0.8-5.2,3.4-5.2,6.7C330.7,818.5,333.8,821.5,337.6,821.5z"/>
			<path class="st2" d="M359.8,866.1h-27.6c-2.2,0-3.9-1.8-3.9-3.9c0-2.2,1.8-3.9,3.9-3.9c0.1,0,0.1,0,0.2,0l0,0
				c-0.1-0.6-0.2-1.2-0.2-1.9c0-5.4,4.4-9.7,9.7-9.7s9.7,4.4,9.7,9.7c0,0.1,0,0.2,0,0.4l0,0c0.6-0.2,1.2-0.4,1.9-0.4
				c0.5,0,1,0.1,1.5,0.2l0,0c1.1-1.4,2.8-2.4,4.7-2.4c3.3,0,5.9,2.7,5.9,5.9S363,866.1,359.8,866.1z"/>
		</g>
		<g>
			<g id="Track_2_">
				<path class="st1" d="M213,261.1c3.6,0,6.5-2.9,6.5-6.5c0-3.6-2.9-6.5-6.5-6.5h-9.6c-3.6,0-6.5,2.9-6.5,6.5
					c0,3.6,2.9,6.5,6.5,6.5H213z"/>
				<path class="st1" d="M212.9,264.3c5.4,0,9.7-4.3,9.7-9.7s-4.3-9.7-9.7-9.7h-9.6c-5.4,0-9.7,4.3-9.7,9.7s4.3,9.7,9.7,9.7H212.9z"
					/>
				<path class="st1" d="M213,267.4c7.1,0,12.8-5.7,12.8-12.8c0-7.1-5.7-12.8-12.8-12.8h-9.7c-7.1,0-12.8,5.7-12.8,12.8
					c0,7.1,5.7,12.8,12.8,12.8H213z"/>
				<line class="st1" x1="203.4" y1="261.2" x2="203.4" y2="267.3"/>
			</g>
			<g id="Sun_2_">
				<circle class="st2" cx="208.2" cy="300.9" r="6.6"/>
				<line class="st2" x1="217.3" y1="304.5" x2="220.2" y2="305.6"/>
				<line class="st2" x1="211.8" y1="291.8" x2="212.9" y2="288.9"/>
				<line class="st2" x1="205.6" y1="294.9" x2="203" y2="289.1"/>
				<line class="st2" x1="213.3" y1="312.7" x2="210.8" y2="306.9"/>
				<line class="st2" x1="220" y1="295.8" x2="214.2" y2="298.3"/>
				<line class="st2" x1="202.2" y1="303.5" x2="196.3" y2="306"/>
				<line class="st2" x1="203.4" y1="312.9" x2="204.6" y2="310"/>
				<line class="st2" x1="196.2" y1="296.1" x2="199.1" y2="297.3"/>
			</g>
			<path id="Moon_2_" class="st3" d="M309.3,359.2c-4.9-1.8-8.4-6.5-8.4-12c0-5.5,3.5-10.2,8.4-12l0,0c-1.4-0.5-2.9-0.8-4.4-0.8
				c-7.1,0-12.8,5.7-12.8,12.8c0,7.1,5.7,12.8,12.8,12.8C306.5,360,307.9,359.7,309.3,359.2L309.3,359.2z"/>
			<g id="Rain_2_">
				<path class="st3" d="M207,405.8c3,1.2,6.4-0.2,7.6-3.2c1.2-3,2-18,1.2-18.3c-0.8-0.3-10.8,10.9-12,13.9
					C202.6,401.1,204,404.6,207,405.8z"/>
				<path class="st3" d="M202,391.4c1.5,0.6,3.2-0.1,3.9-1.6c0.6-1.5,1-9.1,0.6-9.3c-0.4-0.2-5.4,5.5-6.1,7
					C199.8,389.1,200.5,390.8,202,391.4z"/>
			</g>
			<g id="Sleep_2_">
				<path class="st3" d="M212.4,449c6.1,0,11.1-5,11.1-11.1v0c0-6.1-5-11.1-11.1-11.1h-8.6c-6.1,0-11.1,5-11.1,11.1v0
					c0,6.1,5,11.1,11.1,11.1h3.3v3.4L212.4,449z"/>
				<g>
					<path class="st4" d="M200.1,441.9l3.8-7.4v0h-3.1c-0.1,0-0.3-0.1-0.3-0.3v-1.6c0-0.1,0.1-0.3,0.3-0.3h6.1
						c0.1,0,0.3,0.1,0.3,0.3v0.2l-3.7,7.5v0h3.1c0.2,0,0.3,0.1,0.3,0.3v1.6c0,0.1-0.1,0.3-0.3,0.3h-6.3c-0.1,0-0.3-0.1-0.3-0.3
						V441.9z"/>
					<path class="st4" d="M207.7,442l1.7-3.5v0h-1.3c-0.1,0-0.3-0.1-0.3-0.3v-1.3c0-0.2,0.1-0.3,0.3-0.3h3.9c0.2,0,0.3,0.2,0.2,0.4
						l-1.8,3.5v0h1.3c0.2,0,0.3,0.1,0.3,0.3v1.3c0,0.1-0.1,0.3-0.3,0.3H208c-0.1,0-0.3-0.1-0.3-0.3V442z"/>
					<path class="st4" d="M213,442l1.7-3.5v0h-1.3c-0.1,0-0.3-0.1-0.3-0.3v-1.3c0-0.2,0.1-0.3,0.3-0.3h3.9c0.2,0,0.3,0.2,0.2,0.4
						l-1.8,3.5v0h1.3c0.2,0,0.3,0.1,0.3,0.3v1.3c0,0.1-0.1,0.3-0.3,0.3h-3.8c-0.1,0-0.3-0.1-0.3-0.3V442z"/>
				</g>
			</g>
			<g id="Bib_2_">
				<path class="st3" d="M221.8,498.7h-27.2c-1.4,0-2.6-1.2-2.6-2.6v-20.5c0-1.4,1.2-2.6,2.6-2.6h27.2c1.4,0,2.6,1.2,2.6,2.6v20.5
					C224.3,497.5,223.2,498.7,221.8,498.7z"/>
				<g>
					<path class="st4" d="M195.9,488.7l0.7-0.7c0.1-0.1,0.2-0.1,0.3,0c0,0,0.7,0.5,1.3,0.5c0.5,0,1-0.4,1-1s-0.5-1-1.4-1h-0.7
						c-0.1,0-0.2-0.1-0.2-0.2v-1c0-0.1,0.1-0.2,0.2-0.2h0.7c0.8,0,1.3-0.4,1.3-0.9s-0.4-0.9-1-0.9c-0.5,0-0.9,0.3-1,0.5
						c-0.1,0.1-0.2,0.1-0.3,0l-0.7-0.7c-0.1-0.1-0.1-0.2,0-0.3c0,0,1-1,2.3-1c1.4,0,2.6,0.8,2.6,2.2c0,0.9-0.7,1.6-1.2,1.8v0
						c0.6,0.2,1.4,1,1.4,2c0,1.3-1.1,2.3-2.8,2.3c-1.5,0-2.3-0.7-2.5-1.1C195.8,488.9,195.8,488.8,195.9,488.7z"/>
					<path class="st4" d="M203.6,485.8L203.6,485.8c-0.5-0.3-1.2-0.9-1.2-1.9c0-1.3,1.2-2.2,2.6-2.2c1.5,0,2.7,0.8,2.7,2.2
						c0,0.9-0.8,1.5-1.2,1.8v0c0.5,0.3,1.4,1,1.4,2c0,1.3-1.1,2.3-2.9,2.3c-1.7,0-2.9-1-2.9-2.3
						C202.1,486.7,203.3,485.9,203.6,485.8z M205,488.6c0.5,0,1-0.4,1-0.9c0-0.4-0.3-0.9-1-1.1c-0.6,0.2-1,0.7-1,1.1
						C204,488.2,204.5,488.6,205,488.6z M205.8,484c0-0.4-0.4-0.8-0.8-0.8c-0.4,0-0.8,0.4-0.8,0.8c0,0.4,0.3,0.8,0.8,1
						C205.6,484.8,205.8,484.4,205.8,484z"/>
					<path class="st4" d="M208.8,489.6l3-6.2H209c-0.1,0-0.2-0.1-0.2-0.2v-1.1c0-0.1,0.1-0.2,0.2-0.2h5c0.1,0,0.2,0.1,0.2,0.2v0.1
						l-3.6,7.4c-0.1,0.3-0.3,0.3-0.5,0.3h-1.2c-0.1,0-0.2-0.1-0.2-0.2V489.6z"/>
					<path class="st4" d="M214,488v-1.3l4.1-5c0,0,0.1-0.1,0.2-0.1h0.9c0.1,0,0.2,0.1,0.2,0.2l0,4.9h0.9c0.1,0,0.2,0.1,0.2,0.2v1
						c0,0.1-0.1,0.2-0.2,0.2h-0.9l0,1.5c0,0.1-0.1,0.2-0.2,0.2h-1.3c-0.1,0-0.2-0.1-0.2-0.2v-1.4h-3.5
						C214.1,488.2,214,488.1,214,488z M217.7,486.8v-2.2l-1.9,2.2H217.7z"/>
				</g>
				<line class="st3" x1="195.8" y1="476.9" x2="220.5" y2="476.9"/>
				<line class="st3" x1="195.8" y1="494.9" x2="220.5" y2="494.9"/>
			</g>
			<g id="Mountains_2_">
				<polygon class="st3" points="308.6,452.5 297.9,426.8 287.3,452.5 				"/>
				<polyline class="st3" points="308.6,452.5 314.1,452.5 306.7,434.5 303.9,441.1 				"/>
			</g>
			<g id="Tub_2_">
				<path class="st3" d="M238.8,525.5l3.9,15c0.3,1.1,0.8,1.9,1.9,1.9h10h10c1,0,1.5-0.8,1.9-1.9l3.9-15"/>
				<path class="st4" d="M270.9,525.9h-32.8c-0.5,0-0.8-0.4-0.8-0.8v-0.5c0-0.5,0.4-0.8,0.8-0.8h32.8c0.5,0,0.8,0.4,0.8,0.8v0.5
					C271.8,525.5,271.4,525.9,270.9,525.9z"/>
				<path class="st3" d="M240.3,523.7v-1.4c0-1.5,1.3-2.8,2.8-2.8c1.4,0,2,1,2,1.7"/>
				<path class="st3" d="M248.7,545.2H247c-0.8,0-1.4-0.6-1.4-1.4l0,0c0-0.8,0.6-1.4,1.4-1.4h1.7c0.8,0,1.4,0.6,1.4,1.4l0,0
					C250.1,544.6,249.5,545.2,248.7,545.2z"/>
				<path class="st3" d="M262.1,545.2h-1.7c-0.8,0-1.4-0.6-1.4-1.4l0,0c0-0.8,0.6-1.4,1.4-1.4h1.7c0.8,0,1.4,0.6,1.4,1.4l0,0
					C263.5,544.6,262.9,545.2,262.1,545.2z"/>
			</g>
			<g id="Alarm_2_">
				<circle class="st3" cx="254.6" cy="487.3" r="12.8"/>
				<path class="st4" d="M248.8,473c-1-1.3-2.6-2.1-4.4-2.1c-3.1,0-5.7,2.5-5.7,5.7c0,1.7,0.7,3.2,1.9,4.2
					C242.3,477.2,245.1,474.5,248.8,473z"/>
				<path class="st4" d="M260.2,473c1-1.3,2.6-2.1,4.4-2.1c3.1,0,5.7,2.5,5.7,5.7c0,1.7-0.7,3.2-1.9,4.2
					C266.8,477.2,263.9,474.5,260.2,473z"/>
				<line class="st2" x1="254.6" y1="489.1" x2="254.6" y2="477.3"/>
				<line class="st2" x1="252.8" y1="487.3" x2="259.6" y2="487.3"/>
				<polyline class="st2" points="245.6,496.4 240.9,501 248.8,498.7 				"/>
				<polyline class="st2" points="263.7,496.4 268.4,501 260.5,498.7 				"/>
			</g>
			<g id="Snow_2_">
				<circle class="st3" cx="300.8" cy="532.4" r="3"/>
				<g>
					<line class="st2" x1="301.8" y1="529.6" x2="306.3" y2="518.1"/>
					<line class="st2" x1="304.6" y1="522.6" x2="302.9" y2="518.7"/>
					<line class="st2" x1="304.6" y1="522.6" x2="308.5" y2="520.9"/>
					<line class="st2" x1="303" y1="526.6" x2="300.4" y2="520.8"/>
					<line class="st2" x1="303" y1="526.6" x2="308.8" y2="524.1"/>
				</g>
				<g>
					<line class="st2" x1="303.5" y1="533.4" x2="315" y2="537.9"/>
					<line class="st2" x1="310.5" y1="536.2" x2="314.4" y2="534.5"/>
					<line class="st2" x1="310.5" y1="536.2" x2="312.2" y2="540.1"/>
					<line class="st2" x1="306.5" y1="534.6" x2="312.3" y2="532"/>
					<line class="st2" x1="306.5" y1="534.6" x2="309" y2="540.4"/>
				</g>
				<g>
					<line class="st2" x1="303.7" y1="531.1" x2="314.9" y2="526.1"/>
					<line class="st2" x1="310.6" y1="528.1" x2="312.1" y2="524.1"/>
					<line class="st2" x1="310.6" y1="528.1" x2="314.5" y2="529.6"/>
				</g>
				<g>
					<line class="st2" x1="299.5" y1="529.4" x2="294.5" y2="518.2"/>
					<line class="st2" x1="296.5" y1="522.6" x2="292.5" y2="521"/>
					<line class="st2" x1="296.5" y1="522.6" x2="298" y2="518.6"/>
				</g>
				<g>
					<line class="st2" x1="302" y1="535.3" x2="307" y2="546.5"/>
					<line class="st2" x1="305.1" y1="542.2" x2="309" y2="543.7"/>
					<line class="st2" x1="305" y1="542.2" x2="303.5" y2="546.1"/>
				</g>
				<g>
					<line class="st2" x1="297.7" y1="533.7" x2="286.4" y2="538.6"/>
					<line class="st2" x1="290.8" y1="536.7" x2="289.3" y2="540.7"/>
					<line class="st2" x1="290.8" y1="536.7" x2="286.9" y2="535.2"/>
				</g>
				<g>
					<line class="st2" x1="299.7" y1="535.1" x2="295.2" y2="546.6"/>
					<line class="st2" x1="296.9" y1="542.1" x2="298.6" y2="546"/>
					<line class="st2" x1="296.9" y1="542.1" x2="293.1" y2="543.8"/>
					<line class="st2" x1="298.5" y1="538.1" x2="301.1" y2="543.9"/>
					<line class="st2" x1="298.5" y1="538.1" x2="292.7" y2="540.6"/>
				</g>
				<g>
					<line class="st2" x1="298" y1="531.3" x2="286.5" y2="526.8"/>
					<line class="st2" x1="291" y1="528.5" x2="287.1" y2="530.2"/>
					<line class="st2" x1="291" y1="528.5" x2="289.3" y2="524.7"/>
					<line class="st2" x1="295" y1="530.1" x2="289.2" y2="532.7"/>
					<line class="st2" x1="295" y1="530.1" x2="292.5" y2="524.3"/>
				</g>
			</g>
			<g>
				<circle class="st3" cx="300.6" cy="493.5" r="7.6"/>
				<line class="st2" x1="296.6" y1="485.1" x2="304.6" y2="485.1"/>
				<polygon class="st2" points="296.6,485.1 284.9,470.9 293,470.9 304.7,485.1 				"/>
				<polyline class="st2" points="304.7,485.1 316.5,470.9 308.4,470.9 300.7,480.2 				"/>
			</g>
			<g id="Shoe_2_">
				<path class="st2" d="M260.3,431.5c0.5,0.6,0.9,1.3,0.9,2.2c0,0.9-0.4,1.7-0.9,2.3l0,0c0.6,0.6,1.4,0.9,2.3,1c0.4,0,2.7,0,2.7,0
					c2.2,0,4.1-1.5,4.7-3.6l0,0c1.4,1.9,2.2,4.2,2.3,6.7c0.1,1.8-0.1,3.4-0.1,3.4c0.4,1-0.1,2.3-0.1,2.3c-0.3,0.9-0.9,1.2-1.7,1.2
					c0,0-0.9,0.8-1.2,0.8c-2.5,0-22.5,0-23.3,0c-0.9,0-1.7-0.1-2.9-0.4c-1.1-0.3-4.3-1.6-5.3-2.3c-1.1-0.8-1-1.1-1-1.1
					c0-0.1,0-0.1,0-0.2c0-0.6,0.3-1.1,0.6-1.5c1.2-1.3,2.7-1.4,3.9-1.8s4.3-1.5,5.9-2.2c0,0,6.9-3.1,8-3.6c1-0.5,1.9-1.3,2.5-1.6
					C258,432.6,260.3,431.5,260.3,431.5z"/>
				<line class="st2" x1="249.2" y1="437.2" x2="250.1" y2="438.6"/>
				<line class="st2" x1="251.6" y1="436.4" x2="252.5" y2="437.7"/>
				<line class="st2" x1="254" y1="435.4" x2="254.9" y2="436.8"/>
			</g>
			<g id="Bell_2_">
				<path class="st3" d="M254.4,379.3c-4.4,0-8.1,3.2-9,7.3c-1,4.5-2.4,15.4-5.4,17.5l1.4,2h13"/>
				<path class="st3" d="M254.4,379.3c4.4,0,8.1,3.2,9,7.3c1,4.5,2.4,15.4,5.4,17.5l-1.4,2h-13"/>
				<path class="st3" d="M257.2,406.1c0,1.5-1.2,2.8-2.8,2.8c-1.5,0-2.8-1.2-2.8-2.8"/>
				<path class="st3" d="M253,379.3c0-0.8,0.6-1.4,1.4-1.4c0.8,0,1.4,0.6,1.4,1.4"/>
			</g>
			<g id="Finish_2_">
				<polygon class="st3" points="273.9,352.1 235,352.1 237.7,347.1 235,342.2 273.9,342.2 271.1,347.1 				"/>
				<g>
					<path class="st4" d="M242.1,344.5c0-0.1,0.1-0.1,0.1-0.1h3.2c0.1,0,0.1,0.1,0.1,0.1v0.9c0,0.1-0.1,0.1-0.1,0.1h-2.2v1.1h1.8
						c0.1,0,0.1,0.1,0.1,0.1v0.9c0,0.1-0.1,0.1-0.1,0.1h-1.8v1.9c0,0.1-0.1,0.1-0.1,0.1h-0.9c-0.1,0-0.1-0.1-0.1-0.1V344.5z"/>
					<path class="st4" d="M246.5,344.5c0-0.1,0.1-0.1,0.1-0.1h0.9c0.1,0,0.1,0.1,0.1,0.1v5.2c0,0.1-0.1,0.1-0.1,0.1h-0.9
						c-0.1,0-0.1-0.1-0.1-0.1V344.5z"/>
					<path class="st4" d="M249.1,344.4c0-0.1,0.1-0.1,0.1-0.1h0.2l3.1,3h0v-2.8c0-0.1,0.1-0.1,0.1-0.1h0.9c0.1,0,0.1,0.1,0.1,0.1
						v5.3c0,0.1-0.1,0.1-0.1,0.1h-0.1c0,0-0.1,0-0.1,0l-3.1-3.1h0v2.9c0,0.1-0.1,0.1-0.1,0.1h-0.9c-0.1,0-0.1-0.1-0.1-0.1
						L249.1,344.4z"/>
					<path class="st4" d="M255.2,344.5c0-0.1,0.1-0.1,0.1-0.1h0.9c0.1,0,0.1,0.1,0.1,0.1v5.2c0,0.1-0.1,0.1-0.1,0.1h-0.9
						c-0.1,0-0.1-0.1-0.1-0.1V344.5z"/>
					<path class="st4" d="M257.4,349.1l0.4-0.7c0.1-0.1,0.2-0.1,0.3,0c0,0,0.6,0.4,1.1,0.4c0.3,0,0.5-0.2,0.5-0.5
						c0-0.3-0.3-0.6-0.8-0.8c-0.7-0.3-1.5-0.8-1.5-1.7c0-0.8,0.6-1.6,1.8-1.6c0.8,0,1.4,0.4,1.7,0.6c0.1,0.1,0.1,0.2,0,0.3l-0.4,0.6
						c-0.1,0.1-0.2,0.2-0.3,0.1c-0.1,0-0.6-0.5-1.1-0.5c-0.3,0-0.5,0.2-0.5,0.4c0,0.3,0.2,0.5,0.9,0.8c0.6,0.2,1.6,0.7,1.6,1.8
						c0,0.8-0.7,1.6-1.9,1.6c-1,0-1.6-0.4-1.8-0.6C257.4,349.3,257.4,349.2,257.4,349.1z"/>
					<path class="st4" d="M262,344.5c0-0.1,0.1-0.1,0.1-0.1h0.9c0.1,0,0.1,0.1,0.1,0.1v2h2.2v-2c0-0.1,0.1-0.1,0.1-0.1h0.9
						c0.1,0,0.1,0.1,0.1,0.1v5.2c0,0.1-0.1,0.1-0.1,0.1h-0.9c-0.1,0-0.1-0.1-0.1-0.1v-2.1h-2.2v2.1c0,0.1-0.1,0.1-0.1,0.1h-0.9
						c-0.1,0-0.1-0.1-0.1-0.1V344.5z"/>
				</g>
			</g>
			<path id="Wing_Shoe_2_" class="st3" d="M259.2,305.7c0,0,2.2,4.3,2.7,5.1s1.7,1.4,2.6,1.7c0.8,0.3,1.5,0.6,1.9,0.8
				c0.4,0.2,1.1,0.6,1.1,1.4c0,0.9-0.4,1.7-1.2,1.7s-4.3,0-5.4,0s-3.7-0.4-5.2-1.8s-3.1-4.5-3.1-4.5c8.2-6.8,8-15.5,2.3-18.3
				l-13.5-6.4c0.4,4.4,3.4,5.5,3.4,5.5c0.4,3.9,2.4,5.2,3.8,5.9c0,0-0.2,3.6,2.5,5.1l4.3,2c-1.9,3.2-4.4,4.2-5.5,4.4
				c-1.5,0.3-2.9-0.6-3.5-1.2c-1-0.9-2.8-2.7,0.4-6.2"/>
			<path id="Shirt_3_" class="st3" d="M254.4,245.1c3.4,0,6.2-2.8,6.2-6.2l11.8,4.4l-2.5,9l-6-1.5v19.6h-9.6h-9.6v-19.6l-6,1.5
				l-2.5-9l11.8-4.4C248.2,242.3,251,245.1,254.4,245.1z"/>
			<g id="Socks_2_">
				<g>
					<path class="st3" d="M294.2,260.3l11,2.8l0,0c1.5,0.4,2.7,1.8,2.7,3.5c0,2-1.6,3.6-3.6,3.6c-0.3,0-0.7-0.1-0.9-0.2l-9.1-2.3
						c-2.6-0.5-4.7-2.1-4.7-4.7v-21.2h7.4V263"/>
					<path class="st3" d="M289.5,260.9c2.9,1,5,3.7,5.1,6.9"/>
					<line class="st3" x1="289.5" y1="246.6" x2="296.9" y2="246.6"/>
					<line class="st3" x1="289.5" y1="248.7" x2="296.9" y2="248.7"/>
					<line class="st3" x1="289.5" y1="250.8" x2="296.9" y2="250.8"/>
				</g>
				<g>
					<polyline class="st3" points="293.5,241.8 293.5,239.1 301,239.1 301,260.3 					"/>
					<path class="st3" d="M298.2,257.6l11,2.8l0,0c1.5,0.4,2.7,1.8,2.7,3.5c0,2-1.6,3.6-3.6,3.6c-0.2,0-0.3,0-0.5-0.1"/>
					<line class="st3" x1="296.9" y1="243.9" x2="301" y2="243.9"/>
					<line class="st3" x1="296.9" y1="246" x2="301" y2="246"/>
					<line class="st3" x1="296.9" y1="248.1" x2="301" y2="248.1"/>
				</g>
			</g>
			<g id="Pizza_2_">
				<path class="st3" d="M208.2,516.5c4.9,0,12.5,2.9,12.5,2.9l-12.5,28.8l-12.5-28.8C195.7,519.4,203.3,516.5,208.2,516.5z"/>
				<path class="st3" d="M196.8,521.9c0,0,11.8-5.6,22.8,0"/>
				<circle class="st4" cx="204.2" cy="527.3" r="2.2"/>
				<circle class="st4" cx="208.6" cy="536.1" r="2.2"/>
				<circle class="st4" cx="212.3" cy="525.1" r="2.2"/>
			</g>
			<g id="Beer_2_">
				<path class="st3" d="M214,337.7h-3.3l0,0c-0.6,1.3-1.9,2.2-3.4,2.2c-1.5,0-2.8-0.9-3.4-2.2l0,0h-4.9V361c0,1.3,1,2.3,2.3,2.3
					h10.5c1.3,0,2.3-1,2.3-2.3V337.7z"/>
				<path class="st3" d="M198.9,338.7c-1-0.7-1.2-0.5-1.2-1.8c0-2.2,1.3-2.9,3.5-2.9l0,0c0.5-1.7,2.1-3,3.9-3c1.9,0,3.5,1.3,3.9,3
					l-0.1-0.2c0.3,0,0.5-0.1,0.8-0.1c3,0,4.9,0,4.9,3c0,1.4,0,1.5-0.9,2.4"/>
				<path class="st3" d="M214,343.5h2.3c1.3,0,2.3,1,2.3,2.3v7.7c0,1.3-1,2.3-2.3,2.3H214"/>
				<line class="st2" x1="202.5" y1="343.5" x2="202.5" y2="358"/>
				<line class="st2" x1="206.3" y1="343.5" x2="206.3" y2="358"/>
				<line class="st2" x1="210.1" y1="343.5" x2="210.1" y2="358"/>
			</g>
			<g id="Donut_2_">
				<circle class="st2" cx="300.7" cy="300.9" r="15.5"/>
				<circle class="st2" cx="300.7" cy="300.9" r="6.2"/>
				<path class="st4" d="M306.9,300.9c0,3.4-2.8,6.2-6.2,6.2c-3.4,0-6.2-2.8-6.2-6.2c0-3.4,2.8-6.2,6.2-6.2
					C304.1,294.7,306.9,297.5,306.9,300.9z M296.3,288.9c-1.9,0-2.3,0.3-3.4,1.3c-1.1,1-0.7,2.6-1.3,3.6c-0.5,1-2.5,1.5-3.3,2.6
					c-0.7,1.1,1,2.7,0.7,4.5c-0.2,1.7-0.7,2.4-0.4,4.4c0.4,1.9,2.6,0.9,3.4,1.8c0.8,0.9,0,1.4,0,3s2.7,1.8,4.7,1.7
					c1.9-0.1,2.1,1.7,3.5,2.1s2.5-0.4,3-1.4c0.4-1,2-0.8,3.2-0.7s2-0.6,2.2-1.7c0.2-1.1,1.8-2.4,3.2-3c1.4-0.6,1.6-2.8,1-3.7
					c-0.5-0.9-0.9-2.9-0.2-4.7c0.7-1.8-0.2-2.4-1-3.3s-1.3-1.5-1.6-3.2c-0.2-1.7-1.7-1.6-2.7-2.4c-1-0.7-1.9,0.2-3.1-0.4
					s-2.2-1.5-3.1-1.9C299.6,286.8,298.2,288.9,296.3,288.9z"/>
			</g>
			<g id="Cookie_2_">
				<path class="st2" d="M312.4,389.6c-3.4-1-6-4.1-6-7.9c0-0.9,0.1-1.7,0.4-2.5l-0.2-0.1c-1.9-0.8-3.9-1.2-6-1.2
					c-8.6,0-15.5,6.9-15.5,15.5s6.9,15.5,15.5,15.5c7.8,0,14.2-5.7,15.3-13.2l0,0c-2.1-1-3.6-3.1-3.6-5.6
					C312.4,389.9,312.4,389.7,312.4,389.6L312.4,389.6z"/>
				<circle class="st4" cx="299" cy="393.2" r="2.4"/>
				<circle class="st4" cx="309.8" cy="399" r="2.1"/>
				<circle class="st4" cx="293.2" cy="386.4" r="1.8"/>
				<circle class="st4" cx="299.6" cy="407.1" r="1.8"/>
				<circle class="st4" cx="307.3" cy="391.6" r="1.5"/>
				<circle class="st4" cx="290.8" cy="397.2" r="1.7"/>
				<circle class="st4" cx="301.9" cy="381.6" r="1.2"/>
				<circle class="st4" cx="301.8" cy="399.3" r="0.8"/>
			</g>
			<g id="Tree_2_">
				<polygon class="st3" points="346.9,270 348.6,270 348.6,266.6 353.3,266.6 355.9,266.6 351.4,257.4 351.1,257.4 353.6,257.4 
					349.2,248.3 348.9,248.3 351.4,248.3 346.9,239.1 342.4,248.3 345,248.3 344.7,248.3 340.2,257.4 342.7,257.4 342.4,257.4 
					338,266.6 340.5,266.6 345.3,266.6 345.3,270 				"/>
				<line class="st3" x1="343" y1="266.6" x2="351.8" y2="266.6"/>
			</g>
			<path id="Heart_2_" class="st1" d="M346.9,313.1L358,302c1.4-1.4,2.3-3.4,2.3-5.5c0-4.3-3.5-7.8-7.8-7.8c-2.2,0-4.1,0.9-5.5,2.3
				c-1.4-1.4-3.4-2.3-5.5-2.3c-4.3,0-7.8,3.5-7.8,7.8c0,2.2,0.9,4.1,2.3,5.5L346.9,313.1z"/>
			<polygon id="Lightning_2_" class="st2" points="346.6,348.4 342,362 353.8,346.3 347.3,346.3 347.3,346.3 351.9,332.7 340,348.4 
				346.5,348.4 			"/>
			<g id="Hat_2_">
				<path class="st2" d="M330.7,399.3c-2.2-12.9,1.8-15.7,9.7-17.3c8-1.6,11.9,1.6,12.4,2.6c0.5,1.1,3,8.8,3,8.8s4.5,3.3,5.5,4
					c1,0.6,3.2,1.1,2.4,4.1c-0.8,3-2,2.3-2.7,2c-1.3-0.5-4.9-3.7-4.9-3.7c-1.8,1.2-5.5,3.8-7.8,4.8c-2.3,1-5.1,0.7-6.7,0
					c-1.6-0.7-6.3-4-7.6-5.3H330.7z"/>
				<path class="st2" d="M334.1,399.2c2.1-1.1,10.1-4.7,21.7-5.9"/>
				<path class="st2" d="M339.9,382c-2.8,1.5-8.4,3.3-3.9,16.3"/>
				<path class="st2" d="M356.1,399.8c2-1.2,4.5-2.9,6.5-1.7"/>
			</g>
			<g id="Watch_2_">
				<circle class="st1" cx="347" cy="439.7" r="7.2"/>
				<path class="st2" d="M342,446.4c-0.8-0.6-1.4-1.3-2-2"/>
				<path class="st2" d="M353.7,444.6c-0.5,0.6-1,1.2-1.6,1.6"/>
				<path class="st2" d="M351.9,432.9c0.7,0.5,1.3,1.1,1.8,1.8"/>
				<path class="st2" d="M340.2,434.7c0.6-0.8,1.3-1.4,2-2"/>
				<line class="st2" x1="347" y1="439.7" x2="347" y2="435.2"/>
				<line class="st2" x1="347" y1="439.7" x2="349.6" y2="439.7"/>
				<polyline class="st2" points="349.7,432.7 349.7,420.9 344.2,420.9 344.2,432.7 				"/>
				<polyline class="st2" points="349.7,446.6 349.7,458.5 344.2,458.5 344.2,446.6 				"/>
				<line class="st2" x1="347" y1="423.8" x2="347" y2="424.2"/>
				<line class="st2" x1="347" y1="426.7" x2="347" y2="427.1"/>
			</g>
			<path class="st2" d="M337.6,497.5h21.2c2.5,0,4.4-2,4.4-4.4s-2-4.4-4.4-4.4c-0.1,0-0.2,0-0.3,0l0,0c0.2-0.9,0.3-1.7,0.3-2.7
				c0-6.4-5.2-11.5-11.5-11.5c-5.7,0-10.4,4.1-11.4,9.6l0,0c-3,0.8-5.2,3.4-5.2,6.7C330.7,494.5,333.8,497.5,337.6,497.5z"/>
			<path class="st2" d="M359.8,542.1h-27.6c-2.2,0-3.9-1.8-3.9-3.9c0-2.2,1.8-3.9,3.9-3.9c0.1,0,0.1,0,0.2,0l0,0
				c-0.1-0.6-0.2-1.2-0.2-1.9c0-5.4,4.4-9.7,9.7-9.7s9.7,4.4,9.7,9.7c0,0.1,0,0.2,0,0.4l0,0c0.6-0.2,1.2-0.4,1.9-0.4
				c0.5,0,1,0.1,1.5,0.2l0,0c1.1-1.4,2.8-2.4,4.7-2.4c3.3,0,5.9,2.7,5.9,5.9S363,542.1,359.8,542.1z"/>
		</g>
	</g>
</g>
</svg>
