<?xml version="1.0" encoding="utf-8"?>
<!-- Generator: Adobe Illustrator 24.0.1, SVG Export Plug-In . SVG Version: 6.00 Build 0)  -->
<svg version="1.1" xmlns="http://www.w3.org/2000/svg" xmlns:xlink="http://www.w3.org/1999/xlink" x="0px" y="0px"
	 viewBox="0 0 1080 360" style="enable-background:new 0 0 1080 360;" xml:space="preserve">
<style type="text/css">
	.st0{fill:none;}
	.st1{fill:#303030;}
	.st2{fill:#FFFFFF;stroke:#FFFFFF;stroke-width:2.1857;stroke-linecap:round;stroke-linejoin:round;stroke-miterlimit:10;}
	.st3{fill:#FFFFFF;stroke:#FFFFFF;stroke-width:0.5479;stroke-linecap:round;stroke-linejoin:round;stroke-miterlimit:10;}
	.st4{display:none;}
	.st5{display:inline;}
	.st6{fill:#FFFFFF;}
	.st7{display:inline;fill:url(#SVGID_1_);}
	.st8{fill:url(#SVGID_2_);}
</style>
<pattern  width="360" height="360" patternUnits="userSpaceOnUse" id="Lightning" viewBox="0 -360 360 360" style="overflow:visible;">
	<g>
		<rect y="-360" class="st0" width="360" height="360"/>
		<rect x="0" y="-360" class="st1" width="360" height="360"/>
		<polygon id="Lightning_16_" class="st2" points="83.84,-222.6 103.64,-258.49 88.23,-258.48 103.64,-287.67 87.78,-287.69 
			96.15,-317.62 76.35,-280.35 92.04,-280.35 76.35,-251.33 92.21,-251.33 		"/>
		<polygon id="Lightning_15_" class="st2" points="263.83,-222.6 283.64,-258.49 268.22,-258.48 283.64,-287.67 267.78,-287.69 
			276.15,-317.62 256.34,-280.35 272.03,-280.35 256.34,-251.33 272.2,-251.33 		"/>
		<polygon id="Lightning_14_" class="st2" points="83.84,-42.6 103.64,-78.49 88.23,-78.48 103.64,-107.67 87.78,-107.69 
			96.15,-137.62 76.35,-100.35 92.04,-100.35 76.35,-71.33 92.21,-71.33 		"/>
		<polygon id="Lightning_13_" class="st2" points="263.83,-42.6 283.64,-78.49 268.22,-78.48 283.64,-107.67 267.78,-107.69 
			276.15,-137.62 256.34,-100.35 272.03,-100.35 256.34,-71.33 272.2,-71.33 		"/>
	</g>
</pattern>
<pattern  width="360.24" height="360.14" patternUnits="userSpaceOnUse" id="LightningBolts" viewBox="0 -360.14 360.24 360.14" style="overflow:visible;">
	<g>
		<rect y="-360.14" class="st0" width="360.24" height="360.14"/>
		<rect x="0" y="-360.14" class="st1" width="90.25" height="90.25"/>
		<polygon id="Lightning_328_" class="st3" points="21.02,-325.7 25.98,-334.69 22.12,-334.69 25.98,-342.01 22.01,-342.01 
			24.1,-349.52 19.14,-340.17 23.07,-340.17 19.14,-332.9 23.12,-332.9 		"/>
		<polygon id="Lightning_327_" class="st3" points="66.14,-325.7 71.11,-334.69 67.24,-334.69 71.11,-342.01 67.13,-342.01 
			69.23,-349.52 64.26,-340.17 68.2,-340.17 64.26,-332.9 68.24,-332.9 		"/>
		<polygon id="Lightning_326_" class="st3" points="21.02,-280.57 25.98,-289.57 22.12,-289.57 25.98,-296.88 22.01,-296.89 
			24.1,-304.39 19.14,-295.05 23.07,-295.05 19.14,-287.77 23.12,-287.77 		"/>
		<polygon id="Lightning_325_" class="st3" points="66.14,-280.57 71.11,-289.57 67.24,-289.57 71.11,-296.88 67.13,-296.89 
			69.23,-304.39 64.26,-295.05 68.2,-295.05 64.26,-287.77 68.24,-287.77 		"/>
		<rect x="89.87" y="-360.14" class="st1" width="90.25" height="90.25"/>
		<polygon id="Lightning_324_" class="st3" points="110.89,-325.7 115.85,-334.69 111.99,-334.69 115.85,-342.01 111.88,-342.01 
			113.97,-349.52 109.01,-340.17 112.94,-340.17 109.01,-332.9 112.99,-332.9 		"/>
		<polygon id="Lightning_323_" class="st3" points="156.01,-325.7 160.98,-334.69 157.11,-334.69 160.98,-342.01 157,-342.01 
			159.1,-349.52 154.13,-340.17 158.07,-340.17 154.13,-332.9 158.11,-332.9 		"/>
		<polygon id="Lightning_322_" class="st3" points="110.89,-280.57 115.85,-289.57 111.99,-289.57 115.85,-296.88 111.88,-296.89 
			113.97,-304.39 109.01,-295.05 112.94,-295.05 109.01,-287.77 112.99,-287.77 		"/>
		<polygon id="Lightning_321_" class="st3" points="156.01,-280.57 160.98,-289.57 157.11,-289.57 160.98,-296.88 157,-296.89 
			159.1,-304.39 154.13,-295.05 158.07,-295.05 154.13,-287.77 158.11,-287.77 		"/>
		<rect x="180" y="-360.14" class="st1" width="90.25" height="90.25"/>
		<polygon id="Lightning_320_" class="st3" points="201.02,-325.7 205.98,-334.69 202.12,-334.69 205.98,-342.01 202.01,-342.01 
			204.1,-349.52 199.14,-340.17 203.07,-340.17 199.14,-332.9 203.12,-332.9 		"/>
		<polygon id="Lightning_319_" class="st3" points="246.14,-325.7 251.11,-334.69 247.24,-334.69 251.11,-342.01 247.13,-342.01 
			249.23,-349.52 244.26,-340.17 248.2,-340.17 244.26,-332.9 248.24,-332.9 		"/>
		<polygon id="Lightning_318_" class="st3" points="201.02,-280.57 205.98,-289.57 202.12,-289.57 205.98,-296.88 202.01,-296.89 
			204.1,-304.39 199.14,-295.05 203.07,-295.05 199.14,-287.77 203.12,-287.77 		"/>
		<polygon id="Lightning_317_" class="st3" points="246.14,-280.57 251.11,-289.57 247.24,-289.57 251.11,-296.88 247.13,-296.89 
			249.23,-304.39 244.26,-295.05 248.2,-295.05 244.26,-287.77 248.24,-287.77 		"/>
		<rect x="269.99" y="-360.14" class="st1" width="90.25" height="90.25"/>
		<polygon id="Lightning_316_" class="st3" points="291.01,-325.7 295.97,-334.69 292.11,-334.69 295.97,-342.01 292,-342.01 
			294.09,-349.52 289.13,-340.17 293.06,-340.17 289.13,-332.9 293.1,-332.9 		"/>
		<polygon id="Lightning_315_" class="st3" points="336.13,-325.7 341.1,-334.69 337.23,-334.69 341.1,-342.01 337.12,-342.01 
			339.22,-349.52 334.25,-340.17 338.19,-340.17 334.25,-332.9 338.23,-332.9 		"/>
		<polygon id="Lightning_314_" class="st3" points="291.01,-280.57 295.97,-289.57 292.11,-289.57 295.97,-296.88 292,-296.89 
			294.09,-304.39 289.13,-295.05 293.06,-295.05 289.13,-287.77 293.1,-287.77 		"/>
		<polygon id="Lightning_313_" class="st3" points="336.13,-280.57 341.1,-289.57 337.23,-289.57 341.1,-296.88 337.12,-296.89 
			339.22,-304.39 334.25,-295.05 338.19,-295.05 334.25,-287.77 338.23,-287.77 		"/>
		<rect x="0" y="-270.32" class="st1" width="90.25" height="90.25"/>
		<polygon id="Lightning_312_" class="st3" points="21.02,-235.88 25.98,-244.87 22.12,-244.87 25.98,-252.19 22.01,-252.19 
			24.1,-259.7 19.14,-250.35 23.07,-250.35 19.14,-243.08 23.12,-243.08 		"/>
		<polygon id="Lightning_311_" class="st3" points="66.14,-235.88 71.11,-244.87 67.24,-244.87 71.11,-252.19 67.13,-252.19 
			69.23,-259.7 64.26,-250.35 68.2,-250.35 64.26,-243.08 68.24,-243.08 		"/>
		<polygon id="Lightning_310_" class="st3" points="21.02,-190.75 25.98,-199.75 22.12,-199.74 25.98,-207.06 22.01,-207.07 
			24.1,-214.57 19.14,-205.23 23.07,-205.23 19.14,-197.95 23.12,-197.95 		"/>
		<polygon id="Lightning_309_" class="st3" points="66.14,-190.75 71.11,-199.75 67.24,-199.74 71.11,-207.06 67.13,-207.07 
			69.23,-214.57 64.26,-205.23 68.2,-205.23 64.26,-197.95 68.24,-197.95 		"/>
		<rect x="89.87" y="-270.32" class="st1" width="90.25" height="90.25"/>
		<polygon id="Lightning_308_" class="st3" points="110.89,-235.88 115.85,-244.87 111.99,-244.87 115.85,-252.19 111.88,-252.19 
			113.97,-259.7 109.01,-250.35 112.94,-250.35 109.01,-243.08 112.99,-243.08 		"/>
		<polygon id="Lightning_307_" class="st3" points="156.01,-235.88 160.98,-244.87 157.11,-244.87 160.98,-252.19 157,-252.19 
			159.1,-259.7 154.13,-250.35 158.07,-250.35 154.13,-243.08 158.11,-243.08 		"/>
		<polygon id="Lightning_306_" class="st3" points="110.89,-190.75 115.85,-199.75 111.99,-199.74 115.85,-207.06 111.88,-207.07 
			113.97,-214.57 109.01,-205.23 112.94,-205.23 109.01,-197.95 112.99,-197.95 		"/>
		<polygon id="Lightning_305_" class="st3" points="156.01,-190.75 160.98,-199.75 157.11,-199.74 160.98,-207.06 157,-207.07 
			159.1,-214.57 154.13,-205.23 158.07,-205.23 154.13,-197.95 158.11,-197.95 		"/>
		<rect x="180" y="-270.32" class="st1" width="90.25" height="90.25"/>
		<polygon id="Lightning_304_" class="st3" points="201.02,-235.88 205.98,-244.87 202.12,-244.87 205.98,-252.19 202.01,-252.19 
			204.1,-259.7 199.14,-250.35 203.07,-250.35 199.14,-243.08 203.12,-243.08 		"/>
		<polygon id="Lightning_303_" class="st3" points="246.14,-235.88 251.11,-244.87 247.24,-244.87 251.11,-252.19 247.13,-252.19 
			249.23,-259.7 244.26,-250.35 248.2,-250.35 244.26,-243.08 248.24,-243.08 		"/>
		<polygon id="Lightning_302_" class="st3" points="201.02,-190.75 205.98,-199.75 202.12,-199.74 205.98,-207.06 202.01,-207.07 
			204.1,-214.57 199.14,-205.23 203.07,-205.23 199.14,-197.95 203.12,-197.95 		"/>
		<polygon id="Lightning_301_" class="st3" points="246.14,-190.75 251.11,-199.75 247.24,-199.74 251.11,-207.06 247.13,-207.07 
			249.23,-214.57 244.26,-205.23 248.2,-205.23 244.26,-197.95 248.24,-197.95 		"/>
		<rect x="269.99" y="-270.32" class="st1" width="90.25" height="90.25"/>
		<polygon id="Lightning_300_" class="st3" points="291.01,-235.88 295.97,-244.87 292.11,-244.87 295.97,-252.19 292,-252.19 
			294.09,-259.7 289.13,-250.35 293.06,-250.35 289.13,-243.08 293.1,-243.08 		"/>
		<polygon id="Lightning_299_" class="st3" points="336.13,-235.88 341.1,-244.87 337.23,-244.87 341.1,-252.19 337.12,-252.19 
			339.22,-259.7 334.25,-250.35 338.19,-250.35 334.25,-243.08 338.23,-243.08 		"/>
		<polygon id="Lightning_298_" class="st3" points="291.01,-190.75 295.97,-199.75 292.11,-199.74 295.97,-207.06 292,-207.07 
			294.09,-214.57 289.13,-205.23 293.06,-205.23 289.13,-197.95 293.1,-197.95 		"/>
		<polygon id="Lightning_297_" class="st3" points="336.13,-190.75 341.1,-199.75 337.23,-199.74 341.1,-207.06 337.12,-207.07 
			339.22,-214.57 334.25,-205.23 338.19,-205.23 334.25,-197.95 338.23,-197.95 		"/>
		<rect x="0" y="-180.14" class="st1" width="90.25" height="90.25"/>
		<polygon id="Lightning_296_" class="st3" points="21.02,-145.7 25.98,-154.69 22.12,-154.69 25.98,-162.01 22.01,-162.01 
			24.1,-169.52 19.14,-160.17 23.07,-160.17 19.14,-152.9 23.12,-152.9 		"/>
		<polygon id="Lightning_295_" class="st3" points="66.14,-145.7 71.11,-154.69 67.24,-154.69 71.11,-162.01 67.13,-162.01 
			69.23,-169.52 64.26,-160.17 68.2,-160.17 64.26,-152.9 68.24,-152.9 		"/>
		<polygon id="Lightning_294_" class="st3" points="21.02,-100.57 25.98,-109.57 22.12,-109.57 25.98,-116.88 22.01,-116.89 
			24.1,-124.39 19.14,-115.05 23.07,-115.05 19.14,-107.77 23.12,-107.77 		"/>
		<polygon id="Lightning_293_" class="st3" points="66.14,-100.57 71.11,-109.57 67.24,-109.57 71.11,-116.88 67.13,-116.89 
			69.23,-124.39 64.26,-115.05 68.2,-115.05 64.26,-107.77 68.24,-107.77 		"/>
		<rect x="89.87" y="-180.14" class="st1" width="90.25" height="90.25"/>
		<polygon id="Lightning_292_" class="st3" points="110.89,-145.7 115.85,-154.69 111.99,-154.69 115.85,-162.01 111.88,-162.01 
			113.97,-169.52 109.01,-160.17 112.94,-160.17 109.01,-152.9 112.99,-152.9 		"/>
		<polygon id="Lightning_291_" class="st3" points="156.01,-145.7 160.98,-154.69 157.11,-154.69 160.98,-162.01 157,-162.01 
			159.1,-169.52 154.13,-160.17 158.07,-160.17 154.13,-152.9 158.11,-152.9 		"/>
		<polygon id="Lightning_290_" class="st3" points="110.89,-100.57 115.85,-109.57 111.99,-109.57 115.85,-116.88 111.88,-116.89 
			113.97,-124.39 109.01,-115.05 112.94,-115.05 109.01,-107.77 112.99,-107.77 		"/>
		<polygon id="Lightning_289_" class="st3" points="156.01,-100.57 160.98,-109.57 157.11,-109.57 160.98,-116.88 157,-116.89 
			159.1,-124.39 154.13,-115.05 158.07,-115.05 154.13,-107.77 158.11,-107.77 		"/>
		<rect x="180" y="-180.14" class="st1" width="90.25" height="90.25"/>
		<polygon id="Lightning_288_" class="st3" points="201.02,-145.7 205.98,-154.69 202.12,-154.69 205.98,-162.01 202.01,-162.01 
			204.1,-169.52 199.14,-160.17 203.07,-160.17 199.14,-152.9 203.12,-152.9 		"/>
		<polygon id="Lightning_287_" class="st3" points="246.14,-145.7 251.11,-154.69 247.24,-154.69 251.11,-162.01 247.13,-162.01 
			249.23,-169.52 244.26,-160.17 248.2,-160.17 244.26,-152.9 248.24,-152.9 		"/>
		<polygon id="Lightning_286_" class="st3" points="201.02,-100.57 205.98,-109.57 202.12,-109.57 205.98,-116.88 202.01,-116.89 
			204.1,-124.39 199.14,-115.05 203.07,-115.05 199.14,-107.77 203.12,-107.77 		"/>
		<polygon id="Lightning_285_" class="st3" points="246.14,-100.57 251.11,-109.57 247.24,-109.57 251.11,-116.88 247.13,-116.89 
			249.23,-124.39 244.26,-115.05 248.2,-115.05 244.26,-107.77 248.24,-107.77 		"/>
		<rect x="269.99" y="-180.14" class="st1" width="90.25" height="90.25"/>
		<polygon id="Lightning_284_" class="st3" points="291.01,-145.7 295.97,-154.69 292.11,-154.69 295.97,-162.01 292,-162.01 
			294.09,-169.52 289.13,-160.17 293.06,-160.17 289.13,-152.9 293.1,-152.9 		"/>
		<polygon id="Lightning_283_" class="st3" points="336.13,-145.7 341.1,-154.69 337.23,-154.69 341.1,-162.01 337.12,-162.01 
			339.22,-169.52 334.25,-160.17 338.19,-160.17 334.25,-152.9 338.23,-152.9 		"/>
		<polygon id="Lightning_282_" class="st3" points="291.01,-100.57 295.97,-109.57 292.11,-109.57 295.97,-116.88 292,-116.89 
			294.09,-124.39 289.13,-115.05 293.06,-115.05 289.13,-107.77 293.1,-107.77 		"/>
		<polygon id="Lightning_281_" class="st3" points="336.13,-100.57 341.1,-109.57 337.23,-109.57 341.1,-116.88 337.12,-116.89 
			339.22,-124.39 334.25,-115.05 338.19,-115.05 334.25,-107.77 338.23,-107.77 		"/>
		<rect x="0" y="-90.25" class="st1" width="90.25" height="90.25"/>
		<polygon id="Lightning_280_" class="st3" points="21.02,-55.8 25.98,-64.8 22.12,-64.8 25.98,-72.12 22.01,-72.12 24.1,-79.62 
			19.14,-70.28 23.07,-70.28 19.14,-63.01 23.12,-63.01 		"/>
		<polygon id="Lightning_279_" class="st3" points="66.14,-55.8 71.11,-64.8 67.24,-64.8 71.11,-72.12 67.13,-72.12 69.23,-79.62 
			64.26,-70.28 68.2,-70.28 64.26,-63.01 68.24,-63.01 		"/>
		<polygon id="Lightning_278_" class="st3" points="21.02,-10.68 25.98,-19.68 22.12,-19.67 25.98,-26.99 22.01,-27 24.1,-34.5 
			19.14,-25.16 23.07,-25.16 19.14,-17.88 23.12,-17.88 		"/>
		<polygon id="Lightning_277_" class="st3" points="66.14,-10.68 71.11,-19.68 67.24,-19.67 71.11,-26.99 67.13,-27 69.23,-34.5 
			64.26,-25.16 68.2,-25.16 64.26,-17.88 68.24,-17.88 		"/>
		<rect x="89.87" y="-90.25" class="st1" width="90.25" height="90.25"/>
		<polygon id="Lightning_276_" class="st3" points="110.89,-55.8 115.85,-64.8 111.99,-64.8 115.85,-72.12 111.88,-72.12 
			113.97,-79.62 109.01,-70.28 112.94,-70.28 109.01,-63.01 112.99,-63.01 		"/>
		<polygon id="Lightning_275_" class="st3" points="156.01,-55.8 160.98,-64.8 157.11,-64.8 160.98,-72.12 157,-72.12 159.1,-79.62 
			154.13,-70.28 158.07,-70.28 154.13,-63.01 158.11,-63.01 		"/>
		<polygon id="Lightning_274_" class="st3" points="110.89,-10.68 115.85,-19.68 111.99,-19.67 115.85,-26.99 111.88,-27 
			113.97,-34.5 109.01,-25.16 112.94,-25.16 109.01,-17.88 112.99,-17.88 		"/>
		<polygon id="Lightning_273_" class="st3" points="156.01,-10.68 160.98,-19.68 157.11,-19.67 160.98,-26.99 157,-27 159.1,-34.5 
			154.13,-25.16 158.07,-25.16 154.13,-17.88 158.11,-17.88 		"/>
		<rect x="180" y="-90.25" class="st1" width="90.25" height="90.25"/>
		<polygon id="Lightning_272_" class="st3" points="201.02,-55.8 205.98,-64.8 202.12,-64.8 205.98,-72.12 202.01,-72.12 
			204.1,-79.62 199.14,-70.28 203.07,-70.28 199.14,-63.01 203.12,-63.01 		"/>
		<polygon id="Lightning_271_" class="st3" points="246.14,-55.8 251.11,-64.8 247.24,-64.8 251.11,-72.12 247.13,-72.12 
			249.23,-79.62 244.26,-70.28 248.2,-70.28 244.26,-63.01 248.24,-63.01 		"/>
		<polygon id="Lightning_270_" class="st3" points="201.02,-10.68 205.98,-19.68 202.12,-19.67 205.98,-26.99 202.01,-27 
			204.1,-34.5 199.14,-25.16 203.07,-25.16 199.14,-17.88 203.12,-17.88 		"/>
		<polygon id="Lightning_269_" class="st3" points="246.14,-10.68 251.11,-19.68 247.24,-19.67 251.11,-26.99 247.13,-27 
			249.23,-34.5 244.26,-25.16 248.2,-25.16 244.26,-17.88 248.24,-17.88 		"/>
		<rect x="269.99" y="-90.25" class="st1" width="90.25" height="90.25"/>
		<polygon id="Lightning_268_" class="st3" points="291.01,-55.8 295.97,-64.8 292.11,-64.8 295.97,-72.12 292,-72.12 
			294.09,-79.62 289.13,-70.28 293.06,-70.28 289.13,-63.01 293.1,-63.01 		"/>
		<polygon id="Lightning_267_" class="st3" points="336.13,-55.8 341.1,-64.8 337.23,-64.8 341.1,-72.12 337.12,-72.12 
			339.22,-79.62 334.25,-70.28 338.19,-70.28 334.25,-63.01 338.23,-63.01 		"/>
		<polygon id="Lightning_266_" class="st3" points="291.01,-10.68 295.97,-19.68 292.11,-19.67 295.97,-26.99 292,-27 294.09,-34.5 
			289.13,-25.16 293.06,-25.16 289.13,-17.88 293.1,-17.88 		"/>
		<polygon id="Lightning_265_" class="st3" points="336.13,-10.68 341.1,-19.68 337.23,-19.67 341.1,-26.99 337.12,-27 
			339.22,-34.5 334.25,-25.16 338.19,-25.16 334.25,-17.88 338.23,-17.88 		"/>
	</g>
</pattern>
<g id="Layer_1" class="st4">
	<g class="st5">
		<rect x="0.5" y="0.5" class="st6" width="1079" height="359"/>
		<path d="M1079,1v358H1V1H1079 M1080,0H0v360h1080V0L1080,0z"/>
	</g>
	<pattern  id="SVGID_1_" xlink:href="#Lightning" patternTransform="matrix(1 0 0 1 360 0)">
	</pattern>
	<rect x="0" y="-0.09" class="st7" width="1079.5" height="360"/>
</g>
<g id="Layer_2">
	<pattern  id="SVGID_2_" xlink:href="#LightningBolts" patternTransform="matrix(1 0 0 1 360 0)">
	</pattern>
	<rect x="0" class="st8" width="1080" height="360"/>
</g>
</svg>
