<?xml version="1.0" encoding="utf-8"?>
<!-- Generator: Adobe Illustrator 17.1.0, SVG Export Plug-In . SVG Version: 6.00 Build 0)  -->
<!DOCTYPE svg PUBLIC "-//W3C//DTD SVG 1.1//EN" "http://www.w3.org/Graphics/SVG/1.1/DTD/svg11.dtd">
<svg version="1.1" id="Layer_1" xmlns="http://www.w3.org/2000/svg" xmlns:xlink="http://www.w3.org/1999/xlink" x="0px" y="0px"
	 viewBox="0 0 1152 648" enable-background="new 0 0 1152 648" xml:space="preserve">
<image display="none" overflow="visible" width="940" height="543" xlink:href="DFB8A1D1.jpg"  transform="matrix(1.2275 0 0 1.2275 0 0)">
</image>
<g opacity="0.3">
	<linearGradient id="SVGID_1_" gradientUnits="userSpaceOnUse" x1="93.0783" y1="129.3455" x2="34.231" y2="-16.3065">
		<stop  offset="0" style="stop-color:#FFFFFF"/>
		<stop  offset="1" style="stop-color:#000000"/>
	</linearGradient>
	<polygon opacity="0.07" fill="url(#SVGID_1_)" points="76.8435,135.9048 118.391,-7.2007 -0.7075,-2.1905 -2.068,93.0476 	"/>
	<linearGradient id="SVGID_2_" gradientUnits="userSpaceOnUse" x1="135.0939" y1="258.2323" x2="245.854" y2="66.3901">
		<stop  offset="0" style="stop-color:#FFFFFF"/>
		<stop  offset="1" style="stop-color:#000000"/>
	</linearGradient>
	<polygon opacity="0.09" fill="url(#SVGID_2_)" points="262.5569,331.8231 76.8435,135.9048 118.391,-7.2007 	"/>
	<linearGradient id="SVGID_3_" gradientUnits="userSpaceOnUse" x1="-22.0979" y1="161.0222" x2="70.7721" y2="121.6013">
		<stop  offset="0" style="stop-color:#FFFFFF"/>
		<stop  offset="1" style="stop-color:#000000"/>
	</linearGradient>
	<polygon opacity="0.11" fill="url(#SVGID_3_)" points="-0.7075,211.415 76.8435,135.9048 -2.068,93.0476 	"/>
	<linearGradient id="SVGID_4_" gradientUnits="userSpaceOnUse" x1="6.9985" y1="183.0158" x2="80.5079" y2="291.9979">
		<stop  offset="0" style="stop-color:#FFFFFF"/>
		<stop  offset="1" style="stop-color:#000000"/>
	</linearGradient>
	<polygon opacity="0.08" fill="url(#SVGID_4_)" points="76.8435,135.9048 55.7551,308.6939 -3.4286,318.2177 -0.7075,211.415 	"/>
	<linearGradient id="SVGID_5_" gradientUnits="userSpaceOnUse" x1="55.7551" y1="233.864" x2="262.5569" y2="233.864">
		<stop  offset="0" style="stop-color:#FFFFFF"/>
		<stop  offset="1" style="stop-color:#000000"/>
	</linearGradient>
	<polygon opacity="0.21" fill="url(#SVGID_5_)" points="262.5569,331.8231 55.7551,308.6939 76.8435,135.9048 	"/>
	<linearGradient id="SVGID_6_" gradientUnits="userSpaceOnUse" x1="151.105" y1="194.1916" x2="306.602" y2="68.2726">
		<stop  offset="0" style="stop-color:#FFFFFF"/>
		<stop  offset="1" style="stop-color:#000000"/>
	</linearGradient>
	<polygon opacity="0.09" fill="url(#SVGID_6_)" points="118.391,-7.2007 118.391,-7.2007 395.8609,178.4983 262.5569,331.8231 	"/>
	<linearGradient id="SVGID_7_" gradientUnits="userSpaceOnUse" x1="144.9925" y1="413.9675" x2="50.9878" y2="279.7148">
		<stop  offset="0" style="stop-color:#FFFFFF"/>
		<stop  offset="1" style="stop-color:#000000"/>
	</linearGradient>
	<polygon opacity="0.16" fill="url(#SVGID_7_)" points="-4,450.8708 262.3069,331.8231 55.3265,308.6939 -4,318.2177 	"/>
	<linearGradient id="SVGID_8_" gradientUnits="userSpaceOnUse" x1="145.3131" y1="450.6198" x2="287.3848" y2="390.3139">
		<stop  offset="0" style="stop-color:#FFFFFF"/>
		<stop  offset="1" style="stop-color:#000000"/>
	</linearGradient>
	<polygon opacity="0.12" fill="url(#SVGID_8_)" points="121.7415,395.0884 191.8095,499.9128 262.5569,331.8231 	"/>
	<linearGradient id="SVGID_9_" gradientUnits="userSpaceOnUse" x1="28.0128" y1="599.7866" x2="133.5222" y2="401.3524">
		<stop  offset="0" style="stop-color:#FFFFFF"/>
		<stop  offset="1" style="stop-color:#000000"/>
	</linearGradient>
	<polygon opacity="0.12" fill="url(#SVGID_9_)" points="191.8095,499.9128 107.4558,642.0272 -2.7483,535.9048 -3.5,450.8708 
		121.7415,395.0884 	"/>
	<linearGradient id="SVGID_10_" gradientUnits="userSpaceOnUse" x1="-12.1286" y1="615.6768" x2="84.7572" y2="580.4133">
		<stop  offset="0" style="stop-color:#FFFFFF"/>
		<stop  offset="1" style="stop-color:#000000"/>
	</linearGradient>
	<polygon opacity="0.14" fill="url(#SVGID_10_)" points="-2.7483,536.4048 107.4558,642.7772 104.7347,649 0,649 	"/>
	<linearGradient id="SVGID_11_" gradientUnits="userSpaceOnUse" x1="138.2317" y1="566.0759" x2="277.3991" y2="678.7714">
		<stop  offset="0" style="stop-color:#FFFFFF"/>
		<stop  offset="1" style="stop-color:#000000"/>
	</linearGradient>
	<polygon opacity="0.13" fill="url(#SVGID_11_)" points="191.8095,499.9128 302.0136,648.375 104.7347,648.5 	"/>
	<linearGradient id="SVGID_12_" gradientUnits="userSpaceOnUse" x1="358.0413" y1="54.7959" x2="156.2106" y2="116.5017">
		<stop  offset="0" style="stop-color:#FFFFFF"/>
		<stop  offset="1" style="stop-color:#000000"/>
	</linearGradient>
	<polygon opacity="0.1" fill="url(#SVGID_12_)" points="395.8609,178.4983 310.1769,0.5 118.391,-7.2007 	"/>
	<linearGradient id="SVGID_13_" gradientUnits="userSpaceOnUse" x1="314.0817" y1="246.0714" x2="504.544" y2="360.5127">
		<stop  offset="0" style="stop-color:#FFFFFF"/>
		<stop  offset="1" style="stop-color:#000000"/>
	</linearGradient>
	<polygon opacity="0.12" fill="url(#SVGID_13_)" points="395.8609,178.4983 493.1701,379.4422 262.5569,331.8231 	"/>
	<linearGradient id="SVGID_14_" gradientUnits="userSpaceOnUse" x1="359.6725" y1="466.1365" x2="269.5142" y2="327.305">
		<stop  offset="0" style="stop-color:#FFFFFF"/>
		<stop  offset="1" style="stop-color:#000000"/>
	</linearGradient>
	<polygon opacity="0.1" fill="url(#SVGID_14_)" points="493.1701,379.4422 191.8095,499.9128 262.5569,331.8231 	"/>
	<linearGradient id="SVGID_15_" gradientUnits="userSpaceOnUse" x1="493.1701" y1="453.3455" x2="191.8095" y2="453.3455">
		<stop  offset="0" style="stop-color:#FFFFFF"/>
		<stop  offset="1" style="stop-color:#000000"/>
	</linearGradient>
	<polygon opacity="0.2" fill="url(#SVGID_15_)" points="354.3946,527.2487 493.1701,379.4422 191.8095,499.9128 	"/>
	<linearGradient id="SVGID_16_" gradientUnits="userSpaceOnUse" x1="209.1695" y1="480.6326" x2="343.8557" y2="601.9047">
		<stop  offset="0" style="stop-color:#FFFFFF"/>
		<stop  offset="1" style="stop-color:#000000"/>
	</linearGradient>
	<polygon opacity="0.04" fill="url(#SVGID_16_)" points="302.0136,648.375 354.3946,527.2487 191.8095,499.9128 302.0136,648.375 	
		"/>
	<linearGradient id="SVGID_17_" gradientUnits="userSpaceOnUse" x1="403.8287" y1="584.3481" x2="300.7553" y2="646.2809">
		<stop  offset="0" style="stop-color:#FFFFFF"/>
		<stop  offset="1" style="stop-color:#000000"/>
	</linearGradient>
	<polygon opacity="0.11" fill="url(#SVGID_17_)" points="354.3946,527.2487 442.1497,648.125 302.0136,648.375 	"/>
	<linearGradient id="SVGID_18_" gradientUnits="userSpaceOnUse" x1="506.6988" y1="536.3227" x2="388.5415" y2="468.1046">
		<stop  offset="0" style="stop-color:#FFFFFF"/>
		<stop  offset="1" style="stop-color:#000000"/>
	</linearGradient>
	<polygon opacity="0.1" fill="url(#SVGID_18_)" points="493.1701,379.4422 442.1497,648.125 354.3946,527.2487 	"/>
	<linearGradient id="SVGID_19_" gradientUnits="userSpaceOnUse" x1="547.9319" y1="648.125" x2="547.9319" y2="379.4422">
		<stop  offset="0" style="stop-color:#FFFFFF"/>
		<stop  offset="1" style="stop-color:#000000"/>
	</linearGradient>
	<polygon opacity="0.17" fill="url(#SVGID_19_)" points="493.1701,379.4422 653.7143,469.5381 442.1497,648.125 	"/>
	<linearGradient id="SVGID_20_" gradientUnits="userSpaceOnUse" x1="559.9021" y1="439.528" x2="680.9746" y2="305.0633">
		<stop  offset="0" style="stop-color:#FFFFFF"/>
		<stop  offset="1" style="stop-color:#000000"/>
	</linearGradient>
	<polygon opacity="0.08" fill="url(#SVGID_20_)" points="493.1701,379.4422 685.0068,308.6939 653.7143,469.5381 	"/>
	<linearGradient id="SVGID_21_" gradientUnits="userSpaceOnUse" x1="477.0669" y1="264.8622" x2="674.9384" y2="237.0531">
		<stop  offset="0" style="stop-color:#FFFFFF"/>
		<stop  offset="1" style="stop-color:#000000"/>
	</linearGradient>
	<polygon opacity="0.17" fill="url(#SVGID_21_)" points="519.7007,142.0272 493.1701,379.4422 685.0068,308.6939 	"/>
	<linearGradient id="SVGID_22_" gradientUnits="userSpaceOnUse" x1="415.1456" y1="313.9719" x2="543.0115" y2="161.5873">
		<stop  offset="0" style="stop-color:#FFFFFF"/>
		<stop  offset="1" style="stop-color:#000000"/>
	</linearGradient>
	<polygon opacity="0.15" fill="url(#SVGID_22_)" points="519.7007,142.0272 395.8609,178.4983 493.1701,379.4422 	"/>
	<linearGradient id="SVGID_23_" gradientUnits="userSpaceOnUse" x1="439.2581" y1="196.0319" x2="510.2335" y2="20.3616">
		<stop  offset="0" style="stop-color:#FFFFFF"/>
		<stop  offset="1" style="stop-color:#000000"/>
	</linearGradient>
	<polygon opacity="0.18" fill="url(#SVGID_23_)" points="519.7007,142.0272 459.8367,0 395.8609,178.4983 	"/>
	<linearGradient id="SVGID_24_" gradientUnits="userSpaceOnUse" x1="326.5821" y1="146.1931" x2="406.3774" y2="-24.9285">
		<stop  offset="0" style="stop-color:#FFFFFF"/>
		<stop  offset="1" style="stop-color:#000000"/>
	</linearGradient>
	<polygon opacity="0.04" fill="url(#SVGID_24_)" points="395.8609,178.4983 459.8367,0 310.1769,0.5 	"/>
	<linearGradient id="SVGID_25_" gradientUnits="userSpaceOnUse" x1="480.5159" y1="-19.9696" x2="580.3736" y2="83.4361">
		<stop  offset="0" style="stop-color:#FFFFFF"/>
		<stop  offset="1" style="stop-color:#000000"/>
	</linearGradient>
	<polygon opacity="0.11" fill="url(#SVGID_25_)" points="519.7007,142.0272 614.9388,-2.1905 459.8367,0 	"/>
	<linearGradient id="SVGID_26_" gradientUnits="userSpaceOnUse" x1="519.7007" y1="69.9184" x2="843.5102" y2="69.9184">
		<stop  offset="0" style="stop-color:#FFFFFF"/>
		<stop  offset="1" style="stop-color:#000000"/>
	</linearGradient>
	<polygon opacity="0.06" fill="url(#SVGID_26_)" points="519.7007,142.0272 843.5102,0 614.9388,-2.1905 	"/>
	<linearGradient id="SVGID_27_" gradientUnits="userSpaceOnUse" x1="599.7096" y1="227.8263" x2="721.8427" y2="113.9353">
		<stop  offset="0" style="stop-color:#FFFFFF"/>
		<stop  offset="1" style="stop-color:#000000"/>
	</linearGradient>
	<polygon opacity="0.08" fill="url(#SVGID_27_)" points="685.0068,308.6939 766.1341,161.432 519.7007,142.0272 	"/>
	<linearGradient id="SVGID_28_" gradientUnits="userSpaceOnUse" x1="642.7856" y1="159.2789" x2="644.4817" y2="62.1114">
		<stop  offset="0" style="stop-color:#FFFFFF"/>
		<stop  offset="1" style="stop-color:#000000"/>
	</linearGradient>
	<polygon opacity="0.17" fill="url(#SVGID_28_)" points="702.0136,63.1156 766.1341,161.432 519.7007,142.0272 	"/>
	<linearGradient id="SVGID_29_" gradientUnits="userSpaceOnUse" x1="712.235" y1="104.4866" x2="879.3329" y2="62.8244">
		<stop  offset="0" style="stop-color:#FFFFFF"/>
		<stop  offset="1" style="stop-color:#000000"/>
	</linearGradient>
	<polygon opacity="0.05" fill="url(#SVGID_29_)" points="766.1341,161.682 863.9184,1 844,1 702.0136,63.4906 	"/>
	<linearGradient id="SVGID_30_" gradientUnits="userSpaceOnUse" x1="685.0068" y1="242.2058" x2="882.966" y2="242.2058">
		<stop  offset="0" style="stop-color:#FFFFFF"/>
		<stop  offset="1" style="stop-color:#000000"/>
	</linearGradient>
	<polygon opacity="0.16" fill="url(#SVGID_30_)" points="685.0068,308.6939 882.966,322.9796 766.1341,161.432 	"/>
	<linearGradient id="SVGID_31_" gradientUnits="userSpaceOnUse" x1="543.3271" y1="552.7208" x2="621.9503" y2="657.0572">
		<stop  offset="0" style="stop-color:#FFFFFF"/>
		<stop  offset="1" style="stop-color:#000000"/>
	</linearGradient>
	<polygon opacity="0.1" fill="url(#SVGID_31_)" points="442.1497,648.125 653.7143,469.5381 633.3062,648.5 	"/>
	<linearGradient id="SVGID_32_" gradientUnits="userSpaceOnUse" x1="633.3062" y1="559.019" x2="827.1837" y2="559.019">
		<stop  offset="0" style="stop-color:#FFFFFF"/>
		<stop  offset="1" style="stop-color:#000000"/>
	</linearGradient>
	<polygon opacity="0.14" fill="url(#SVGID_32_)" points="653.7143,469.5381 827.1837,648.125 633.3062,648.5 	"/>
	<linearGradient id="SVGID_33_" gradientUnits="userSpaceOnUse" x1="706.7817" y1="527.723" x2="805.4088" y2="429.0959">
		<stop  offset="0" style="stop-color:#FFFFFF"/>
		<stop  offset="1" style="stop-color:#000000"/>
	</linearGradient>
	<polygon opacity="0.16" fill="url(#SVGID_33_)" points="685.0068,308.6939 827.1837,648.125 653.7143,469.5381 	"/>
	<linearGradient id="SVGID_34_" gradientUnits="userSpaceOnUse" x1="798.9548" y1="644.6589" x2="837.9011" y2="327.4669">
		<stop  offset="0" style="stop-color:#FFFFFF"/>
		<stop  offset="1" style="stop-color:#000000"/>
	</linearGradient>
	<polygon opacity="0.12" fill="url(#SVGID_34_)" points="970.7211,509.7313 827.1837,648.125 685.0068,308.6939 	"/>
	<linearGradient id="SVGID_35_" gradientUnits="userSpaceOnUse" x1="982.7402" y1="424.2112" x2="674.8532" y2="380.9405">
		<stop  offset="0" style="stop-color:#FFFFFF"/>
		<stop  offset="1" style="stop-color:#000000"/>
	</linearGradient>
	<polygon opacity="0.04" fill="url(#SVGID_35_)" points="882.966,322.9796 970.7211,509.7313 685.0068,308.6939 	"/>
	<linearGradient id="SVGID_36_" gradientUnits="userSpaceOnUse" x1="827.1837" y1="579.1157" x2="1040.1089" y2="579.1157">
		<stop  offset="0" style="stop-color:#FFFFFF"/>
		<stop  offset="1" style="stop-color:#000000"/>
	</linearGradient>
	<polygon opacity="0.06" fill="url(#SVGID_36_)" points="827.1837,648.125 970.7211,509.7313 1040.1089,648.5 	"/>
	<linearGradient id="SVGID_37_" gradientUnits="userSpaceOnUse" x1="918.9677" y1="105.8051" x2="878.6837" y2="-4.8741">
		<stop  offset="0" style="stop-color:#FFFFFF"/>
		<stop  offset="1" style="stop-color:#000000"/>
	</linearGradient>
	<polygon opacity="0.08" fill="url(#SVGID_37_)" points="766.1341,161.432 1070.6586,47.0391 863.9184,0.5 	"/>
	<linearGradient id="SVGID_38_" gradientUnits="userSpaceOnUse" x1="804.9828" y1="272.3367" x2="877.2146" y2="161.1095">
		<stop  offset="0" style="stop-color:#FFFFFF"/>
		<stop  offset="1" style="stop-color:#000000"/>
	</linearGradient>
	<polygon opacity="0.17" fill="url(#SVGID_38_)" points="882.966,322.9796 930.585,195.7687 766.1341,161.432 	"/>
	<linearGradient id="SVGID_39_" gradientUnits="userSpaceOnUse" x1="924.8251" y1="196.1715" x2="915.1572" y2="57.9128">
		<stop  offset="0" style="stop-color:#FFFFFF"/>
		<stop  offset="1" style="stop-color:#000000"/>
	</linearGradient>
	<polygon opacity="0.2" fill="url(#SVGID_39_)" points="1070.6586,47.0391 930.585,195.7687 766.1341,161.432 	"/>
	<linearGradient id="SVGID_40_" gradientUnits="userSpaceOnUse" x1="863.9184" y1="23.5196" x2="1070.6586" y2="23.5196">
		<stop  offset="0" style="stop-color:#FFFFFF"/>
		<stop  offset="1" style="stop-color:#000000"/>
	</linearGradient>
	<polygon opacity="0.11" fill="url(#SVGID_40_)" points="1050.9932,0 1070.6586,47.0391 863.9184,0.5 	"/>
	<linearGradient id="SVGID_41_" gradientUnits="userSpaceOnUse" x1="998.4578" y1="119.2399" x2="1067.0215" y2="187.8036">
		<stop  offset="0" style="stop-color:#FFFFFF"/>
		<stop  offset="1" style="stop-color:#000000"/>
	</linearGradient>
	<polygon opacity="0.12" fill="url(#SVGID_41_)" points="930.585,195.7687 1052.2538,202.5714 1070.6586,47.0391 	"/>
	<linearGradient id="SVGID_42_" gradientUnits="userSpaceOnUse" x1="939.1284" y1="184.8337" x2="1070.2471" y2="287.2748">
		<stop  offset="0" style="stop-color:#FFFFFF"/>
		<stop  offset="1" style="stop-color:#000000"/>
	</linearGradient>
	<polygon opacity="0.1" fill="url(#SVGID_42_)" points="1035.9736,331.1429 930.585,195.7687 1052.2538,202.5714 	"/>
	<linearGradient id="SVGID_43_" gradientUnits="userSpaceOnUse" x1="1035.9736" y1="263.4558" x2="882.966" y2="263.4558">
		<stop  offset="0" style="stop-color:#FFFFFF"/>
		<stop  offset="1" style="stop-color:#000000"/>
	</linearGradient>
	<polygon opacity="0.09" fill="url(#SVGID_43_)" points="882.966,322.9796 1035.9736,331.1429 930.585,195.7687 	"/>
	<linearGradient id="SVGID_44_" gradientUnits="userSpaceOnUse" x1="1027.314" y1="439.8449" x2="882.9785" y2="322.9642">
		<stop  offset="0" style="stop-color:#FFFFFF"/>
		<stop  offset="1" style="stop-color:#000000"/>
	</linearGradient>
	<polygon opacity="0.12" fill="url(#SVGID_44_)" points="970.7211,509.7313 1035.9736,331.1429 882.966,322.9796 	"/>
	<linearGradient id="SVGID_45_" gradientUnits="userSpaceOnUse" x1="1066.0299" y1="47.7817" x2="1063.5437" y2="0.3423">
		<stop  offset="0" style="stop-color:#FFFFFF"/>
		<stop  offset="1" style="stop-color:#000000"/>
	</linearGradient>
	<polygon opacity="0.04" fill="url(#SVGID_45_)" points="1076.1632,1 1070.6586,47.5391 1050.9932,1 	"/>
	<linearGradient id="SVGID_46_" gradientUnits="userSpaceOnUse" x1="1086.9425" y1="208.688" x2="1114.0951" y2="54.6981">
		<stop  offset="0" style="stop-color:#FFFFFF"/>
		<stop  offset="1" style="stop-color:#000000"/>
	</linearGradient>
	<polygon opacity="0.16" fill="url(#SVGID_46_)" points="1052.2538,202.5714 1152,93.7279 1070.6586,47.0391 	"/>
	<linearGradient id="SVGID_47_" gradientUnits="userSpaceOnUse" x1="1109.8584" y1="-0.7029" x2="1111.4756" y2="45.605">
		<stop  offset="0" style="stop-color:#FFFFFF"/>
		<stop  offset="1" style="stop-color:#000000"/>
	</linearGradient>
	<polygon opacity="0.11" fill="url(#SVGID_47_)" points="1151,14.8163 1070.4086,47.0391 1075.4132,0.5 1151,0 	"/>
	<linearGradient id="SVGID_48_" gradientUnits="userSpaceOnUse" x1="1070.6586" y1="54.2721" x2="1152" y2="54.2721">
		<stop  offset="0" style="stop-color:#FFFFFF"/>
		<stop  offset="1" style="stop-color:#000000"/>
	</linearGradient>
	<polygon opacity="0.14" fill="url(#SVGID_48_)" points="1152,93.7279 1070.6586,47.0391 1151.5,14.8163 	"/>
	<linearGradient id="SVGID_49_" gradientUnits="userSpaceOnUse" x1="1033.9132" y1="245.7792" x2="1121.6118" y2="283.005">
		<stop  offset="0" style="stop-color:#FFFFFF"/>
		<stop  offset="1" style="stop-color:#000000"/>
	</linearGradient>
	<polygon opacity="0.04" fill="url(#SVGID_49_)" points="1035.9736,331.1429 1152,211.415 1052.2538,202.5714 	"/>
	<linearGradient id="SVGID_50_" gradientUnits="userSpaceOnUse" x1="1116.3881" y1="218.772" x2="1092.4542" y2="106.1722">
		<stop  offset="0" style="stop-color:#FFFFFF"/>
		<stop  offset="1" style="stop-color:#000000"/>
	</linearGradient>
	<polygon opacity="0.16" fill="url(#SVGID_50_)" points="1151,93.7279 1051.7538,202.5714 1151,211.415 	"/>
	<linearGradient id="SVGID_51_" gradientUnits="userSpaceOnUse" x1="1040.0204" y1="337.3744" x2="1175.9664" y2="249.09">
		<stop  offset="0" style="stop-color:#FFFFFF"/>
		<stop  offset="1" style="stop-color:#000000"/>
	</linearGradient>
	<polygon opacity="0.14" fill="url(#SVGID_51_)" points="1035.9736,331.1429 1152,318.2177 1151.5,211.415 	"/>
	<linearGradient id="SVGID_52_" gradientUnits="userSpaceOnUse" x1="959.7593" y1="497.557" x2="1084.601" y2="385.149">
		<stop  offset="0" style="stop-color:#FFFFFF"/>
		<stop  offset="1" style="stop-color:#000000"/>
	</linearGradient>
	<polygon opacity="0.16" fill="url(#SVGID_52_)" points="970.7211,509.7313 1089.3312,478.6803 1035.9736,331.1429 	"/>
	<linearGradient id="SVGID_53_" gradientUnits="userSpaceOnUse" x1="1084.88" y1="623.6829" x2="1009.7298" y2="488.1084">
		<stop  offset="0" style="stop-color:#FFFFFF"/>
		<stop  offset="1" style="stop-color:#000000"/>
	</linearGradient>
	<polygon opacity="0.11" fill="url(#SVGID_53_)" points="1040.1089,648.5 1115.5253,573.3822 970.7211,509.7313 	"/>
	<linearGradient id="SVGID_54_" gradientUnits="userSpaceOnUse" x1="1151" y1="398.3401" x2="1035.9736" y2="398.3401">
		<stop  offset="0" style="stop-color:#FFFFFF"/>
		<stop  offset="1" style="stop-color:#000000"/>
	</linearGradient>
	<polygon opacity="0.14" fill="url(#SVGID_54_)" points="1089.3312,478.6803 1151,382.1633 1151,318 1035.9736,331.1429 	"/>
	<linearGradient id="SVGID_55_" gradientUnits="userSpaceOnUse" x1="1040.1089" y1="610.9411" x2="1149.6327" y2="610.9411">
		<stop  offset="0" style="stop-color:#FFFFFF"/>
		<stop  offset="1" style="stop-color:#000000"/>
	</linearGradient>
	<polygon opacity="0.1" fill="url(#SVGID_55_)" points="1115.5253,573.3822 1149.6327,648 1040.1089,648.5 	"/>
	<linearGradient id="SVGID_56_" gradientUnits="userSpaceOnUse" x1="1093.9064" y1="482.7997" x2="1169.7357" y2="398.5827">
		<stop  offset="0" style="stop-color:#FFFFFF"/>
		<stop  offset="1" style="stop-color:#000000"/>
	</linearGradient>
	<polygon opacity="0.05" fill="url(#SVGID_56_)" points="1089.3312,478.6803 1152,454.9524 1151.5,382.1633 	"/>
	<linearGradient id="SVGID_57_" gradientUnits="userSpaceOnUse" x1="1037.9677" y1="550.1371" x2="1110.2379" y2="429.8592">
		<stop  offset="0" style="stop-color:#FFFFFF"/>
		<stop  offset="1" style="stop-color:#000000"/>
	</linearGradient>
	<polygon opacity="0.09" fill="url(#SVGID_57_)" points="1115.5253,573.3822 1157.7959,500.5306 1152,454.9524 1089.3312,478.6803 
		970.7211,509.7313 	"/>
	<linearGradient id="SVGID_58_" gradientUnits="userSpaceOnUse" x1="1115.2753" y1="580.2075" x2="1151" y2="580.2075">
		<stop  offset="0" style="stop-color:#FFFFFF"/>
		<stop  offset="1" style="stop-color:#000000"/>
	</linearGradient>
	<polygon opacity="0.08" fill="url(#SVGID_58_)" points="1149.3827,649 1115.2753,573.6322 1151,511.415 1151,649 	"/>
</g>
</svg>
