<?xml version="1.0" encoding="utf-8"?>
<!-- Generator: Adobe Illustrator 22.0.1, SVG Export Plug-In . SVG Version: 6.00 Build 0)  -->
<svg version="1.1" id="Layer_1" xmlns="http://www.w3.org/2000/svg" xmlns:xlink="http://www.w3.org/1999/xlink" x="0px" y="0px"
	 viewBox="0 0 72 72" style="enable-background:new 0 0 72 72;" xml:space="preserve">
<style type="text/css">
	.st0{fill:#303030;}
</style>
<path id="R" class="st0" d="M28.7,3.1c0-0.3,0.2-0.5,0.5-0.5h8.1c3.3,0,5.9,2.6,5.9,5.9c0,2.5-1.7,4.5-4,5.5l3.7,6.9
	c0.2,0.4,0,0.8-0.5,0.8h-3.6c-0.2,0-0.4-0.1-0.4-0.2l-3.6-7.2H33v6.9c0,0.3-0.2,0.5-0.5,0.5h-3.2c-0.3,0-0.5-0.2-0.5-0.5V3.1z
	 M37,10.7c1.1,0,2.1-1,2.1-2.2c0-1.1-1-2.1-2.1-2.1h-4v4.2H37z"/>
<path id="U" class="st0" d="M52.2,2.9c0-0.3,0.2-0.5,0.5-0.5h3.3c0.3,0,0.5,0.2,0.5,0.5v11c0,1.9,1.4,3.4,3.3,3.4
	c2,0,3.4-1.5,3.4-3.4v-11c0-0.3,0.2-0.5,0.5-0.5h3.3c0.3,0,0.5,0.2,0.5,0.5v11.2c0,4.1-3.5,7.6-7.8,7.6c-4.3,0-7.7-3.4-7.7-7.6V2.9z
	"/>
<path id="N" class="st0" d="M4.7,27c0-0.3,0.2-0.5,0.5-0.5h8.1c3.3,0,5.9,2.6,5.9,5.9c0,2.5-1.7,4.5-4,5.5l3.7,6.9
	c0.2,0.4,0,0.8-0.5,0.8h-3.6c-0.2,0-0.4-0.1-0.4-0.2l-3.6-7.2H9V45c0,0.3-0.2,0.5-0.5,0.5H5.3c-0.3,0-0.5-0.2-0.5-0.5V27z M13,34.7
	c1.1,0,2.1-1,2.1-2.2c0-1.1-1-2.1-2.1-2.1H9v4.2H13z"/>
<path id="U_1_" class="st0" d="M28.2,26.9c0-0.3,0.2-0.5,0.5-0.5h3.3c0.3,0,0.5,0.2,0.5,0.5v11c0,1.9,1.4,3.4,3.3,3.4
	c2,0,3.4-1.5,3.4-3.4v-11c0-0.3,0.2-0.5,0.5-0.5h3.3c0.3,0,0.5,0.2,0.5,0.5v11.2c0,4.1-3.5,7.6-7.8,7.6c-4.3,0-7.7-3.4-7.7-7.6V26.9
	z"/>
<path id="U_2_" class="st0" d="M4.3,50.9c0-0.3,0.2-0.5,0.5-0.5h3.3c0.3,0,0.5,0.2,0.5,0.5v11c0,1.9,1.4,3.4,3.3,3.4
	c2,0,3.4-1.5,3.4-3.4v-11c0-0.3,0.2-0.5,0.5-0.5h3.3c0.3,0,0.5,0.2,0.5,0.5v11.2c0,4.1-3.5,7.6-7.8,7.6c-4.3,0-7.7-3.4-7.7-7.6V50.9
	z"/>
<path id="N_1_" class="st0" d="M51.8,26.7c0-0.3,0.2-0.5,0.5-0.5H53l10.8,10.4h0V27c0-0.3,0.2-0.5,0.5-0.5h3.3
	c0.3,0,0.5,0.2,0.5,0.5v18.3c0,0.3-0.2,0.5-0.5,0.5h-0.4c-0.1,0-0.3-0.1-0.4-0.1L56.1,34.9h0V45c0,0.3-0.2,0.5-0.5,0.5h-3.2
	c-0.3,0-0.5-0.2-0.5-0.5L51.8,26.7z"/>
<path id="N_2_" class="st0" d="M27.8,50.7c0-0.3,0.2-0.5,0.5-0.5H29l10.8,10.4h0V51c0-0.3,0.2-0.5,0.5-0.5h3.3
	c0.3,0,0.5,0.2,0.5,0.5v18.3c0,0.3-0.2,0.5-0.5,0.5h-0.4c-0.1,0-0.3-0.1-0.4-0.1L32.1,58.9h0V69c0,0.3-0.2,0.5-0.5,0.5h-3.2
	c-0.3,0-0.5-0.2-0.5-0.5L27.8,50.7z"/>
<path id="R_1_" class="st0" d="M52.7,51c0-0.3,0.2-0.5,0.5-0.5h8.1c3.3,0,5.9,2.6,5.9,5.9c0,2.5-1.7,4.5-4,5.5l3.7,6.9
	c0.2,0.4,0,0.8-0.5,0.8h-3.6c-0.2,0-0.4-0.1-0.4-0.2l-3.6-7.2h-1.9V69c0,0.3-0.2,0.5-0.5,0.5h-3.2c-0.3,0-0.5-0.2-0.5-0.5V51z
	 M60.9,58.6c1.1,0,2.1-1,2.1-2.2c0-1.1-1-2.1-2.1-2.1h-4v4.2H60.9z"/>
<path id="N_3_" class="st0" d="M3.8,2.8c0-0.3,0.2-0.5,0.5-0.5H5l10.8,10.4h0V3.1c0-0.3,0.2-0.5,0.5-0.5h3.3c0.3,0,0.5,0.2,0.5,0.5
	v18.3c0,0.3-0.2,0.5-0.5,0.5h-0.4c-0.1,0-0.3-0.1-0.4-0.1L8.2,10.9h0v10.1c0,0.3-0.2,0.5-0.5,0.5H4.4c-0.3,0-0.5-0.2-0.5-0.5
	L3.8,2.8z"/>
</svg>
